<?xml version="1.0" encoding="UTF-8" standalone="no"?>
<!DOCTYPE svg PUBLIC "-//W3C//DTD SVG 1.1//EN" "http://www.w3.org/Graphics/SVG/1.1/DTD/svg11.dtd">
<svg width="100%" height="100%" viewBox="0 0 1196 301" version="1.1" xmlns="http://www.w3.org/2000/svg" xmlns:xlink="http://www.w3.org/1999/xlink" xml:space="preserve" xmlns:serif="http://www.serif.com/" style="fill-rule:evenodd;clip-rule:evenodd;stroke-linejoin:round;stroke-miterlimit:2;">
    <g transform="matrix(1,0,0,1,-125.094,-88.5778)">
        <g transform="matrix(1,0,0,1.11327,132.028,947.263)">
            <g transform="matrix(1,0,0,0.898256,-132.028,-850.884)">
                <rect x="125.094" y="88.578" width="1195.42" height="300" style="fill:white;"/>
            </g>
            <g transform="matrix(1,0,0,1,-63.6044,29.0341)">
                <g transform="matrix(1.29452,0,0,0.898256,-52.7501,-882.763)">
                    <path d="M325.973,391.745L351.054,366.49L826.769,366.49L849.269,343.49L1007.97,343.49L1007.97,391.745L325.973,391.745Z" style="fill:url(#_Linear1);"/>
                </g>
                <g transform="matrix(1,0,0,0.898256,68.5364,-881.271)">
                    <path d="M229.705,390.084L325.219,294.829L403.319,294.829L307.768,390.084L229.705,390.084Z" style="fill:url(#_Linear2);"/>
                </g>
                <g transform="matrix(1,0,0,0.898256,90.8621,-899.15)">
                    <path d="M302.91,314.733L415.11,314.733L415.103,201.753L302.91,314.733Z" style="fill:url(#_Linear3);"/>
                </g>
                <g transform="matrix(1,0,0,0.898256,76.7969,-897.645)">
                    <path d="M429.175,200.077L506.85,122.687L513.977,122.687L429.175,207.87L429.175,200.077Z" style="fill:rgb(252,207,49);"/>
                </g>
                <g transform="matrix(1,0,0,0.898256,45.3725,-883.345)">
                    <path d="M232.198,392.392L532.198,92.392L11.298,92.392L11.298,392.392L232.198,392.392Z" style="fill:url(#_Linear4);"/>
                </g>
                <g transform="matrix(1,0,0,0.898256,47.2131,-893.669)">
                    <path d="M230.359,403.931L230.357,308.631L291.095,308.631L482.095,117.631L244.896,117.631L227.344,135.631L9.458,135.631L9.458,403.886L230.359,403.931Z" style="fill:rgb(38,38,38);"/>
                </g>
                <g transform="matrix(1,0,0,0.898256,-132.028,-850.884)">
                    <g transform="matrix(38.6778,0,0,38.6778,217.01,147.922)">
                        <path d="M0.221,-0.658L0.089,-0.658C0.088,-0.661 0.088,-0.666 0.087,-0.672C0.087,-0.677 0.087,-0.683 0.087,-0.688C0.087,-0.693 0.087,-0.698 0.087,-0.705C0.088,-0.711 0.088,-0.716 0.089,-0.719L0.289,-0.719L0.289,-0.143C0.289,-0.114 0.284,-0.089 0.275,-0.069C0.266,-0.049 0.253,-0.033 0.237,-0.021C0.222,-0.009 0.204,-0.001 0.184,0.004C0.164,0.009 0.143,0.012 0.122,0.012C0.102,0.012 0.085,0.011 0.07,0.008C0.055,0.005 0.041,0.002 0.03,-0.001C0.032,-0.02 0.038,-0.04 0.047,-0.062C0.056,-0.059 0.066,-0.057 0.077,-0.055C0.088,-0.052 0.101,-0.051 0.114,-0.051C0.126,-0.051 0.138,-0.052 0.151,-0.055C0.163,-0.057 0.174,-0.062 0.185,-0.069C0.196,-0.076 0.204,-0.086 0.211,-0.099C0.218,-0.112 0.221,-0.13 0.221,-0.152L0.221,-0.658Z" style="fill:rgb(252,207,49);fill-rule:nonzero;"/>
                    </g>
                    <g transform="matrix(38.6778,0,0,38.6778,231.901,147.922)">
                        <path d="M0.084,-0.51C0.088,-0.511 0.094,-0.511 0.101,-0.511C0.108,-0.512 0.114,-0.512 0.117,-0.512C0.121,-0.512 0.127,-0.512 0.134,-0.511C0.141,-0.511 0.146,-0.511 0.15,-0.51L0.15,-0.223C0.15,-0.187 0.154,-0.158 0.161,-0.135C0.168,-0.112 0.179,-0.094 0.194,-0.081C0.208,-0.068 0.225,-0.059 0.246,-0.054C0.267,-0.049 0.29,-0.046 0.316,-0.046C0.338,-0.046 0.358,-0.047 0.375,-0.05C0.392,-0.052 0.408,-0.055 0.421,-0.059L0.421,-0.51C0.425,-0.511 0.431,-0.511 0.438,-0.511C0.445,-0.512 0.451,-0.512 0.454,-0.512C0.458,-0.512 0.464,-0.512 0.47,-0.511C0.477,-0.511 0.483,-0.511 0.487,-0.51L0.487,-0.013C0.462,-0.006 0.435,-0.001 0.405,0.004C0.374,0.009 0.343,0.012 0.311,0.012C0.28,0.012 0.25,0.009 0.223,0.003C0.195,-0.003 0.171,-0.015 0.151,-0.032C0.13,-0.049 0.114,-0.072 0.102,-0.102C0.09,-0.132 0.084,-0.171 0.084,-0.219L0.084,-0.51Z" style="fill:rgb(252,207,49);fill-rule:nonzero;"/>
                    </g>
                    <g transform="matrix(38.6778,0,0,38.6778,254.141,147.922)">
                        <path d="M0.088,-0.51C0.093,-0.511 0.099,-0.511 0.103,-0.511C0.109,-0.512 0.113,-0.512 0.118,-0.512C0.123,-0.512 0.128,-0.512 0.133,-0.511C0.138,-0.511 0.143,-0.511 0.148,-0.51C0.149,-0.498 0.15,-0.483 0.151,-0.465C0.152,-0.447 0.152,-0.431 0.152,-0.418C0.159,-0.43 0.167,-0.442 0.178,-0.455C0.189,-0.467 0.201,-0.478 0.216,-0.488C0.23,-0.498 0.246,-0.506 0.265,-0.513C0.284,-0.519 0.304,-0.522 0.326,-0.522C0.385,-0.522 0.427,-0.504 0.454,-0.469C0.481,-0.435 0.494,-0.385 0.494,-0.322L0.494,0C0.49,0.001 0.485,0.001 0.477,0.001C0.47,0.002 0.465,0.002 0.461,0.002C0.458,0.002 0.452,0.002 0.445,0.001C0.438,0.001 0.432,0.001 0.428,0L0.428,-0.302C0.428,-0.359 0.419,-0.399 0.402,-0.424C0.384,-0.449 0.357,-0.461 0.322,-0.461C0.299,-0.461 0.277,-0.456 0.256,-0.447C0.235,-0.438 0.218,-0.424 0.203,-0.406C0.188,-0.389 0.176,-0.367 0.167,-0.341C0.158,-0.315 0.154,-0.285 0.154,-0.252L0.154,0C0.15,0.001 0.145,0.001 0.138,0.001C0.131,0.002 0.125,0.002 0.121,0.002C0.118,0.002 0.112,0.002 0.105,0.001C0.098,0.001 0.092,0.001 0.088,0L0.088,-0.51Z" style="fill:rgb(252,207,49);fill-rule:nonzero;"/>
                    </g>
                    <g transform="matrix(38.6778,0,0,38.6778,276.264,147.922)">
                        <path d="M0.111,-0.454L0.024,-0.454C0.023,-0.457 0.023,-0.462 0.023,-0.467C0.022,-0.472 0.022,-0.478 0.022,-0.483C0.022,-0.488 0.022,-0.493 0.023,-0.498C0.023,-0.503 0.023,-0.507 0.024,-0.51L0.111,-0.51L0.111,-0.606L0.173,-0.667L0.177,-0.667L0.177,-0.51L0.315,-0.51C0.316,-0.507 0.316,-0.503 0.317,-0.498C0.317,-0.493 0.317,-0.488 0.317,-0.483C0.317,-0.478 0.317,-0.472 0.317,-0.467C0.316,-0.462 0.316,-0.457 0.315,-0.454L0.177,-0.454L0.177,-0.122C0.177,-0.105 0.179,-0.092 0.184,-0.083C0.188,-0.073 0.194,-0.065 0.201,-0.06C0.207,-0.055 0.216,-0.051 0.225,-0.05C0.234,-0.048 0.243,-0.047 0.252,-0.047C0.275,-0.047 0.296,-0.05 0.313,-0.056C0.318,-0.039 0.321,-0.02 0.323,0C0.299,0.007 0.271,0.011 0.239,0.011C0.201,0.011 0.17,0.001 0.147,-0.02C0.123,-0.04 0.111,-0.073 0.111,-0.119L0.111,-0.454Z" style="fill:rgb(252,207,49);fill-rule:nonzero;"/>
                    </g>
                    <g transform="matrix(38.6778,0,0,38.6778,289.376,147.922)">
                        <path d="M0.287,-0.046C0.34,-0.046 0.38,-0.065 0.406,-0.102C0.433,-0.139 0.446,-0.19 0.446,-0.255C0.446,-0.32 0.433,-0.371 0.406,-0.408C0.38,-0.445 0.34,-0.464 0.287,-0.464C0.234,-0.464 0.194,-0.445 0.168,-0.408C0.141,-0.371 0.128,-0.32 0.128,-0.255C0.128,-0.19 0.141,-0.139 0.168,-0.102C0.194,-0.065 0.234,-0.046 0.287,-0.046ZM0.287,0.012C0.249,0.012 0.216,0.005 0.187,-0.009C0.158,-0.022 0.135,-0.041 0.116,-0.065C0.097,-0.089 0.082,-0.117 0.073,-0.15C0.064,-0.183 0.059,-0.218 0.059,-0.255C0.059,-0.292 0.064,-0.327 0.073,-0.36C0.082,-0.393 0.097,-0.421 0.116,-0.445C0.135,-0.469 0.158,-0.488 0.187,-0.501C0.216,-0.515 0.249,-0.522 0.287,-0.522C0.325,-0.522 0.358,-0.515 0.387,-0.501C0.415,-0.488 0.439,-0.469 0.458,-0.445C0.476,-0.421 0.491,-0.393 0.5,-0.36C0.51,-0.327 0.515,-0.292 0.515,-0.255C0.515,-0.218 0.51,-0.183 0.5,-0.15C0.491,-0.117 0.476,-0.089 0.458,-0.065C0.439,-0.041 0.415,-0.022 0.387,-0.009C0.358,0.005 0.325,0.012 0.287,0.012Z" style="fill:rgb(252,207,49);fill-rule:nonzero;"/>
                    </g>
                    <g transform="matrix(38.6778,0,0,38.6778,311.577,147.922)">
                        <path d="M0.074,-0.07C0.089,-0.064 0.108,-0.059 0.131,-0.055C0.154,-0.05 0.177,-0.048 0.198,-0.048C0.238,-0.048 0.27,-0.057 0.293,-0.075C0.316,-0.092 0.328,-0.114 0.328,-0.14C0.328,-0.158 0.325,-0.173 0.318,-0.185C0.311,-0.196 0.301,-0.206 0.29,-0.214C0.278,-0.222 0.265,-0.229 0.25,-0.234C0.235,-0.238 0.22,-0.244 0.205,-0.249C0.188,-0.254 0.172,-0.26 0.156,-0.267C0.139,-0.274 0.125,-0.282 0.112,-0.293C0.099,-0.303 0.089,-0.315 0.082,-0.33C0.074,-0.345 0.07,-0.363 0.07,-0.385C0.07,-0.426 0.085,-0.459 0.115,-0.484C0.144,-0.509 0.19,-0.522 0.252,-0.522C0.278,-0.522 0.303,-0.52 0.328,-0.515C0.352,-0.51 0.371,-0.505 0.384,-0.5C0.381,-0.481 0.376,-0.462 0.37,-0.443C0.356,-0.448 0.338,-0.452 0.317,-0.457C0.295,-0.462 0.272,-0.464 0.249,-0.464C0.208,-0.464 0.18,-0.457 0.163,-0.443C0.146,-0.428 0.137,-0.409 0.137,-0.386C0.137,-0.373 0.14,-0.363 0.146,-0.354C0.151,-0.344 0.159,-0.337 0.169,-0.331C0.178,-0.324 0.189,-0.319 0.202,-0.314C0.214,-0.309 0.227,-0.305 0.241,-0.301C0.259,-0.295 0.277,-0.289 0.296,-0.281C0.314,-0.275 0.331,-0.265 0.345,-0.254C0.361,-0.243 0.373,-0.228 0.383,-0.211C0.392,-0.194 0.397,-0.172 0.397,-0.146C0.397,-0.122 0.392,-0.1 0.383,-0.081C0.373,-0.061 0.359,-0.044 0.342,-0.031C0.325,-0.017 0.304,-0.006 0.28,0.001C0.256,0.008 0.23,0.012 0.201,0.012C0.169,0.012 0.141,0.01 0.116,0.006C0.091,0.002 0.07,-0.003 0.055,-0.01C0.059,-0.03 0.065,-0.05 0.074,-0.07Z" style="fill:rgb(252,207,49);fill-rule:nonzero;"/>
                    </g>
                    <g transform="matrix(38.6778,0,0,38.6778,338.226,147.922)">
                        <path d="M0.079,-0.513C0.086,-0.514 0.093,-0.515 0.1,-0.516C0.107,-0.517 0.114,-0.517 0.121,-0.517C0.128,-0.517 0.135,-0.517 0.142,-0.516C0.149,-0.515 0.156,-0.514 0.163,-0.513C0.164,-0.512 0.165,-0.507 0.166,-0.5L0.172,-0.455C0.172,-0.448 0.173,-0.443 0.173,-0.441C0.18,-0.452 0.188,-0.462 0.197,-0.472C0.206,-0.482 0.218,-0.491 0.231,-0.499C0.244,-0.507 0.258,-0.513 0.275,-0.518C0.291,-0.523 0.309,-0.525 0.329,-0.525C0.359,-0.525 0.387,-0.52 0.412,-0.51C0.438,-0.5 0.46,-0.485 0.478,-0.464C0.497,-0.443 0.511,-0.416 0.522,-0.384C0.532,-0.351 0.537,-0.313 0.537,-0.269C0.537,-0.181 0.513,-0.112 0.466,-0.063C0.418,-0.013 0.35,0.012 0.263,0.012C0.248,0.012 0.233,0.011 0.218,0.009C0.203,0.007 0.189,0.004 0.178,0.001L0.178,0.236C0.17,0.237 0.162,0.238 0.153,0.239C0.143,0.24 0.135,0.24 0.128,0.24C0.121,0.24 0.113,0.24 0.103,0.239C0.095,0.238 0.086,0.237 0.079,0.236L0.079,-0.513ZM0.178,-0.084C0.191,-0.079 0.204,-0.076 0.217,-0.074C0.23,-0.072 0.248,-0.071 0.269,-0.071C0.293,-0.071 0.315,-0.075 0.335,-0.083C0.355,-0.09 0.372,-0.102 0.387,-0.118C0.401,-0.134 0.412,-0.154 0.421,-0.179C0.429,-0.203 0.433,-0.232 0.433,-0.265C0.433,-0.318 0.423,-0.361 0.404,-0.392C0.384,-0.423 0.352,-0.439 0.307,-0.439C0.29,-0.439 0.274,-0.436 0.259,-0.43C0.244,-0.424 0.23,-0.415 0.218,-0.403C0.206,-0.391 0.196,-0.376 0.189,-0.358C0.182,-0.339 0.178,-0.317 0.178,-0.292L0.178,-0.084Z" style="fill:white;fill-rule:nonzero;"/>
                    </g>
                    <g transform="matrix(38.6778,0,0,38.6778,361.046,147.922)">
                        <path d="M0.288,0.012C0.248,0.012 0.213,0.005 0.183,-0.009C0.153,-0.022 0.128,-0.041 0.108,-0.065C0.088,-0.089 0.073,-0.117 0.064,-0.15C0.054,-0.183 0.049,-0.218 0.049,-0.256C0.049,-0.294 0.054,-0.329 0.064,-0.362C0.073,-0.395 0.088,-0.423 0.108,-0.447C0.128,-0.471 0.153,-0.49 0.183,-0.504C0.213,-0.518 0.248,-0.525 0.288,-0.525C0.328,-0.525 0.363,-0.518 0.393,-0.504C0.423,-0.49 0.448,-0.471 0.468,-0.447C0.488,-0.423 0.503,-0.395 0.513,-0.362C0.522,-0.329 0.527,-0.294 0.527,-0.256C0.527,-0.218 0.522,-0.183 0.513,-0.15C0.503,-0.117 0.488,-0.089 0.468,-0.065C0.448,-0.041 0.423,-0.022 0.393,-0.009C0.363,0.005 0.328,0.012 0.288,0.012ZM0.288,-0.067C0.334,-0.067 0.368,-0.084 0.39,-0.117C0.412,-0.15 0.423,-0.197 0.423,-0.256C0.423,-0.315 0.412,-0.362 0.39,-0.395C0.368,-0.428 0.334,-0.444 0.288,-0.444C0.242,-0.444 0.208,-0.428 0.187,-0.395C0.165,-0.362 0.154,-0.315 0.154,-0.256C0.154,-0.197 0.165,-0.15 0.187,-0.117C0.208,-0.084 0.242,-0.067 0.288,-0.067Z" style="fill:white;fill-rule:nonzero;"/>
                    </g>
                    <g transform="matrix(38.6778,0,0,38.6778,383.363,147.922)">
                        <path d="M0.409,-0.733C0.416,-0.734 0.425,-0.735 0.434,-0.736C0.443,-0.737 0.451,-0.737 0.458,-0.737C0.465,-0.737 0.473,-0.737 0.483,-0.736C0.492,-0.735 0.5,-0.734 0.507,-0.733L0.507,-0.014C0.482,-0.007 0.453,-0.001 0.422,0.004C0.391,0.009 0.356,0.012 0.317,0.012C0.281,0.012 0.247,0.007 0.215,-0.002C0.182,-0.011 0.154,-0.025 0.13,-0.046C0.106,-0.067 0.087,-0.093 0.073,-0.126C0.059,-0.159 0.052,-0.199 0.052,-0.247C0.052,-0.288 0.058,-0.326 0.07,-0.36C0.083,-0.394 0.1,-0.423 0.123,-0.448C0.146,-0.472 0.173,-0.491 0.204,-0.504C0.236,-0.517 0.271,-0.524 0.31,-0.524C0.327,-0.524 0.345,-0.523 0.363,-0.52C0.38,-0.517 0.396,-0.514 0.409,-0.51L0.409,-0.733ZM0.409,-0.426C0.396,-0.431 0.381,-0.435 0.366,-0.438C0.351,-0.441 0.334,-0.442 0.316,-0.442C0.289,-0.442 0.265,-0.437 0.245,-0.427C0.225,-0.417 0.209,-0.403 0.196,-0.386C0.183,-0.369 0.173,-0.348 0.167,-0.325C0.16,-0.301 0.157,-0.275 0.157,-0.247C0.158,-0.184 0.173,-0.138 0.202,-0.111C0.231,-0.084 0.271,-0.07 0.322,-0.07C0.339,-0.07 0.355,-0.071 0.37,-0.073C0.385,-0.074 0.398,-0.077 0.409,-0.08L0.409,-0.426Z" style="fill:white;fill-rule:nonzero;"/>
                    </g>
                    <g transform="matrix(38.6778,0,0,38.6778,406.029,147.922)">
                        <path d="M0.154,-0.232C0.155,-0.176 0.17,-0.135 0.198,-0.109C0.225,-0.083 0.266,-0.07 0.32,-0.07C0.367,-0.07 0.412,-0.078 0.455,-0.095C0.46,-0.085 0.465,-0.073 0.468,-0.059C0.471,-0.044 0.473,-0.03 0.474,-0.016C0.452,-0.007 0.428,0 0.402,0.005C0.375,0.01 0.346,0.012 0.314,0.012C0.267,0.012 0.227,0.005 0.194,-0.008C0.161,-0.021 0.133,-0.039 0.112,-0.063C0.09,-0.086 0.074,-0.114 0.064,-0.147C0.054,-0.179 0.049,-0.214 0.049,-0.253C0.049,-0.291 0.054,-0.327 0.064,-0.36C0.073,-0.393 0.088,-0.421 0.108,-0.446C0.128,-0.47 0.153,-0.489 0.184,-0.503C0.214,-0.518 0.25,-0.525 0.291,-0.525C0.326,-0.525 0.357,-0.519 0.384,-0.507C0.411,-0.495 0.433,-0.478 0.451,-0.458C0.469,-0.437 0.483,-0.411 0.492,-0.383C0.501,-0.354 0.506,-0.322 0.506,-0.288C0.506,-0.279 0.506,-0.269 0.505,-0.259C0.504,-0.248 0.504,-0.239 0.503,-0.232L0.154,-0.232ZM0.408,-0.306C0.408,-0.325 0.406,-0.343 0.401,-0.36C0.396,-0.377 0.388,-0.391 0.379,-0.404C0.369,-0.417 0.357,-0.427 0.342,-0.435C0.327,-0.442 0.309,-0.446 0.288,-0.446C0.247,-0.446 0.216,-0.434 0.195,-0.409C0.173,-0.384 0.16,-0.35 0.155,-0.306L0.408,-0.306Z" style="fill:white;fill-rule:nonzero;"/>
                    </g>
                    <g transform="matrix(38.6778,0,0,38.6778,427.533,147.922)">
                        <path d="M0.08,-0.513C0.087,-0.514 0.095,-0.515 0.102,-0.516C0.109,-0.517 0.116,-0.517 0.123,-0.517C0.13,-0.517 0.137,-0.517 0.143,-0.516C0.15,-0.515 0.157,-0.514 0.164,-0.513C0.166,-0.503 0.168,-0.49 0.17,-0.473C0.172,-0.457 0.173,-0.443 0.173,-0.432C0.179,-0.444 0.187,-0.456 0.196,-0.467C0.204,-0.477 0.215,-0.487 0.228,-0.496C0.24,-0.505 0.254,-0.512 0.27,-0.517C0.286,-0.522 0.304,-0.525 0.323,-0.525C0.363,-0.525 0.394,-0.517 0.416,-0.5C0.437,-0.484 0.454,-0.461 0.465,-0.432C0.472,-0.443 0.48,-0.455 0.49,-0.466C0.499,-0.477 0.51,-0.487 0.522,-0.496C0.534,-0.505 0.548,-0.512 0.563,-0.517C0.578,-0.522 0.596,-0.525 0.615,-0.525C0.674,-0.525 0.718,-0.508 0.745,-0.475C0.772,-0.442 0.785,-0.392 0.785,-0.327L0.785,0C0.778,0.001 0.769,0.002 0.76,0.003C0.751,0.004 0.742,0.004 0.735,0.004C0.728,0.004 0.72,0.004 0.711,0.003C0.702,0.002 0.693,0.001 0.686,0L0.686,-0.298C0.686,-0.344 0.679,-0.379 0.665,-0.402C0.651,-0.425 0.628,-0.436 0.596,-0.436C0.562,-0.436 0.535,-0.424 0.514,-0.399C0.493,-0.374 0.482,-0.338 0.482,-0.29L0.482,0C0.475,0.001 0.467,0.002 0.458,0.003C0.449,0.004 0.44,0.004 0.433,0.004C0.426,0.004 0.418,0.004 0.408,0.003C0.4,0.002 0.391,0.001 0.384,0L0.384,-0.305C0.384,-0.35 0.377,-0.383 0.364,-0.406C0.351,-0.428 0.329,-0.439 0.3,-0.439C0.283,-0.439 0.268,-0.435 0.253,-0.428C0.238,-0.421 0.226,-0.41 0.215,-0.395C0.203,-0.38 0.195,-0.362 0.189,-0.34C0.182,-0.317 0.179,-0.291 0.179,-0.262L0.179,0C0.172,0.001 0.164,0.002 0.155,0.003C0.146,0.004 0.137,0.004 0.13,0.004C0.123,0.004 0.114,0.004 0.105,0.003C0.096,0.002 0.087,0.001 0.08,0L0.08,-0.513Z" style="fill:white;fill-rule:nonzero;"/>
                    </g>
                    <g transform="matrix(38.6778,0,0,38.6778,460.564,147.922)">
                        <path d="M0.288,0.012C0.248,0.012 0.213,0.005 0.183,-0.009C0.153,-0.022 0.128,-0.041 0.108,-0.065C0.088,-0.089 0.073,-0.117 0.064,-0.15C0.054,-0.183 0.049,-0.218 0.049,-0.256C0.049,-0.294 0.054,-0.329 0.064,-0.362C0.073,-0.395 0.088,-0.423 0.108,-0.447C0.128,-0.471 0.153,-0.49 0.183,-0.504C0.213,-0.518 0.248,-0.525 0.288,-0.525C0.328,-0.525 0.363,-0.518 0.393,-0.504C0.423,-0.49 0.448,-0.471 0.468,-0.447C0.488,-0.423 0.503,-0.395 0.513,-0.362C0.522,-0.329 0.527,-0.294 0.527,-0.256C0.527,-0.218 0.522,-0.183 0.513,-0.15C0.503,-0.117 0.488,-0.089 0.468,-0.065C0.448,-0.041 0.423,-0.022 0.393,-0.009C0.363,0.005 0.328,0.012 0.288,0.012ZM0.288,-0.067C0.334,-0.067 0.368,-0.084 0.39,-0.117C0.412,-0.15 0.423,-0.197 0.423,-0.256C0.423,-0.315 0.412,-0.362 0.39,-0.395C0.368,-0.428 0.334,-0.444 0.288,-0.444C0.242,-0.444 0.208,-0.428 0.187,-0.395C0.165,-0.362 0.154,-0.315 0.154,-0.256C0.154,-0.197 0.165,-0.15 0.187,-0.117C0.208,-0.084 0.242,-0.067 0.288,-0.067Z" style="fill:white;fill-rule:nonzero;"/>
                    </g>
                    <g transform="matrix(38.6778,0,0,38.6778,482.881,147.922)">
                        <path d="M0.071,-0.093C0.089,-0.086 0.109,-0.08 0.131,-0.076C0.152,-0.071 0.174,-0.069 0.195,-0.069C0.21,-0.069 0.225,-0.071 0.239,-0.074C0.253,-0.077 0.265,-0.082 0.276,-0.089C0.286,-0.096 0.294,-0.104 0.301,-0.114C0.307,-0.123 0.31,-0.134 0.31,-0.146C0.31,-0.159 0.308,-0.17 0.303,-0.179C0.298,-0.188 0.291,-0.195 0.282,-0.201C0.274,-0.207 0.265,-0.212 0.254,-0.217C0.243,-0.221 0.231,-0.225 0.218,-0.229L0.183,-0.242C0.14,-0.258 0.109,-0.276 0.09,-0.296C0.071,-0.316 0.061,-0.343 0.061,-0.377C0.061,-0.422 0.077,-0.458 0.11,-0.485C0.142,-0.512 0.189,-0.525 0.252,-0.525C0.278,-0.525 0.304,-0.523 0.329,-0.518C0.354,-0.513 0.375,-0.507 0.394,-0.5C0.393,-0.487 0.39,-0.473 0.387,-0.46C0.383,-0.447 0.378,-0.434 0.373,-0.423C0.358,-0.428 0.341,-0.434 0.321,-0.439C0.3,-0.444 0.278,-0.446 0.255,-0.446C0.23,-0.446 0.209,-0.442 0.19,-0.433C0.171,-0.424 0.161,-0.409 0.161,-0.387C0.161,-0.376 0.163,-0.366 0.168,-0.358C0.173,-0.35 0.179,-0.343 0.187,-0.338C0.195,-0.332 0.204,-0.327 0.215,-0.323C0.225,-0.319 0.236,-0.315 0.248,-0.311L0.292,-0.296C0.308,-0.291 0.323,-0.284 0.338,-0.277C0.352,-0.27 0.364,-0.261 0.375,-0.25C0.385,-0.238 0.393,-0.225 0.4,-0.21C0.406,-0.194 0.409,-0.175 0.409,-0.153C0.409,-0.128 0.404,-0.106 0.394,-0.086C0.384,-0.065 0.37,-0.048 0.352,-0.034C0.333,-0.019 0.311,-0.008 0.285,0C0.259,0.008 0.23,0.012 0.199,0.012C0.167,0.012 0.139,0.01 0.115,0.005C0.091,0.001 0.069,-0.005 0.048,-0.012C0.049,-0.025 0.052,-0.039 0.057,-0.053C0.061,-0.066 0.066,-0.08 0.071,-0.093Z" style="fill:white;fill-rule:nonzero;"/>
                    </g>
                    <g transform="matrix(38.6778,0,0,38.6778,217.01,187.605)">
                        <path d="M0.422,-0.089C0.427,-0.08 0.432,-0.068 0.436,-0.054C0.44,-0.04 0.442,-0.026 0.443,-0.011C0.404,0.004 0.359,0.012 0.308,0.012C0.223,0.012 0.158,-0.012 0.115,-0.061C0.072,-0.109 0.05,-0.174 0.05,-0.256C0.05,-0.294 0.055,-0.329 0.066,-0.362C0.077,-0.395 0.093,-0.423 0.114,-0.447C0.135,-0.471 0.161,-0.49 0.192,-0.504C0.223,-0.518 0.26,-0.525 0.301,-0.525C0.329,-0.525 0.354,-0.523 0.375,-0.52C0.396,-0.517 0.417,-0.511 0.436,-0.504C0.436,-0.493 0.435,-0.48 0.432,-0.465C0.429,-0.45 0.424,-0.436 0.419,-0.425C0.386,-0.436 0.349,-0.442 0.307,-0.442C0.256,-0.442 0.217,-0.425 0.192,-0.391C0.167,-0.357 0.154,-0.312 0.154,-0.256C0.154,-0.192 0.168,-0.145 0.197,-0.116C0.226,-0.086 0.265,-0.071 0.315,-0.071C0.335,-0.071 0.354,-0.072 0.371,-0.075C0.388,-0.078 0.405,-0.082 0.422,-0.089Z" style="fill:white;fill-rule:nonzero;"/>
                    </g>
                    <g transform="matrix(38.6778,0,0,38.6778,234.918,187.605)">
                        <path d="M0.288,0.012C0.248,0.012 0.213,0.005 0.183,-0.009C0.153,-0.022 0.128,-0.041 0.108,-0.065C0.088,-0.089 0.073,-0.117 0.064,-0.15C0.054,-0.183 0.049,-0.218 0.049,-0.256C0.049,-0.294 0.054,-0.329 0.064,-0.362C0.073,-0.395 0.088,-0.423 0.108,-0.447C0.128,-0.471 0.153,-0.49 0.183,-0.504C0.213,-0.518 0.248,-0.525 0.288,-0.525C0.328,-0.525 0.363,-0.518 0.393,-0.504C0.423,-0.49 0.448,-0.471 0.468,-0.447C0.488,-0.423 0.503,-0.395 0.513,-0.362C0.522,-0.329 0.527,-0.294 0.527,-0.256C0.527,-0.218 0.522,-0.183 0.513,-0.15C0.503,-0.117 0.488,-0.089 0.468,-0.065C0.448,-0.041 0.423,-0.022 0.393,-0.009C0.363,0.005 0.328,0.012 0.288,0.012ZM0.288,-0.067C0.334,-0.067 0.368,-0.084 0.39,-0.117C0.412,-0.15 0.423,-0.197 0.423,-0.256C0.423,-0.315 0.412,-0.362 0.39,-0.395C0.368,-0.428 0.334,-0.444 0.288,-0.444C0.242,-0.444 0.208,-0.428 0.187,-0.395C0.165,-0.362 0.154,-0.315 0.154,-0.256C0.154,-0.197 0.165,-0.15 0.187,-0.117C0.208,-0.084 0.242,-0.067 0.288,-0.067Z" style="fill:white;fill-rule:nonzero;"/>
                    </g>
                    <g transform="matrix(38.6778,0,0,38.6778,257.235,187.605)">
                        <path d="M0.08,-0.513C0.087,-0.514 0.095,-0.515 0.102,-0.516C0.109,-0.517 0.116,-0.517 0.123,-0.517C0.13,-0.517 0.137,-0.517 0.143,-0.516C0.15,-0.515 0.157,-0.514 0.164,-0.513C0.166,-0.503 0.168,-0.49 0.17,-0.472C0.172,-0.456 0.173,-0.441 0.173,-0.43C0.18,-0.441 0.188,-0.453 0.199,-0.464C0.209,-0.475 0.221,-0.486 0.234,-0.495C0.247,-0.503 0.263,-0.511 0.28,-0.517C0.297,-0.522 0.316,-0.525 0.337,-0.525C0.396,-0.525 0.439,-0.508 0.467,-0.474C0.495,-0.441 0.509,-0.391 0.509,-0.325L0.509,0C0.502,0.001 0.493,0.002 0.484,0.003C0.475,0.004 0.466,0.004 0.459,0.004C0.452,0.004 0.444,0.004 0.435,0.003C0.426,0.002 0.417,0.001 0.41,0L0.41,-0.298C0.41,-0.345 0.403,-0.38 0.388,-0.403C0.373,-0.425 0.35,-0.436 0.318,-0.436C0.299,-0.436 0.282,-0.433 0.265,-0.426C0.248,-0.419 0.234,-0.409 0.221,-0.395C0.208,-0.381 0.198,-0.363 0.191,-0.341C0.183,-0.318 0.179,-0.291 0.179,-0.26L0.179,0C0.172,0.001 0.164,0.002 0.155,0.003C0.146,0.004 0.137,0.004 0.13,0.004C0.123,0.004 0.114,0.004 0.105,0.003C0.096,0.002 0.087,0.001 0.08,0L0.08,-0.513Z" style="fill:white;fill-rule:nonzero;"/>
                    </g>
                    <g transform="matrix(38.6778,0,0,38.6778,279.591,187.605)">
                        <path d="M0.071,-0.093C0.089,-0.086 0.109,-0.08 0.131,-0.076C0.152,-0.071 0.174,-0.069 0.195,-0.069C0.21,-0.069 0.225,-0.071 0.239,-0.074C0.253,-0.077 0.265,-0.082 0.276,-0.089C0.286,-0.096 0.294,-0.104 0.301,-0.114C0.307,-0.123 0.31,-0.134 0.31,-0.146C0.31,-0.159 0.308,-0.17 0.303,-0.179C0.298,-0.188 0.291,-0.195 0.282,-0.201C0.274,-0.207 0.265,-0.212 0.254,-0.217C0.243,-0.221 0.231,-0.225 0.218,-0.229L0.183,-0.242C0.14,-0.258 0.109,-0.276 0.09,-0.296C0.071,-0.316 0.061,-0.343 0.061,-0.377C0.061,-0.422 0.077,-0.458 0.11,-0.485C0.142,-0.512 0.189,-0.525 0.252,-0.525C0.278,-0.525 0.304,-0.523 0.329,-0.518C0.354,-0.513 0.375,-0.507 0.394,-0.5C0.393,-0.487 0.39,-0.473 0.387,-0.46C0.383,-0.447 0.378,-0.434 0.373,-0.423C0.358,-0.428 0.341,-0.434 0.321,-0.439C0.3,-0.444 0.278,-0.446 0.255,-0.446C0.23,-0.446 0.209,-0.442 0.19,-0.433C0.171,-0.424 0.161,-0.409 0.161,-0.387C0.161,-0.376 0.163,-0.366 0.168,-0.358C0.173,-0.35 0.179,-0.343 0.187,-0.338C0.195,-0.332 0.204,-0.327 0.215,-0.323C0.225,-0.319 0.236,-0.315 0.248,-0.311L0.292,-0.296C0.308,-0.291 0.323,-0.284 0.338,-0.277C0.352,-0.27 0.364,-0.261 0.375,-0.25C0.385,-0.238 0.393,-0.225 0.4,-0.21C0.406,-0.194 0.409,-0.175 0.409,-0.153C0.409,-0.128 0.404,-0.106 0.394,-0.086C0.384,-0.065 0.37,-0.048 0.352,-0.034C0.333,-0.019 0.311,-0.008 0.285,0C0.259,0.008 0.23,0.012 0.199,0.012C0.167,0.012 0.139,0.01 0.115,0.005C0.091,0.001 0.069,-0.005 0.048,-0.012C0.049,-0.025 0.052,-0.039 0.057,-0.053C0.061,-0.066 0.066,-0.08 0.071,-0.093Z" style="fill:white;fill-rule:nonzero;"/>
                    </g>
                    <g transform="matrix(38.6778,0,0,38.6778,297.189,187.605)">
                        <path d="M0.154,-0.232C0.155,-0.176 0.17,-0.135 0.198,-0.109C0.225,-0.083 0.266,-0.07 0.32,-0.07C0.367,-0.07 0.412,-0.078 0.455,-0.095C0.46,-0.085 0.465,-0.073 0.468,-0.059C0.471,-0.044 0.473,-0.03 0.474,-0.016C0.452,-0.007 0.428,0 0.402,0.005C0.375,0.01 0.346,0.012 0.314,0.012C0.267,0.012 0.227,0.005 0.194,-0.008C0.161,-0.021 0.133,-0.039 0.112,-0.063C0.09,-0.086 0.074,-0.114 0.064,-0.147C0.054,-0.179 0.049,-0.214 0.049,-0.253C0.049,-0.291 0.054,-0.327 0.064,-0.36C0.073,-0.393 0.088,-0.421 0.108,-0.446C0.128,-0.47 0.153,-0.489 0.184,-0.503C0.214,-0.518 0.25,-0.525 0.291,-0.525C0.326,-0.525 0.357,-0.519 0.384,-0.507C0.411,-0.495 0.433,-0.478 0.451,-0.458C0.469,-0.437 0.483,-0.411 0.492,-0.383C0.501,-0.354 0.506,-0.322 0.506,-0.288C0.506,-0.279 0.506,-0.269 0.505,-0.259C0.504,-0.248 0.504,-0.239 0.503,-0.232L0.154,-0.232ZM0.408,-0.306C0.408,-0.325 0.406,-0.343 0.401,-0.36C0.396,-0.377 0.388,-0.391 0.379,-0.404C0.369,-0.417 0.357,-0.427 0.342,-0.435C0.327,-0.442 0.309,-0.446 0.288,-0.446C0.247,-0.446 0.216,-0.434 0.195,-0.409C0.173,-0.384 0.16,-0.35 0.155,-0.306L0.408,-0.306Z" style="fill:white;fill-rule:nonzero;"/>
                    </g>
                    <g transform="matrix(38.6778,0,0,38.6778,318.501,187.605)">
                        <path d="M0.355,-0.066C0.414,-0.065 0.457,-0.052 0.484,-0.028C0.511,-0.004 0.524,0.029 0.524,0.071C0.524,0.098 0.517,0.123 0.503,0.144C0.489,0.166 0.47,0.185 0.445,0.2C0.42,0.216 0.391,0.228 0.358,0.236C0.324,0.245 0.287,0.249 0.248,0.249C0.179,0.249 0.127,0.238 0.091,0.217C0.055,0.196 0.037,0.162 0.037,0.116C0.037,0.089 0.044,0.064 0.059,0.042C0.074,0.021 0.093,0.004 0.116,-0.009C0.103,-0.018 0.092,-0.029 0.083,-0.042C0.074,-0.055 0.069,-0.071 0.069,-0.09C0.069,-0.115 0.075,-0.136 0.086,-0.154C0.097,-0.172 0.111,-0.188 0.13,-0.202C0.108,-0.217 0.09,-0.237 0.077,-0.262C0.064,-0.286 0.057,-0.313 0.057,-0.344C0.057,-0.369 0.062,-0.393 0.071,-0.415C0.08,-0.437 0.094,-0.456 0.112,-0.472C0.129,-0.489 0.151,-0.502 0.177,-0.511C0.203,-0.52 0.233,-0.525 0.266,-0.525C0.296,-0.525 0.323,-0.521 0.347,-0.512C0.372,-0.503 0.393,-0.492 0.41,-0.479C0.423,-0.49 0.441,-0.499 0.464,-0.505C0.487,-0.513 0.512,-0.516 0.539,-0.516C0.542,-0.503 0.543,-0.489 0.543,-0.474C0.543,-0.467 0.543,-0.459 0.542,-0.451C0.541,-0.443 0.54,-0.435 0.539,-0.427L0.449,-0.427C0.456,-0.416 0.462,-0.403 0.466,-0.39C0.47,-0.377 0.472,-0.361 0.472,-0.344C0.472,-0.317 0.467,-0.292 0.457,-0.27C0.447,-0.248 0.433,-0.229 0.414,-0.214C0.396,-0.198 0.374,-0.186 0.349,-0.178C0.324,-0.169 0.296,-0.165 0.266,-0.165C0.239,-0.165 0.214,-0.168 0.192,-0.174C0.183,-0.169 0.173,-0.161 0.165,-0.15C0.156,-0.139 0.151,-0.127 0.151,-0.114C0.151,-0.102 0.155,-0.092 0.164,-0.083C0.173,-0.074 0.192,-0.069 0.222,-0.068L0.355,-0.066ZM0.22,0.013C0.19,0.012 0.168,0.02 0.153,0.037C0.138,0.054 0.13,0.074 0.13,0.097C0.13,0.112 0.133,0.124 0.139,0.133C0.145,0.142 0.154,0.15 0.165,0.155C0.175,0.161 0.189,0.165 0.203,0.167C0.219,0.17 0.235,0.171 0.253,0.171C0.306,0.171 0.348,0.162 0.378,0.144C0.408,0.127 0.423,0.105 0.423,0.078C0.423,0.058 0.417,0.043 0.404,0.032C0.391,0.021 0.368,0.016 0.334,0.015L0.22,0.013ZM0.266,-0.237C0.302,-0.237 0.329,-0.247 0.346,-0.267C0.363,-0.287 0.372,-0.313 0.372,-0.344C0.372,-0.376 0.363,-0.402 0.346,-0.423C0.329,-0.443 0.302,-0.453 0.266,-0.453C0.23,-0.453 0.203,-0.443 0.187,-0.423C0.17,-0.402 0.161,-0.376 0.161,-0.344C0.161,-0.313 0.17,-0.287 0.187,-0.267C0.203,-0.247 0.23,-0.237 0.266,-0.237Z" style="fill:white;fill-rule:nonzero;"/>
                    </g>
                    <g transform="matrix(38.6778,0,0,38.6778,339.889,187.605)">
                        <path d="M0.074,-0.513C0.081,-0.514 0.09,-0.515 0.099,-0.516C0.108,-0.517 0.116,-0.517 0.123,-0.517C0.13,-0.517 0.139,-0.517 0.148,-0.516C0.157,-0.515 0.166,-0.514 0.173,-0.513L0.173,-0.232C0.173,-0.2 0.176,-0.173 0.182,-0.153C0.188,-0.132 0.197,-0.115 0.209,-0.103C0.221,-0.091 0.236,-0.083 0.253,-0.078C0.27,-0.073 0.29,-0.071 0.313,-0.071C0.347,-0.071 0.376,-0.075 0.4,-0.082L0.4,-0.513C0.407,-0.514 0.416,-0.515 0.425,-0.516C0.434,-0.517 0.442,-0.517 0.449,-0.517C0.456,-0.517 0.465,-0.517 0.473,-0.516C0.483,-0.515 0.491,-0.514 0.498,-0.513L0.498,-0.016C0.475,-0.009 0.447,-0.003 0.414,0.003C0.382,0.009 0.349,0.012 0.314,0.012C0.281,0.012 0.251,0.009 0.222,0.003C0.193,-0.002 0.167,-0.014 0.145,-0.031C0.123,-0.048 0.106,-0.073 0.093,-0.104C0.08,-0.135 0.074,-0.177 0.074,-0.228L0.074,-0.513Z" style="fill:white;fill-rule:nonzero;"/>
                    </g>
                    <g transform="matrix(38.6778,0,0,38.6778,362.091,187.605)">
                        <path d="M0.11,-0.435L0.045,-0.435C0.044,-0.44 0.043,-0.447 0.042,-0.454C0.041,-0.461 0.041,-0.467 0.041,-0.474C0.041,-0.481 0.041,-0.488 0.042,-0.495C0.043,-0.501 0.044,-0.508 0.045,-0.513L0.207,-0.513L0.207,0C0.2,0.001 0.192,0.002 0.183,0.003C0.173,0.004 0.165,0.004 0.158,0.004C0.151,0.004 0.143,0.004 0.135,0.003C0.126,0.002 0.117,0.001 0.11,0L0.11,-0.435ZM0.088,-0.626C0.087,-0.634 0.086,-0.643 0.086,-0.652C0.085,-0.661 0.085,-0.67 0.085,-0.677C0.085,-0.684 0.085,-0.693 0.086,-0.702C0.086,-0.711 0.087,-0.72 0.088,-0.727C0.097,-0.728 0.106,-0.729 0.116,-0.73C0.126,-0.731 0.135,-0.731 0.142,-0.731C0.149,-0.731 0.158,-0.731 0.168,-0.73C0.178,-0.729 0.187,-0.728 0.195,-0.727C0.196,-0.72 0.197,-0.711 0.198,-0.702C0.198,-0.693 0.198,-0.684 0.198,-0.677C0.198,-0.67 0.198,-0.661 0.198,-0.652C0.197,-0.643 0.196,-0.634 0.195,-0.626C0.187,-0.625 0.178,-0.624 0.169,-0.623C0.159,-0.622 0.15,-0.622 0.143,-0.622C0.135,-0.622 0.126,-0.622 0.116,-0.623C0.106,-0.624 0.097,-0.625 0.088,-0.626Z" style="fill:white;fill-rule:nonzero;"/>
                    </g>
                    <g transform="matrix(38.6778,0,0,38.6778,373.23,187.605)">
                        <path d="M0.08,-0.513C0.087,-0.514 0.094,-0.515 0.101,-0.516C0.108,-0.517 0.115,-0.517 0.122,-0.517C0.129,-0.517 0.137,-0.517 0.144,-0.516C0.151,-0.515 0.158,-0.514 0.164,-0.513C0.166,-0.503 0.168,-0.49 0.17,-0.473C0.172,-0.457 0.173,-0.443 0.173,-0.432C0.187,-0.455 0.205,-0.474 0.229,-0.491C0.252,-0.508 0.281,-0.516 0.317,-0.516C0.322,-0.516 0.328,-0.516 0.334,-0.516C0.339,-0.515 0.344,-0.515 0.348,-0.514C0.349,-0.508 0.35,-0.502 0.351,-0.495C0.352,-0.488 0.352,-0.481 0.352,-0.474C0.352,-0.466 0.352,-0.458 0.35,-0.449C0.349,-0.44 0.348,-0.432 0.347,-0.424C0.342,-0.425 0.336,-0.426 0.331,-0.426L0.317,-0.426C0.299,-0.426 0.282,-0.424 0.266,-0.419C0.249,-0.413 0.234,-0.405 0.222,-0.392C0.209,-0.379 0.198,-0.362 0.191,-0.34C0.183,-0.318 0.179,-0.29 0.179,-0.255L0.179,0C0.172,0.001 0.164,0.002 0.155,0.003C0.146,0.004 0.137,0.004 0.13,0.004C0.123,0.004 0.115,0.004 0.106,0.003C0.097,0.002 0.088,0.001 0.08,0L0.08,-0.513Z" style="fill:white;fill-rule:nonzero;"/>
                    </g>
                    <g transform="matrix(38.6778,0,0,38.6778,397.287,187.605)">
                        <path d="M0.088,-0.735C0.092,-0.736 0.098,-0.736 0.105,-0.737C0.112,-0.737 0.117,-0.737 0.121,-0.737C0.124,-0.737 0.13,-0.737 0.137,-0.737C0.144,-0.736 0.15,-0.736 0.154,-0.735L0.154,-0.118C0.154,-0.101 0.156,-0.087 0.16,-0.078C0.164,-0.068 0.169,-0.061 0.175,-0.057C0.181,-0.052 0.188,-0.05 0.195,-0.049C0.202,-0.048 0.209,-0.047 0.215,-0.047C0.222,-0.047 0.23,-0.048 0.238,-0.049C0.246,-0.05 0.253,-0.051 0.258,-0.052C0.261,-0.044 0.264,-0.035 0.265,-0.026C0.266,-0.017 0.267,-0.008 0.268,0C0.259,0.003 0.248,0.006 0.236,0.007C0.225,0.008 0.214,0.009 0.204,0.009C0.19,0.009 0.176,0.007 0.162,0.004C0.148,0.001 0.136,-0.004 0.125,-0.013C0.114,-0.021 0.105,-0.032 0.098,-0.047C0.091,-0.061 0.088,-0.08 0.088,-0.103L0.088,-0.735Z" style="fill:rgb(217,217,217);fill-rule:nonzero;"/>
                    </g>
                    <g transform="matrix(38.6778,0,0,38.6778,408.078,187.605)">
                        <path d="M0.287,-0.046C0.34,-0.046 0.38,-0.065 0.406,-0.102C0.433,-0.139 0.446,-0.19 0.446,-0.255C0.446,-0.32 0.433,-0.371 0.406,-0.408C0.38,-0.445 0.34,-0.464 0.287,-0.464C0.234,-0.464 0.194,-0.445 0.168,-0.408C0.141,-0.371 0.128,-0.32 0.128,-0.255C0.128,-0.19 0.141,-0.139 0.168,-0.102C0.194,-0.065 0.234,-0.046 0.287,-0.046ZM0.287,0.012C0.249,0.012 0.216,0.005 0.187,-0.009C0.158,-0.022 0.135,-0.041 0.116,-0.065C0.097,-0.089 0.082,-0.117 0.073,-0.15C0.064,-0.183 0.059,-0.218 0.059,-0.255C0.059,-0.292 0.064,-0.327 0.073,-0.36C0.082,-0.393 0.097,-0.421 0.116,-0.445C0.135,-0.469 0.158,-0.488 0.187,-0.501C0.216,-0.515 0.249,-0.522 0.287,-0.522C0.325,-0.522 0.358,-0.515 0.387,-0.501C0.415,-0.488 0.439,-0.469 0.458,-0.445C0.476,-0.421 0.491,-0.393 0.5,-0.36C0.51,-0.327 0.515,-0.292 0.515,-0.255C0.515,-0.218 0.51,-0.183 0.5,-0.15C0.491,-0.117 0.476,-0.089 0.458,-0.065C0.439,-0.041 0.415,-0.022 0.387,-0.009C0.358,0.005 0.325,0.012 0.287,0.012Z" style="fill:rgb(217,217,217);fill-rule:nonzero;"/>
                    </g>
                    <g transform="matrix(38.6778,0,0,38.6778,439.949,187.605)">
                        <path d="M0.43,-0.003C0.414,0.002 0.397,0.005 0.378,0.008C0.359,0.011 0.339,0.012 0.318,0.012C0.283,0.012 0.249,0.008 0.218,0C0.187,-0.008 0.159,-0.022 0.136,-0.042C0.113,-0.061 0.094,-0.087 0.081,-0.119C0.068,-0.152 0.061,-0.192 0.061,-0.24C0.061,-0.284 0.068,-0.323 0.081,-0.358C0.094,-0.393 0.112,-0.422 0.135,-0.447C0.158,-0.471 0.187,-0.49 0.22,-0.502C0.253,-0.516 0.289,-0.522 0.329,-0.522C0.348,-0.522 0.365,-0.522 0.38,-0.521C0.395,-0.52 0.408,-0.518 0.422,-0.516C0.435,-0.514 0.447,-0.512 0.459,-0.509C0.471,-0.506 0.483,-0.503 0.496,-0.499L0.496,0.236C0.492,0.237 0.486,0.237 0.479,0.237C0.472,0.238 0.466,0.238 0.463,0.238C0.459,0.238 0.454,0.238 0.447,0.237C0.44,0.237 0.434,0.237 0.43,0.236L0.43,-0.003ZM0.43,-0.454C0.41,-0.458 0.394,-0.461 0.381,-0.462C0.368,-0.463 0.352,-0.464 0.333,-0.464C0.299,-0.464 0.269,-0.458 0.244,-0.447C0.218,-0.436 0.197,-0.42 0.18,-0.399C0.163,-0.378 0.151,-0.354 0.142,-0.326C0.134,-0.298 0.13,-0.267 0.13,-0.233C0.13,-0.2 0.135,-0.172 0.143,-0.149C0.153,-0.126 0.165,-0.106 0.182,-0.091C0.199,-0.076 0.218,-0.064 0.241,-0.057C0.263,-0.05 0.288,-0.046 0.315,-0.046C0.337,-0.046 0.358,-0.048 0.379,-0.051C0.4,-0.054 0.417,-0.058 0.43,-0.063L0.43,-0.454Z" style="fill:rgb(217,217,217);fill-rule:nonzero;"/>
                    </g>
                    <g transform="matrix(38.6778,0,0,38.6778,462.537,187.605)">
                        <path d="M0.084,-0.51C0.088,-0.511 0.094,-0.511 0.101,-0.511C0.108,-0.512 0.114,-0.512 0.117,-0.512C0.121,-0.512 0.127,-0.512 0.134,-0.511C0.141,-0.511 0.146,-0.511 0.15,-0.51L0.15,-0.223C0.15,-0.187 0.154,-0.158 0.161,-0.135C0.168,-0.112 0.179,-0.094 0.194,-0.081C0.208,-0.068 0.225,-0.059 0.246,-0.054C0.267,-0.049 0.29,-0.046 0.316,-0.046C0.338,-0.046 0.358,-0.047 0.375,-0.05C0.392,-0.052 0.408,-0.055 0.421,-0.059L0.421,-0.51C0.425,-0.511 0.431,-0.511 0.438,-0.511C0.445,-0.512 0.451,-0.512 0.454,-0.512C0.458,-0.512 0.464,-0.512 0.47,-0.511C0.477,-0.511 0.483,-0.511 0.487,-0.51L0.487,-0.013C0.462,-0.006 0.435,-0.001 0.405,0.004C0.374,0.009 0.343,0.012 0.311,0.012C0.28,0.012 0.25,0.009 0.223,0.003C0.195,-0.003 0.171,-0.015 0.151,-0.032C0.13,-0.049 0.114,-0.072 0.102,-0.102C0.09,-0.132 0.084,-0.171 0.084,-0.219L0.084,-0.51Z" style="fill:rgb(217,217,217);fill-rule:nonzero;"/>
                    </g>
                    <g transform="matrix(38.6778,0,0,38.6778,484.777,187.605)">
                        <path d="M0.13,-0.245C0.13,-0.177 0.146,-0.127 0.177,-0.095C0.208,-0.063 0.255,-0.047 0.318,-0.047C0.343,-0.047 0.367,-0.049 0.389,-0.054C0.41,-0.058 0.431,-0.064 0.452,-0.071C0.455,-0.064 0.458,-0.055 0.46,-0.044C0.462,-0.033 0.463,-0.024 0.464,-0.015C0.445,-0.006 0.422,0 0.396,0.005C0.37,0.01 0.342,0.012 0.311,0.012C0.267,0.012 0.229,0.005 0.198,-0.008C0.166,-0.021 0.14,-0.039 0.119,-0.062C0.099,-0.085 0.084,-0.113 0.075,-0.146C0.065,-0.178 0.06,-0.213 0.06,-0.252C0.06,-0.289 0.065,-0.324 0.074,-0.357C0.083,-0.39 0.096,-0.418 0.115,-0.443C0.133,-0.468 0.156,-0.487 0.185,-0.501C0.214,-0.515 0.248,-0.522 0.288,-0.522C0.321,-0.522 0.351,-0.516 0.377,-0.505C0.403,-0.494 0.425,-0.478 0.443,-0.458C0.46,-0.437 0.473,-0.413 0.483,-0.385C0.492,-0.356 0.496,-0.325 0.496,-0.292C0.496,-0.286 0.496,-0.278 0.496,-0.269C0.495,-0.26 0.495,-0.252 0.494,-0.245L0.13,-0.245ZM0.43,-0.3C0.43,-0.321 0.427,-0.341 0.422,-0.361C0.417,-0.381 0.408,-0.399 0.397,-0.413C0.386,-0.429 0.371,-0.441 0.353,-0.45C0.335,-0.459 0.313,-0.464 0.288,-0.464C0.241,-0.464 0.205,-0.45 0.179,-0.421C0.153,-0.392 0.137,-0.352 0.132,-0.3L0.43,-0.3Z" style="fill:rgb(217,217,217);fill-rule:nonzero;"/>
                    </g>
                    <g transform="matrix(38.6778,0,0,38.6778,217.01,227.289)">
                        <path d="M0.074,-0.07C0.089,-0.064 0.108,-0.059 0.131,-0.055C0.154,-0.05 0.177,-0.048 0.198,-0.048C0.238,-0.048 0.27,-0.057 0.293,-0.075C0.316,-0.092 0.328,-0.114 0.328,-0.14C0.328,-0.158 0.325,-0.173 0.318,-0.185C0.311,-0.196 0.301,-0.206 0.29,-0.214C0.278,-0.222 0.265,-0.229 0.25,-0.234C0.235,-0.238 0.22,-0.244 0.205,-0.249C0.188,-0.254 0.172,-0.26 0.156,-0.267C0.139,-0.274 0.125,-0.282 0.112,-0.293C0.099,-0.303 0.089,-0.315 0.082,-0.33C0.074,-0.345 0.07,-0.363 0.07,-0.385C0.07,-0.426 0.085,-0.459 0.115,-0.484C0.144,-0.509 0.19,-0.522 0.252,-0.522C0.278,-0.522 0.303,-0.52 0.328,-0.515C0.352,-0.51 0.371,-0.505 0.384,-0.5C0.381,-0.481 0.376,-0.462 0.37,-0.443C0.356,-0.448 0.338,-0.452 0.317,-0.457C0.295,-0.462 0.272,-0.464 0.249,-0.464C0.208,-0.464 0.18,-0.457 0.163,-0.443C0.146,-0.428 0.137,-0.409 0.137,-0.386C0.137,-0.373 0.14,-0.363 0.146,-0.354C0.151,-0.344 0.159,-0.337 0.169,-0.331C0.178,-0.324 0.189,-0.319 0.202,-0.314C0.214,-0.309 0.227,-0.305 0.241,-0.301C0.259,-0.295 0.277,-0.289 0.296,-0.281C0.314,-0.275 0.331,-0.265 0.345,-0.254C0.361,-0.243 0.373,-0.228 0.383,-0.211C0.392,-0.194 0.397,-0.172 0.397,-0.146C0.397,-0.122 0.392,-0.1 0.383,-0.081C0.373,-0.061 0.359,-0.044 0.342,-0.031C0.325,-0.017 0.304,-0.006 0.28,0.001C0.256,0.008 0.23,0.012 0.201,0.012C0.169,0.012 0.141,0.01 0.116,0.006C0.091,0.002 0.07,-0.003 0.055,-0.01C0.059,-0.03 0.065,-0.05 0.074,-0.07Z" style="fill:rgb(217,217,217);fill-rule:nonzero;"/>
                    </g>
                    <g transform="matrix(38.6778,0,0,38.6778,234.492,227.289)">
                        <path d="M0.13,-0.245C0.13,-0.177 0.146,-0.127 0.177,-0.095C0.208,-0.063 0.255,-0.047 0.318,-0.047C0.343,-0.047 0.367,-0.049 0.389,-0.054C0.41,-0.058 0.431,-0.064 0.452,-0.071C0.455,-0.064 0.458,-0.055 0.46,-0.044C0.462,-0.033 0.463,-0.024 0.464,-0.015C0.445,-0.006 0.422,0 0.396,0.005C0.37,0.01 0.342,0.012 0.311,0.012C0.267,0.012 0.229,0.005 0.198,-0.008C0.166,-0.021 0.14,-0.039 0.119,-0.062C0.099,-0.085 0.084,-0.113 0.075,-0.146C0.065,-0.178 0.06,-0.213 0.06,-0.252C0.06,-0.289 0.065,-0.324 0.074,-0.357C0.083,-0.39 0.096,-0.418 0.115,-0.443C0.133,-0.468 0.156,-0.487 0.185,-0.501C0.214,-0.515 0.248,-0.522 0.288,-0.522C0.321,-0.522 0.351,-0.516 0.377,-0.505C0.403,-0.494 0.425,-0.478 0.443,-0.458C0.46,-0.437 0.473,-0.413 0.483,-0.385C0.492,-0.356 0.496,-0.325 0.496,-0.292C0.496,-0.286 0.496,-0.278 0.496,-0.269C0.495,-0.26 0.495,-0.252 0.494,-0.245L0.13,-0.245ZM0.43,-0.3C0.43,-0.321 0.427,-0.341 0.422,-0.361C0.417,-0.381 0.408,-0.399 0.397,-0.413C0.386,-0.429 0.371,-0.441 0.353,-0.45C0.335,-0.459 0.313,-0.464 0.288,-0.464C0.241,-0.464 0.205,-0.45 0.179,-0.421C0.153,-0.392 0.137,-0.352 0.132,-0.3L0.43,-0.3Z" style="fill:rgb(217,217,217);fill-rule:nonzero;"/>
                    </g>
                    <g transform="matrix(38.6778,0,0,38.6778,255.881,227.289)">
                        <path d="M0.088,-0.51C0.092,-0.511 0.097,-0.511 0.103,-0.511C0.109,-0.512 0.114,-0.512 0.118,-0.512C0.122,-0.512 0.127,-0.512 0.133,-0.511C0.139,-0.511 0.144,-0.511 0.148,-0.51L0.154,-0.44C0.168,-0.461 0.188,-0.48 0.215,-0.497C0.241,-0.514 0.275,-0.522 0.317,-0.522C0.348,-0.522 0.377,-0.517 0.403,-0.507C0.429,-0.498 0.451,-0.483 0.469,-0.462C0.488,-0.441 0.502,-0.415 0.513,-0.384C0.523,-0.353 0.528,-0.315 0.528,-0.271C0.528,-0.227 0.522,-0.188 0.51,-0.153C0.498,-0.117 0.481,-0.088 0.458,-0.064C0.435,-0.039 0.406,-0.021 0.373,-0.008C0.339,0.005 0.3,0.012 0.257,0.012C0.241,0.012 0.224,0.011 0.205,0.008C0.186,0.005 0.169,0.001 0.154,-0.004L0.154,0.236C0.15,0.237 0.144,0.237 0.137,0.237C0.13,0.238 0.124,0.238 0.121,0.238C0.117,0.238 0.112,0.238 0.105,0.237C0.098,0.237 0.092,0.237 0.088,0.236L0.088,-0.51ZM0.154,-0.065C0.169,-0.059 0.185,-0.055 0.202,-0.051C0.218,-0.049 0.24,-0.047 0.267,-0.047C0.293,-0.047 0.318,-0.051 0.341,-0.059C0.364,-0.068 0.385,-0.081 0.402,-0.099C0.419,-0.117 0.433,-0.14 0.443,-0.168C0.453,-0.195 0.458,-0.228 0.458,-0.267C0.458,-0.328 0.447,-0.376 0.424,-0.411C0.401,-0.446 0.363,-0.463 0.312,-0.463C0.296,-0.463 0.279,-0.46 0.26,-0.455C0.241,-0.45 0.224,-0.441 0.209,-0.428C0.193,-0.414 0.18,-0.398 0.17,-0.377C0.159,-0.356 0.154,-0.329 0.154,-0.297L0.154,-0.065Z" style="fill:rgb(217,217,217);fill-rule:nonzero;"/>
                    </g>
                    <g transform="matrix(38.6778,0,0,38.6778,278.662,227.289)">
                        <path d="M0.369,-0.248C0.358,-0.249 0.344,-0.251 0.327,-0.253C0.31,-0.254 0.293,-0.255 0.278,-0.255C0.228,-0.255 0.189,-0.246 0.162,-0.227C0.135,-0.208 0.121,-0.182 0.121,-0.147C0.121,-0.125 0.125,-0.107 0.134,-0.094C0.142,-0.081 0.153,-0.07 0.166,-0.064C0.179,-0.057 0.194,-0.052 0.21,-0.05C0.226,-0.047 0.242,-0.046 0.258,-0.046C0.279,-0.046 0.298,-0.047 0.316,-0.049C0.334,-0.051 0.352,-0.054 0.369,-0.057L0.369,-0.248ZM0.369,-0.337C0.369,-0.381 0.359,-0.413 0.338,-0.434C0.317,-0.454 0.287,-0.464 0.246,-0.464C0.219,-0.464 0.195,-0.462 0.173,-0.459C0.151,-0.455 0.131,-0.45 0.114,-0.445C0.111,-0.451 0.108,-0.46 0.106,-0.471C0.103,-0.482 0.102,-0.493 0.102,-0.503C0.119,-0.508 0.141,-0.513 0.166,-0.517C0.191,-0.52 0.217,-0.522 0.244,-0.522C0.309,-0.522 0.357,-0.508 0.388,-0.48C0.419,-0.451 0.435,-0.407 0.435,-0.346L0.435,-0.009C0.412,-0.004 0.383,0 0.35,0.005C0.317,0.01 0.285,0.012 0.255,0.012C0.193,0.012 0.144,0 0.109,-0.025C0.073,-0.05 0.055,-0.09 0.055,-0.145C0.055,-0.172 0.06,-0.196 0.07,-0.217C0.081,-0.237 0.095,-0.255 0.114,-0.27C0.132,-0.284 0.154,-0.295 0.18,-0.302C0.205,-0.309 0.233,-0.313 0.264,-0.313C0.288,-0.313 0.309,-0.312 0.326,-0.311C0.343,-0.309 0.358,-0.307 0.369,-0.306L0.369,-0.337Z" style="fill:rgb(217,217,217);fill-rule:nonzero;"/>
                    </g>
                    <g transform="matrix(38.6778,0,0,38.6778,298.504,227.289)">
                        <path d="M0.088,-0.51C0.093,-0.511 0.099,-0.511 0.103,-0.511C0.109,-0.512 0.113,-0.512 0.118,-0.512C0.123,-0.512 0.128,-0.512 0.133,-0.511C0.138,-0.511 0.143,-0.511 0.148,-0.51C0.149,-0.498 0.15,-0.484 0.151,-0.468C0.152,-0.451 0.152,-0.436 0.152,-0.423C0.165,-0.448 0.184,-0.469 0.208,-0.486C0.232,-0.502 0.264,-0.511 0.303,-0.511L0.314,-0.511C0.317,-0.511 0.321,-0.511 0.326,-0.51C0.328,-0.499 0.329,-0.488 0.329,-0.478C0.329,-0.467 0.328,-0.457 0.326,-0.447C0.321,-0.448 0.317,-0.448 0.314,-0.448L0.304,-0.448C0.259,-0.448 0.222,-0.434 0.195,-0.405C0.168,-0.376 0.154,-0.329 0.154,-0.262L0.154,0C0.15,0.001 0.145,0.001 0.138,0.001C0.131,0.002 0.125,0.002 0.121,0.002C0.118,0.002 0.112,0.002 0.105,0.001C0.098,0.001 0.092,0.001 0.088,0L0.088,-0.51Z" style="fill:rgb(217,217,217);fill-rule:nonzero;"/>
                    </g>
                    <g transform="matrix(38.6778,0,0,38.6778,311.655,227.289)">
                        <path d="M0.369,-0.248C0.358,-0.249 0.344,-0.251 0.327,-0.253C0.31,-0.254 0.293,-0.255 0.278,-0.255C0.228,-0.255 0.189,-0.246 0.162,-0.227C0.135,-0.208 0.121,-0.182 0.121,-0.147C0.121,-0.125 0.125,-0.107 0.134,-0.094C0.142,-0.081 0.153,-0.07 0.166,-0.064C0.179,-0.057 0.194,-0.052 0.21,-0.05C0.226,-0.047 0.242,-0.046 0.258,-0.046C0.279,-0.046 0.298,-0.047 0.316,-0.049C0.334,-0.051 0.352,-0.054 0.369,-0.057L0.369,-0.248ZM0.369,-0.337C0.369,-0.381 0.359,-0.413 0.338,-0.434C0.317,-0.454 0.287,-0.464 0.246,-0.464C0.219,-0.464 0.195,-0.462 0.173,-0.459C0.151,-0.455 0.131,-0.45 0.114,-0.445C0.111,-0.451 0.108,-0.46 0.106,-0.471C0.103,-0.482 0.102,-0.493 0.102,-0.503C0.119,-0.508 0.141,-0.513 0.166,-0.517C0.191,-0.52 0.217,-0.522 0.244,-0.522C0.309,-0.522 0.357,-0.508 0.388,-0.48C0.419,-0.451 0.435,-0.407 0.435,-0.346L0.435,-0.009C0.412,-0.004 0.383,0 0.35,0.005C0.317,0.01 0.285,0.012 0.255,0.012C0.193,0.012 0.144,0 0.109,-0.025C0.073,-0.05 0.055,-0.09 0.055,-0.145C0.055,-0.172 0.06,-0.196 0.07,-0.217C0.081,-0.237 0.095,-0.255 0.114,-0.27C0.132,-0.284 0.154,-0.295 0.18,-0.302C0.205,-0.309 0.233,-0.313 0.264,-0.313C0.288,-0.313 0.309,-0.312 0.326,-0.311C0.343,-0.309 0.358,-0.307 0.369,-0.306L0.369,-0.337Z" style="fill:rgb(217,217,217);fill-rule:nonzero;"/>
                    </g>
                    <g transform="matrix(38.6778,0,0,38.6778,331.496,227.289)">
                        <path d="M0.431,-0.735C0.435,-0.736 0.441,-0.736 0.448,-0.737C0.455,-0.737 0.461,-0.737 0.464,-0.737C0.468,-0.737 0.473,-0.737 0.481,-0.737C0.488,-0.736 0.493,-0.736 0.497,-0.735L0.497,-0.012C0.476,-0.005 0.451,0 0.42,0.005C0.389,0.01 0.357,0.012 0.324,0.012C0.287,0.012 0.253,0.008 0.221,-0.001C0.189,-0.01 0.161,-0.024 0.138,-0.044C0.115,-0.064 0.096,-0.09 0.083,-0.123C0.069,-0.156 0.062,-0.196 0.062,-0.244C0.062,-0.288 0.068,-0.327 0.08,-0.362C0.092,-0.396 0.109,-0.425 0.131,-0.449C0.153,-0.472 0.18,-0.49 0.211,-0.503C0.242,-0.516 0.276,-0.522 0.313,-0.522C0.335,-0.522 0.357,-0.52 0.379,-0.517C0.4,-0.513 0.418,-0.509 0.431,-0.504L0.431,-0.735ZM0.431,-0.442C0.418,-0.447 0.401,-0.452 0.38,-0.457C0.359,-0.461 0.338,-0.463 0.316,-0.463C0.285,-0.463 0.258,-0.458 0.234,-0.447C0.212,-0.436 0.192,-0.422 0.177,-0.403C0.162,-0.384 0.15,-0.361 0.142,-0.334C0.135,-0.307 0.131,-0.278 0.131,-0.246C0.131,-0.177 0.148,-0.126 0.181,-0.095C0.214,-0.063 0.26,-0.047 0.321,-0.047C0.343,-0.047 0.364,-0.048 0.384,-0.051C0.404,-0.053 0.42,-0.056 0.431,-0.059L0.431,-0.442Z" style="fill:rgb(217,217,217);fill-rule:nonzero;"/>
                    </g>
                    <g transform="matrix(38.6778,0,0,38.6778,354.123,227.289)">
                        <path d="M0.287,-0.046C0.34,-0.046 0.38,-0.065 0.406,-0.102C0.433,-0.139 0.446,-0.19 0.446,-0.255C0.446,-0.32 0.433,-0.371 0.406,-0.408C0.38,-0.445 0.34,-0.464 0.287,-0.464C0.234,-0.464 0.194,-0.445 0.168,-0.408C0.141,-0.371 0.128,-0.32 0.128,-0.255C0.128,-0.19 0.141,-0.139 0.168,-0.102C0.194,-0.065 0.234,-0.046 0.287,-0.046ZM0.287,0.012C0.249,0.012 0.216,0.005 0.187,-0.009C0.158,-0.022 0.135,-0.041 0.116,-0.065C0.097,-0.089 0.082,-0.117 0.073,-0.15C0.064,-0.183 0.059,-0.218 0.059,-0.255C0.059,-0.292 0.064,-0.327 0.073,-0.36C0.082,-0.393 0.097,-0.421 0.116,-0.445C0.135,-0.469 0.158,-0.488 0.187,-0.501C0.216,-0.515 0.249,-0.522 0.287,-0.522C0.325,-0.522 0.358,-0.515 0.387,-0.501C0.415,-0.488 0.439,-0.469 0.458,-0.445C0.476,-0.421 0.491,-0.393 0.5,-0.36C0.51,-0.327 0.515,-0.292 0.515,-0.255C0.515,-0.218 0.51,-0.183 0.5,-0.15C0.491,-0.117 0.476,-0.089 0.458,-0.065C0.439,-0.041 0.415,-0.022 0.387,-0.009C0.358,0.005 0.325,0.012 0.287,0.012Z" style="fill:rgb(217,217,217);fill-rule:nonzero;"/>
                    </g>
                    <g transform="matrix(38.6778,0,0,38.6778,376.324,227.289)">
                        <path d="M0.074,-0.07C0.089,-0.064 0.108,-0.059 0.131,-0.055C0.154,-0.05 0.177,-0.048 0.198,-0.048C0.238,-0.048 0.27,-0.057 0.293,-0.075C0.316,-0.092 0.328,-0.114 0.328,-0.14C0.328,-0.158 0.325,-0.173 0.318,-0.185C0.311,-0.196 0.301,-0.206 0.29,-0.214C0.278,-0.222 0.265,-0.229 0.25,-0.234C0.235,-0.238 0.22,-0.244 0.205,-0.249C0.188,-0.254 0.172,-0.26 0.156,-0.267C0.139,-0.274 0.125,-0.282 0.112,-0.293C0.099,-0.303 0.089,-0.315 0.082,-0.33C0.074,-0.345 0.07,-0.363 0.07,-0.385C0.07,-0.426 0.085,-0.459 0.115,-0.484C0.144,-0.509 0.19,-0.522 0.252,-0.522C0.278,-0.522 0.303,-0.52 0.328,-0.515C0.352,-0.51 0.371,-0.505 0.384,-0.5C0.381,-0.481 0.376,-0.462 0.37,-0.443C0.356,-0.448 0.338,-0.452 0.317,-0.457C0.295,-0.462 0.272,-0.464 0.249,-0.464C0.208,-0.464 0.18,-0.457 0.163,-0.443C0.146,-0.428 0.137,-0.409 0.137,-0.386C0.137,-0.373 0.14,-0.363 0.146,-0.354C0.151,-0.344 0.159,-0.337 0.169,-0.331C0.178,-0.324 0.189,-0.319 0.202,-0.314C0.214,-0.309 0.227,-0.305 0.241,-0.301C0.259,-0.295 0.277,-0.289 0.296,-0.281C0.314,-0.275 0.331,-0.265 0.345,-0.254C0.361,-0.243 0.373,-0.228 0.383,-0.211C0.392,-0.194 0.397,-0.172 0.397,-0.146C0.397,-0.122 0.392,-0.1 0.383,-0.081C0.373,-0.061 0.359,-0.044 0.342,-0.031C0.325,-0.017 0.304,-0.006 0.28,0.001C0.256,0.008 0.23,0.012 0.201,0.012C0.169,0.012 0.141,0.01 0.116,0.006C0.091,0.002 0.07,-0.003 0.055,-0.01C0.059,-0.03 0.065,-0.05 0.074,-0.07Z" style="fill:rgb(217,217,217);fill-rule:nonzero;"/>
                    </g>
                    <g transform="matrix(38.6778,0,0,38.6778,403.476,227.289)">
                        <path d="M0.074,-0.07C0.089,-0.064 0.108,-0.059 0.131,-0.055C0.154,-0.05 0.177,-0.048 0.198,-0.048C0.238,-0.048 0.27,-0.057 0.293,-0.075C0.316,-0.092 0.328,-0.114 0.328,-0.14C0.328,-0.158 0.325,-0.173 0.318,-0.185C0.311,-0.196 0.301,-0.206 0.29,-0.214C0.278,-0.222 0.265,-0.229 0.25,-0.234C0.235,-0.238 0.22,-0.244 0.205,-0.249C0.188,-0.254 0.172,-0.26 0.156,-0.267C0.139,-0.274 0.125,-0.282 0.112,-0.293C0.099,-0.303 0.089,-0.315 0.082,-0.33C0.074,-0.345 0.07,-0.363 0.07,-0.385C0.07,-0.426 0.085,-0.459 0.115,-0.484C0.144,-0.509 0.19,-0.522 0.252,-0.522C0.278,-0.522 0.303,-0.52 0.328,-0.515C0.352,-0.51 0.371,-0.505 0.384,-0.5C0.381,-0.481 0.376,-0.462 0.37,-0.443C0.356,-0.448 0.338,-0.452 0.317,-0.457C0.295,-0.462 0.272,-0.464 0.249,-0.464C0.208,-0.464 0.18,-0.457 0.163,-0.443C0.146,-0.428 0.137,-0.409 0.137,-0.386C0.137,-0.373 0.14,-0.363 0.146,-0.354C0.151,-0.344 0.159,-0.337 0.169,-0.331C0.178,-0.324 0.189,-0.319 0.202,-0.314C0.214,-0.309 0.227,-0.305 0.241,-0.301C0.259,-0.295 0.277,-0.289 0.296,-0.281C0.314,-0.275 0.331,-0.265 0.345,-0.254C0.361,-0.243 0.373,-0.228 0.383,-0.211C0.392,-0.194 0.397,-0.172 0.397,-0.146C0.397,-0.122 0.392,-0.1 0.383,-0.081C0.373,-0.061 0.359,-0.044 0.342,-0.031C0.325,-0.017 0.304,-0.006 0.28,0.001C0.256,0.008 0.23,0.012 0.201,0.012C0.169,0.012 0.141,0.01 0.116,0.006C0.091,0.002 0.07,-0.003 0.055,-0.01C0.059,-0.03 0.065,-0.05 0.074,-0.07Z" style="fill:rgb(217,217,217);fill-rule:nonzero;"/>
                    </g>
                    <g transform="matrix(38.6778,0,0,38.6778,420.958,227.289)">
                        <path d="M0.287,-0.046C0.34,-0.046 0.38,-0.065 0.406,-0.102C0.433,-0.139 0.446,-0.19 0.446,-0.255C0.446,-0.32 0.433,-0.371 0.406,-0.408C0.38,-0.445 0.34,-0.464 0.287,-0.464C0.234,-0.464 0.194,-0.445 0.168,-0.408C0.141,-0.371 0.128,-0.32 0.128,-0.255C0.128,-0.19 0.141,-0.139 0.168,-0.102C0.194,-0.065 0.234,-0.046 0.287,-0.046ZM0.287,0.012C0.249,0.012 0.216,0.005 0.187,-0.009C0.158,-0.022 0.135,-0.041 0.116,-0.065C0.097,-0.089 0.082,-0.117 0.073,-0.15C0.064,-0.183 0.059,-0.218 0.059,-0.255C0.059,-0.292 0.064,-0.327 0.073,-0.36C0.082,-0.393 0.097,-0.421 0.116,-0.445C0.135,-0.469 0.158,-0.488 0.187,-0.501C0.216,-0.515 0.249,-0.522 0.287,-0.522C0.325,-0.522 0.358,-0.515 0.387,-0.501C0.415,-0.488 0.439,-0.469 0.458,-0.445C0.476,-0.421 0.491,-0.393 0.5,-0.36C0.51,-0.327 0.515,-0.292 0.515,-0.255C0.515,-0.218 0.51,-0.183 0.5,-0.15C0.491,-0.117 0.476,-0.089 0.458,-0.065C0.439,-0.041 0.415,-0.022 0.387,-0.009C0.358,0.005 0.325,0.012 0.287,0.012Z" style="fill:rgb(217,217,217);fill-rule:nonzero;"/>
                    </g>
                    <g transform="matrix(38.6778,0,0,38.6778,443.159,227.289)">
                        <path d="M0.088,-0.735C0.092,-0.736 0.098,-0.736 0.105,-0.737C0.112,-0.737 0.117,-0.737 0.121,-0.737C0.124,-0.737 0.13,-0.737 0.137,-0.737C0.144,-0.736 0.15,-0.736 0.154,-0.735L0.154,-0.118C0.154,-0.101 0.156,-0.087 0.16,-0.078C0.164,-0.068 0.169,-0.061 0.175,-0.057C0.181,-0.052 0.188,-0.05 0.195,-0.049C0.202,-0.048 0.209,-0.047 0.215,-0.047C0.222,-0.047 0.23,-0.048 0.238,-0.049C0.246,-0.05 0.253,-0.051 0.258,-0.052C0.261,-0.044 0.264,-0.035 0.265,-0.026C0.266,-0.017 0.267,-0.008 0.268,0C0.259,0.003 0.248,0.006 0.236,0.007C0.225,0.008 0.214,0.009 0.204,0.009C0.19,0.009 0.176,0.007 0.162,0.004C0.148,0.001 0.136,-0.004 0.125,-0.013C0.114,-0.021 0.105,-0.032 0.098,-0.047C0.091,-0.061 0.088,-0.08 0.088,-0.103L0.088,-0.735Z" style="fill:rgb(217,217,217);fill-rule:nonzero;"/>
                    </g>
                    <g transform="matrix(38.6778,0,0,38.6778,453.95,227.289)">
                        <path d="M0.287,-0.046C0.34,-0.046 0.38,-0.065 0.406,-0.102C0.433,-0.139 0.446,-0.19 0.446,-0.255C0.446,-0.32 0.433,-0.371 0.406,-0.408C0.38,-0.445 0.34,-0.464 0.287,-0.464C0.234,-0.464 0.194,-0.445 0.168,-0.408C0.141,-0.371 0.128,-0.32 0.128,-0.255C0.128,-0.19 0.141,-0.139 0.168,-0.102C0.194,-0.065 0.234,-0.046 0.287,-0.046ZM0.287,0.012C0.249,0.012 0.216,0.005 0.187,-0.009C0.158,-0.022 0.135,-0.041 0.116,-0.065C0.097,-0.089 0.082,-0.117 0.073,-0.15C0.064,-0.183 0.059,-0.218 0.059,-0.255C0.059,-0.292 0.064,-0.327 0.073,-0.36C0.082,-0.393 0.097,-0.421 0.116,-0.445C0.135,-0.469 0.158,-0.488 0.187,-0.501C0.216,-0.515 0.249,-0.522 0.287,-0.522C0.325,-0.522 0.358,-0.515 0.387,-0.501C0.415,-0.488 0.439,-0.469 0.458,-0.445C0.476,-0.421 0.491,-0.393 0.5,-0.36C0.51,-0.327 0.515,-0.292 0.515,-0.255C0.515,-0.218 0.51,-0.183 0.5,-0.15C0.491,-0.117 0.476,-0.089 0.458,-0.065C0.439,-0.041 0.415,-0.022 0.387,-0.009C0.358,0.005 0.325,0.012 0.287,0.012Z" style="fill:rgb(217,217,217);fill-rule:nonzero;"/>
                    </g>
                    <g transform="matrix(38.6778,0,0,38.6778,217.01,266.972)">
                        <path d="M0.088,-0.735C0.092,-0.736 0.098,-0.736 0.105,-0.737C0.112,-0.737 0.117,-0.737 0.121,-0.737C0.124,-0.737 0.13,-0.737 0.137,-0.737C0.144,-0.736 0.15,-0.736 0.154,-0.735L0.154,-0.419C0.161,-0.431 0.169,-0.443 0.18,-0.456C0.191,-0.468 0.203,-0.479 0.217,-0.489C0.231,-0.499 0.247,-0.507 0.265,-0.513C0.282,-0.519 0.302,-0.522 0.323,-0.522C0.382,-0.522 0.425,-0.504 0.453,-0.469C0.48,-0.435 0.494,-0.385 0.494,-0.322L0.494,0C0.49,0.001 0.485,0.001 0.477,0.001C0.47,0.002 0.465,0.002 0.461,0.002C0.458,0.002 0.452,0.002 0.445,0.001C0.438,0.001 0.432,0.001 0.428,0L0.428,-0.302C0.428,-0.359 0.419,-0.399 0.4,-0.424C0.381,-0.449 0.354,-0.461 0.319,-0.461C0.296,-0.461 0.274,-0.457 0.254,-0.448C0.233,-0.439 0.216,-0.427 0.201,-0.409C0.186,-0.393 0.175,-0.371 0.167,-0.345C0.158,-0.32 0.154,-0.29 0.154,-0.257L0.154,0C0.15,0.001 0.145,0.001 0.138,0.001C0.131,0.002 0.125,0.002 0.121,0.002C0.118,0.002 0.112,0.002 0.105,0.001C0.098,0.001 0.092,0.001 0.088,0L0.088,-0.735Z" style="fill:rgb(217,217,217);fill-rule:nonzero;"/>
                    </g>
                    <g transform="matrix(38.6778,0,0,38.6778,239.134,266.972)">
                        <path d="M0.369,-0.248C0.358,-0.249 0.344,-0.251 0.327,-0.253C0.31,-0.254 0.293,-0.255 0.278,-0.255C0.228,-0.255 0.189,-0.246 0.162,-0.227C0.135,-0.208 0.121,-0.182 0.121,-0.147C0.121,-0.125 0.125,-0.107 0.134,-0.094C0.142,-0.081 0.153,-0.07 0.166,-0.064C0.179,-0.057 0.194,-0.052 0.21,-0.05C0.226,-0.047 0.242,-0.046 0.258,-0.046C0.279,-0.046 0.298,-0.047 0.316,-0.049C0.334,-0.051 0.352,-0.054 0.369,-0.057L0.369,-0.248ZM0.369,-0.337C0.369,-0.381 0.359,-0.413 0.338,-0.434C0.317,-0.454 0.287,-0.464 0.246,-0.464C0.219,-0.464 0.195,-0.462 0.173,-0.459C0.151,-0.455 0.131,-0.45 0.114,-0.445C0.111,-0.451 0.108,-0.46 0.106,-0.471C0.103,-0.482 0.102,-0.493 0.102,-0.503C0.119,-0.508 0.141,-0.513 0.166,-0.517C0.191,-0.52 0.217,-0.522 0.244,-0.522C0.309,-0.522 0.357,-0.508 0.388,-0.48C0.419,-0.451 0.435,-0.407 0.435,-0.346L0.435,-0.009C0.412,-0.004 0.383,0 0.35,0.005C0.317,0.01 0.285,0.012 0.255,0.012C0.193,0.012 0.144,0 0.109,-0.025C0.073,-0.05 0.055,-0.09 0.055,-0.145C0.055,-0.172 0.06,-0.196 0.07,-0.217C0.081,-0.237 0.095,-0.255 0.114,-0.27C0.132,-0.284 0.154,-0.295 0.18,-0.302C0.205,-0.309 0.233,-0.313 0.264,-0.313C0.288,-0.313 0.309,-0.312 0.326,-0.311C0.343,-0.309 0.358,-0.307 0.369,-0.306L0.369,-0.337Z" style="fill:rgb(217,217,217);fill-rule:nonzero;"/>
                    </g>
                    <g transform="matrix(38.6778,0,0,38.6778,258.975,266.972)">
                        <path d="M0.154,-0.061C0.169,-0.056 0.186,-0.052 0.203,-0.05C0.22,-0.047 0.238,-0.046 0.257,-0.046C0.284,-0.046 0.309,-0.05 0.334,-0.059C0.358,-0.068 0.379,-0.081 0.398,-0.099C0.416,-0.117 0.431,-0.14 0.442,-0.168C0.453,-0.195 0.458,-0.228 0.458,-0.267C0.458,-0.328 0.447,-0.375 0.424,-0.41C0.401,-0.445 0.363,-0.462 0.312,-0.462C0.296,-0.462 0.279,-0.459 0.26,-0.454C0.241,-0.449 0.224,-0.44 0.209,-0.427C0.193,-0.414 0.18,-0.398 0.17,-0.377C0.159,-0.356 0.154,-0.329 0.154,-0.297L0.154,-0.061ZM0.088,-0.735C0.092,-0.736 0.098,-0.736 0.105,-0.737C0.112,-0.737 0.117,-0.737 0.121,-0.737C0.124,-0.737 0.13,-0.737 0.137,-0.737C0.144,-0.736 0.15,-0.736 0.154,-0.735L0.154,-0.439C0.168,-0.46 0.188,-0.48 0.215,-0.497C0.241,-0.514 0.275,-0.522 0.317,-0.522C0.348,-0.522 0.377,-0.517 0.403,-0.507C0.429,-0.498 0.451,-0.483 0.469,-0.462C0.488,-0.441 0.502,-0.415 0.513,-0.384C0.523,-0.353 0.528,-0.315 0.528,-0.271C0.528,-0.182 0.504,-0.113 0.455,-0.063C0.406,-0.013 0.336,0.012 0.244,0.012C0.214,0.012 0.185,0.009 0.157,0.003C0.129,-0.002 0.106,-0.008 0.088,-0.015L0.088,-0.735Z" style="fill:rgb(217,217,217);fill-rule:nonzero;"/>
                    </g>
                    <g transform="matrix(38.6778,0,0,38.6778,281.795,266.972)">
                        <path d="M0.088,-0.51C0.093,-0.511 0.099,-0.511 0.103,-0.511C0.109,-0.512 0.113,-0.512 0.118,-0.512C0.123,-0.512 0.128,-0.512 0.133,-0.511C0.138,-0.511 0.143,-0.511 0.148,-0.51C0.149,-0.498 0.15,-0.484 0.151,-0.468C0.152,-0.451 0.152,-0.436 0.152,-0.423C0.165,-0.448 0.184,-0.469 0.208,-0.486C0.232,-0.502 0.264,-0.511 0.303,-0.511L0.314,-0.511C0.317,-0.511 0.321,-0.511 0.326,-0.51C0.328,-0.499 0.329,-0.488 0.329,-0.478C0.329,-0.467 0.328,-0.457 0.326,-0.447C0.321,-0.448 0.317,-0.448 0.314,-0.448L0.304,-0.448C0.259,-0.448 0.222,-0.434 0.195,-0.405C0.168,-0.376 0.154,-0.329 0.154,-0.262L0.154,0C0.15,0.001 0.145,0.001 0.138,0.001C0.131,0.002 0.125,0.002 0.121,0.002C0.118,0.002 0.112,0.002 0.105,0.001C0.098,0.001 0.092,0.001 0.088,0L0.088,-0.51Z" style="fill:rgb(217,217,217);fill-rule:nonzero;"/>
                    </g>
                    <g transform="matrix(38.6778,0,0,38.6778,295.333,266.972)">
                        <path d="M0.119,-0.454L0.055,-0.454C0.054,-0.457 0.054,-0.461 0.054,-0.466C0.053,-0.471 0.053,-0.476 0.053,-0.481C0.053,-0.486 0.053,-0.492 0.054,-0.497C0.054,-0.502 0.054,-0.507 0.055,-0.51L0.185,-0.51L0.185,0C0.181,0.001 0.175,0.001 0.169,0.001C0.162,0.002 0.156,0.002 0.152,0.002C0.149,0.002 0.143,0.002 0.136,0.001C0.129,0.001 0.123,0.001 0.119,0L0.119,-0.454ZM0.127,-0.593C0.115,-0.591 0.101,-0.59 0.086,-0.59C0.076,-0.59 0.065,-0.591 0.053,-0.593L0.17,-0.723C0.177,-0.724 0.185,-0.725 0.193,-0.725L0.215,-0.725C0.223,-0.725 0.231,-0.725 0.239,-0.725C0.247,-0.724 0.255,-0.724 0.262,-0.723L0.127,-0.593Z" style="fill:rgb(217,217,217);fill-rule:nonzero;"/>
                    </g>
                    <g transform="matrix(38.6778,0,0,38.6778,305.892,266.972)">
                        <path d="M0.369,-0.248C0.358,-0.249 0.344,-0.251 0.327,-0.253C0.31,-0.254 0.293,-0.255 0.278,-0.255C0.228,-0.255 0.189,-0.246 0.162,-0.227C0.135,-0.208 0.121,-0.182 0.121,-0.147C0.121,-0.125 0.125,-0.107 0.134,-0.094C0.142,-0.081 0.153,-0.07 0.166,-0.064C0.179,-0.057 0.194,-0.052 0.21,-0.05C0.226,-0.047 0.242,-0.046 0.258,-0.046C0.279,-0.046 0.298,-0.047 0.316,-0.049C0.334,-0.051 0.352,-0.054 0.369,-0.057L0.369,-0.248ZM0.369,-0.337C0.369,-0.381 0.359,-0.413 0.338,-0.434C0.317,-0.454 0.287,-0.464 0.246,-0.464C0.219,-0.464 0.195,-0.462 0.173,-0.459C0.151,-0.455 0.131,-0.45 0.114,-0.445C0.111,-0.451 0.108,-0.46 0.106,-0.471C0.103,-0.482 0.102,-0.493 0.102,-0.503C0.119,-0.508 0.141,-0.513 0.166,-0.517C0.191,-0.52 0.217,-0.522 0.244,-0.522C0.309,-0.522 0.357,-0.508 0.388,-0.48C0.419,-0.451 0.435,-0.407 0.435,-0.346L0.435,-0.009C0.412,-0.004 0.383,0 0.35,0.005C0.317,0.01 0.285,0.012 0.255,0.012C0.193,0.012 0.144,0 0.109,-0.025C0.073,-0.05 0.055,-0.09 0.055,-0.145C0.055,-0.172 0.06,-0.196 0.07,-0.217C0.081,-0.237 0.095,-0.255 0.114,-0.27C0.132,-0.284 0.154,-0.295 0.18,-0.302C0.205,-0.309 0.233,-0.313 0.264,-0.313C0.288,-0.313 0.309,-0.312 0.326,-0.311C0.343,-0.309 0.358,-0.307 0.369,-0.306L0.369,-0.337Z" style="fill:rgb(217,217,217);fill-rule:nonzero;"/>
                    </g>
                    <g transform="matrix(38.6778,0,0,38.6778,325.733,266.972)">
                        <path d="M0.088,-0.51C0.093,-0.511 0.099,-0.511 0.103,-0.511C0.109,-0.512 0.113,-0.512 0.118,-0.512C0.123,-0.512 0.128,-0.512 0.133,-0.511C0.138,-0.511 0.143,-0.511 0.148,-0.51C0.149,-0.498 0.15,-0.484 0.151,-0.467C0.152,-0.45 0.152,-0.435 0.152,-0.422C0.158,-0.435 0.166,-0.447 0.175,-0.459C0.184,-0.471 0.195,-0.482 0.208,-0.491C0.221,-0.5 0.235,-0.508 0.252,-0.514C0.268,-0.519 0.286,-0.522 0.307,-0.522C0.326,-0.522 0.343,-0.52 0.357,-0.515C0.371,-0.51 0.383,-0.504 0.394,-0.496C0.404,-0.487 0.412,-0.477 0.42,-0.466C0.427,-0.455 0.433,-0.442 0.439,-0.428C0.446,-0.439 0.455,-0.45 0.464,-0.461C0.473,-0.472 0.484,-0.483 0.496,-0.492C0.508,-0.5 0.522,-0.508 0.538,-0.514C0.553,-0.519 0.571,-0.522 0.59,-0.522C0.649,-0.522 0.692,-0.505 0.719,-0.471C0.745,-0.437 0.758,-0.388 0.758,-0.325L0.758,0C0.754,0.001 0.749,0.001 0.742,0.001C0.735,0.002 0.729,0.002 0.725,0.002C0.722,0.002 0.716,0.002 0.709,0.001C0.702,0.001 0.696,0.001 0.692,0L0.692,-0.302C0.692,-0.356 0.683,-0.396 0.666,-0.422C0.648,-0.448 0.621,-0.461 0.586,-0.461C0.565,-0.461 0.546,-0.457 0.53,-0.448C0.514,-0.439 0.501,-0.428 0.49,-0.413C0.479,-0.398 0.471,-0.381 0.466,-0.362C0.46,-0.342 0.457,-0.321 0.457,-0.299L0.457,0C0.453,0.001 0.448,0.001 0.441,0.001C0.434,0.002 0.428,0.002 0.424,0.002C0.421,0.002 0.415,0.002 0.408,0.001C0.401,0.001 0.395,0.001 0.391,0L0.391,-0.315C0.391,-0.366 0.383,-0.404 0.367,-0.429C0.35,-0.454 0.327,-0.466 0.296,-0.466C0.275,-0.466 0.256,-0.461 0.239,-0.451C0.222,-0.44 0.207,-0.426 0.194,-0.407C0.181,-0.388 0.172,-0.366 0.165,-0.341C0.158,-0.315 0.154,-0.287 0.154,-0.256L0.154,0C0.15,0.001 0.145,0.001 0.138,0.001C0.131,0.002 0.125,0.002 0.121,0.002C0.118,0.002 0.112,0.002 0.105,0.001C0.098,0.001 0.092,0.001 0.088,0L0.088,-0.51Z" style="fill:rgb(217,217,217);fill-rule:nonzero;"/>
                    </g>
                    <g transform="matrix(38.6778,0,0,38.6778,358.068,266.972)">
                        <path d="M0.287,-0.046C0.34,-0.046 0.38,-0.065 0.406,-0.102C0.433,-0.139 0.446,-0.19 0.446,-0.255C0.446,-0.32 0.433,-0.371 0.406,-0.408C0.38,-0.445 0.34,-0.464 0.287,-0.464C0.234,-0.464 0.194,-0.445 0.168,-0.408C0.141,-0.371 0.128,-0.32 0.128,-0.255C0.128,-0.19 0.141,-0.139 0.168,-0.102C0.194,-0.065 0.234,-0.046 0.287,-0.046ZM0.287,0.012C0.249,0.012 0.216,0.005 0.187,-0.009C0.158,-0.022 0.135,-0.041 0.116,-0.065C0.097,-0.089 0.082,-0.117 0.073,-0.15C0.064,-0.183 0.059,-0.218 0.059,-0.255C0.059,-0.292 0.064,-0.327 0.073,-0.36C0.082,-0.393 0.097,-0.421 0.116,-0.445C0.135,-0.469 0.158,-0.488 0.187,-0.501C0.216,-0.515 0.249,-0.522 0.287,-0.522C0.325,-0.522 0.358,-0.515 0.387,-0.501C0.415,-0.488 0.439,-0.469 0.458,-0.445C0.476,-0.421 0.491,-0.393 0.5,-0.36C0.51,-0.327 0.515,-0.292 0.515,-0.255C0.515,-0.218 0.51,-0.183 0.5,-0.15C0.491,-0.117 0.476,-0.089 0.458,-0.065C0.439,-0.041 0.415,-0.022 0.387,-0.009C0.358,0.005 0.325,0.012 0.287,0.012Z" style="fill:rgb(217,217,217);fill-rule:nonzero;"/>
                    </g>
                    <g transform="matrix(38.6778,0,0,38.6778,380.269,266.972)">
                        <path d="M0.074,-0.07C0.089,-0.064 0.108,-0.059 0.131,-0.055C0.154,-0.05 0.177,-0.048 0.198,-0.048C0.238,-0.048 0.27,-0.057 0.293,-0.075C0.316,-0.092 0.328,-0.114 0.328,-0.14C0.328,-0.158 0.325,-0.173 0.318,-0.185C0.311,-0.196 0.301,-0.206 0.29,-0.214C0.278,-0.222 0.265,-0.229 0.25,-0.234C0.235,-0.238 0.22,-0.244 0.205,-0.249C0.188,-0.254 0.172,-0.26 0.156,-0.267C0.139,-0.274 0.125,-0.282 0.112,-0.293C0.099,-0.303 0.089,-0.315 0.082,-0.33C0.074,-0.345 0.07,-0.363 0.07,-0.385C0.07,-0.426 0.085,-0.459 0.115,-0.484C0.144,-0.509 0.19,-0.522 0.252,-0.522C0.278,-0.522 0.303,-0.52 0.328,-0.515C0.352,-0.51 0.371,-0.505 0.384,-0.5C0.381,-0.481 0.376,-0.462 0.37,-0.443C0.356,-0.448 0.338,-0.452 0.317,-0.457C0.295,-0.462 0.272,-0.464 0.249,-0.464C0.208,-0.464 0.18,-0.457 0.163,-0.443C0.146,-0.428 0.137,-0.409 0.137,-0.386C0.137,-0.373 0.14,-0.363 0.146,-0.354C0.151,-0.344 0.159,-0.337 0.169,-0.331C0.178,-0.324 0.189,-0.319 0.202,-0.314C0.214,-0.309 0.227,-0.305 0.241,-0.301C0.259,-0.295 0.277,-0.289 0.296,-0.281C0.314,-0.275 0.331,-0.265 0.345,-0.254C0.361,-0.243 0.373,-0.228 0.383,-0.211C0.392,-0.194 0.397,-0.172 0.397,-0.146C0.397,-0.122 0.392,-0.1 0.383,-0.081C0.373,-0.061 0.359,-0.044 0.342,-0.031C0.325,-0.017 0.304,-0.006 0.28,0.001C0.256,0.008 0.23,0.012 0.201,0.012C0.169,0.012 0.141,0.01 0.116,0.006C0.091,0.002 0.07,-0.003 0.055,-0.01C0.059,-0.03 0.065,-0.05 0.074,-0.07Z" style="fill:rgb(217,217,217);fill-rule:nonzero;"/>
                    </g>
                    <g transform="matrix(38.6778,0,0,38.6778,217.01,306.655)">
                        <path d="M0.074,-0.07C0.089,-0.064 0.108,-0.059 0.131,-0.055C0.154,-0.05 0.177,-0.048 0.198,-0.048C0.238,-0.048 0.27,-0.057 0.293,-0.075C0.316,-0.092 0.328,-0.114 0.328,-0.14C0.328,-0.158 0.325,-0.173 0.318,-0.185C0.311,-0.196 0.301,-0.206 0.29,-0.214C0.278,-0.222 0.265,-0.229 0.25,-0.234C0.235,-0.238 0.22,-0.244 0.205,-0.249C0.188,-0.254 0.172,-0.26 0.156,-0.267C0.139,-0.274 0.125,-0.282 0.112,-0.293C0.099,-0.303 0.089,-0.315 0.082,-0.33C0.074,-0.345 0.07,-0.363 0.07,-0.385C0.07,-0.426 0.085,-0.459 0.115,-0.484C0.144,-0.509 0.19,-0.522 0.252,-0.522C0.278,-0.522 0.303,-0.52 0.328,-0.515C0.352,-0.51 0.371,-0.505 0.384,-0.5C0.381,-0.481 0.376,-0.462 0.37,-0.443C0.356,-0.448 0.338,-0.452 0.317,-0.457C0.295,-0.462 0.272,-0.464 0.249,-0.464C0.208,-0.464 0.18,-0.457 0.163,-0.443C0.146,-0.428 0.137,-0.409 0.137,-0.386C0.137,-0.373 0.14,-0.363 0.146,-0.354C0.151,-0.344 0.159,-0.337 0.169,-0.331C0.178,-0.324 0.189,-0.319 0.202,-0.314C0.214,-0.309 0.227,-0.305 0.241,-0.301C0.259,-0.295 0.277,-0.289 0.296,-0.281C0.314,-0.275 0.331,-0.265 0.345,-0.254C0.361,-0.243 0.373,-0.228 0.383,-0.211C0.392,-0.194 0.397,-0.172 0.397,-0.146C0.397,-0.122 0.392,-0.1 0.383,-0.081C0.373,-0.061 0.359,-0.044 0.342,-0.031C0.325,-0.017 0.304,-0.006 0.28,0.001C0.256,0.008 0.23,0.012 0.201,0.012C0.169,0.012 0.141,0.01 0.116,0.006C0.091,0.002 0.07,-0.003 0.055,-0.01C0.059,-0.03 0.065,-0.05 0.074,-0.07Z" style="fill:rgb(217,217,217);fill-rule:nonzero;"/>
                    </g>
                    <g transform="matrix(38.6778,0,0,38.6778,234.492,306.655)">
                        <path d="M0.287,-0.046C0.34,-0.046 0.38,-0.065 0.406,-0.102C0.433,-0.139 0.446,-0.19 0.446,-0.255C0.446,-0.32 0.433,-0.371 0.406,-0.408C0.38,-0.445 0.34,-0.464 0.287,-0.464C0.234,-0.464 0.194,-0.445 0.168,-0.408C0.141,-0.371 0.128,-0.32 0.128,-0.255C0.128,-0.19 0.141,-0.139 0.168,-0.102C0.194,-0.065 0.234,-0.046 0.287,-0.046ZM0.287,0.012C0.249,0.012 0.216,0.005 0.187,-0.009C0.158,-0.022 0.135,-0.041 0.116,-0.065C0.097,-0.089 0.082,-0.117 0.073,-0.15C0.064,-0.183 0.059,-0.218 0.059,-0.255C0.059,-0.292 0.064,-0.327 0.073,-0.36C0.082,-0.393 0.097,-0.421 0.116,-0.445C0.135,-0.469 0.158,-0.488 0.187,-0.501C0.216,-0.515 0.249,-0.522 0.287,-0.522C0.325,-0.522 0.358,-0.515 0.387,-0.501C0.415,-0.488 0.439,-0.469 0.458,-0.445C0.476,-0.421 0.491,-0.393 0.5,-0.36C0.51,-0.327 0.515,-0.292 0.515,-0.255C0.515,-0.218 0.51,-0.183 0.5,-0.15C0.491,-0.117 0.476,-0.089 0.458,-0.065C0.439,-0.041 0.415,-0.022 0.387,-0.009C0.358,0.005 0.325,0.012 0.287,0.012Z" style="fill:rgb(217,217,217);fill-rule:nonzero;"/>
                    </g>
                    <g transform="matrix(38.6778,0,0,38.6778,256.694,306.655)">
                        <path d="M0.088,-0.51C0.093,-0.511 0.099,-0.511 0.103,-0.511C0.109,-0.512 0.113,-0.512 0.118,-0.512C0.123,-0.512 0.128,-0.512 0.133,-0.511C0.138,-0.511 0.143,-0.511 0.148,-0.51C0.149,-0.498 0.15,-0.483 0.151,-0.465C0.152,-0.447 0.152,-0.431 0.152,-0.418C0.159,-0.43 0.167,-0.442 0.178,-0.455C0.189,-0.467 0.201,-0.478 0.216,-0.488C0.23,-0.498 0.246,-0.506 0.265,-0.513C0.284,-0.519 0.304,-0.522 0.326,-0.522C0.385,-0.522 0.427,-0.504 0.454,-0.469C0.481,-0.435 0.494,-0.385 0.494,-0.322L0.494,0C0.49,0.001 0.485,0.001 0.477,0.001C0.47,0.002 0.465,0.002 0.461,0.002C0.458,0.002 0.452,0.002 0.445,0.001C0.438,0.001 0.432,0.001 0.428,0L0.428,-0.302C0.428,-0.359 0.419,-0.399 0.402,-0.424C0.384,-0.449 0.357,-0.461 0.322,-0.461C0.299,-0.461 0.277,-0.456 0.256,-0.447C0.235,-0.438 0.218,-0.424 0.203,-0.406C0.188,-0.389 0.176,-0.367 0.167,-0.341C0.158,-0.315 0.154,-0.285 0.154,-0.252L0.154,0C0.15,0.001 0.145,0.001 0.138,0.001C0.131,0.002 0.125,0.002 0.121,0.002C0.118,0.002 0.112,0.002 0.105,0.001C0.098,0.001 0.092,0.001 0.088,0L0.088,-0.51ZM0.144,-0.616C0.133,-0.631 0.125,-0.647 0.12,-0.662C0.13,-0.673 0.142,-0.684 0.156,-0.693C0.17,-0.702 0.187,-0.707 0.207,-0.707C0.223,-0.707 0.237,-0.704 0.251,-0.699C0.264,-0.694 0.276,-0.688 0.288,-0.682C0.3,-0.675 0.312,-0.669 0.324,-0.664C0.336,-0.659 0.349,-0.656 0.363,-0.656C0.374,-0.656 0.385,-0.658 0.394,-0.663C0.403,-0.668 0.415,-0.676 0.428,-0.688C0.439,-0.673 0.447,-0.657 0.452,-0.64C0.442,-0.629 0.43,-0.62 0.416,-0.611C0.401,-0.602 0.384,-0.597 0.365,-0.597C0.35,-0.597 0.336,-0.6 0.323,-0.605C0.31,-0.61 0.297,-0.616 0.285,-0.623C0.274,-0.629 0.262,-0.635 0.25,-0.64C0.238,-0.645 0.225,-0.648 0.212,-0.648C0.198,-0.648 0.186,-0.645 0.177,-0.64C0.168,-0.635 0.157,-0.627 0.144,-0.616Z" style="fill:rgb(217,217,217);fill-rule:nonzero;"/>
                    </g>
                    <g transform="matrix(38.6778,0,0,38.6778,278.817,306.655)">
                        <path d="M0.369,-0.248C0.358,-0.249 0.344,-0.251 0.327,-0.253C0.31,-0.254 0.293,-0.255 0.278,-0.255C0.228,-0.255 0.189,-0.246 0.162,-0.227C0.135,-0.208 0.121,-0.182 0.121,-0.147C0.121,-0.125 0.125,-0.107 0.134,-0.094C0.142,-0.081 0.153,-0.07 0.166,-0.064C0.179,-0.057 0.194,-0.052 0.21,-0.05C0.226,-0.047 0.242,-0.046 0.258,-0.046C0.279,-0.046 0.298,-0.047 0.316,-0.049C0.334,-0.051 0.352,-0.054 0.369,-0.057L0.369,-0.248ZM0.369,-0.337C0.369,-0.381 0.359,-0.413 0.338,-0.434C0.317,-0.454 0.287,-0.464 0.246,-0.464C0.219,-0.464 0.195,-0.462 0.173,-0.459C0.151,-0.455 0.131,-0.45 0.114,-0.445C0.111,-0.451 0.108,-0.46 0.106,-0.471C0.103,-0.482 0.102,-0.493 0.102,-0.503C0.119,-0.508 0.141,-0.513 0.166,-0.517C0.191,-0.52 0.217,-0.522 0.244,-0.522C0.309,-0.522 0.357,-0.508 0.388,-0.48C0.419,-0.451 0.435,-0.407 0.435,-0.346L0.435,-0.009C0.412,-0.004 0.383,0 0.35,0.005C0.317,0.01 0.285,0.012 0.255,0.012C0.193,0.012 0.144,0 0.109,-0.025C0.073,-0.05 0.055,-0.09 0.055,-0.145C0.055,-0.172 0.06,-0.196 0.07,-0.217C0.081,-0.237 0.095,-0.255 0.114,-0.27C0.132,-0.284 0.154,-0.295 0.18,-0.302C0.205,-0.309 0.233,-0.313 0.264,-0.313C0.288,-0.313 0.309,-0.312 0.326,-0.311C0.343,-0.309 0.358,-0.307 0.369,-0.306L0.369,-0.337Z" style="fill:rgb(217,217,217);fill-rule:nonzero;"/>
                    </g>
                    <g transform="matrix(38.6778,0,0,38.6778,298.659,306.655)">
                        <path d="M0.431,-0.735C0.435,-0.736 0.441,-0.736 0.448,-0.737C0.455,-0.737 0.461,-0.737 0.464,-0.737C0.468,-0.737 0.473,-0.737 0.481,-0.737C0.488,-0.736 0.493,-0.736 0.497,-0.735L0.497,-0.012C0.476,-0.005 0.451,0 0.42,0.005C0.389,0.01 0.357,0.012 0.324,0.012C0.287,0.012 0.253,0.008 0.221,-0.001C0.189,-0.01 0.161,-0.024 0.138,-0.044C0.115,-0.064 0.096,-0.09 0.083,-0.123C0.069,-0.156 0.062,-0.196 0.062,-0.244C0.062,-0.288 0.068,-0.327 0.08,-0.362C0.092,-0.396 0.109,-0.425 0.131,-0.449C0.153,-0.472 0.18,-0.49 0.211,-0.503C0.242,-0.516 0.276,-0.522 0.313,-0.522C0.335,-0.522 0.357,-0.52 0.379,-0.517C0.4,-0.513 0.418,-0.509 0.431,-0.504L0.431,-0.735ZM0.431,-0.442C0.418,-0.447 0.401,-0.452 0.38,-0.457C0.359,-0.461 0.338,-0.463 0.316,-0.463C0.285,-0.463 0.258,-0.458 0.234,-0.447C0.212,-0.436 0.192,-0.422 0.177,-0.403C0.162,-0.384 0.15,-0.361 0.142,-0.334C0.135,-0.307 0.131,-0.278 0.131,-0.246C0.131,-0.177 0.148,-0.126 0.181,-0.095C0.214,-0.063 0.26,-0.047 0.321,-0.047C0.343,-0.047 0.364,-0.048 0.384,-0.051C0.404,-0.053 0.42,-0.056 0.431,-0.059L0.431,-0.442Z" style="fill:rgb(217,217,217);fill-rule:nonzero;"/>
                    </g>
                    <g transform="matrix(38.6778,0,0,38.6778,321.285,306.655)">
                        <path d="M0.287,-0.046C0.34,-0.046 0.38,-0.065 0.406,-0.102C0.433,-0.139 0.446,-0.19 0.446,-0.255C0.446,-0.32 0.433,-0.371 0.406,-0.408C0.38,-0.445 0.34,-0.464 0.287,-0.464C0.234,-0.464 0.194,-0.445 0.168,-0.408C0.141,-0.371 0.128,-0.32 0.128,-0.255C0.128,-0.19 0.141,-0.139 0.168,-0.102C0.194,-0.065 0.234,-0.046 0.287,-0.046ZM0.287,0.012C0.249,0.012 0.216,0.005 0.187,-0.009C0.158,-0.022 0.135,-0.041 0.116,-0.065C0.097,-0.089 0.082,-0.117 0.073,-0.15C0.064,-0.183 0.059,-0.218 0.059,-0.255C0.059,-0.292 0.064,-0.327 0.073,-0.36C0.082,-0.393 0.097,-0.421 0.116,-0.445C0.135,-0.469 0.158,-0.488 0.187,-0.501C0.216,-0.515 0.249,-0.522 0.287,-0.522C0.325,-0.522 0.358,-0.515 0.387,-0.501C0.415,-0.488 0.439,-0.469 0.458,-0.445C0.476,-0.421 0.491,-0.393 0.5,-0.36C0.51,-0.327 0.515,-0.292 0.515,-0.255C0.515,-0.218 0.51,-0.183 0.5,-0.15C0.491,-0.117 0.476,-0.089 0.458,-0.065C0.439,-0.041 0.415,-0.022 0.387,-0.009C0.358,0.005 0.325,0.012 0.287,0.012Z" style="fill:rgb(217,217,217);fill-rule:nonzero;"/>
                    </g>
                </g>
                <g transform="matrix(1,0,0,0.898256,106.502,-894.183)">
                    <path d="M231.806,309.203L422.806,118.203L457.304,118.203L266.304,309.203L231.806,309.203Z" style="fill:url(#_Linear5);"/>
                </g>
                <g transform="matrix(1,0,0,0.898256,62.0637,-899.665)">
                    <path d="M215.507,410.561L310.743,315.306L215.507,315.306L215.507,410.561Z" style="fill:url(#_Linear6);"/>
                </g>
            </g>
        </g>
    </g>
    <defs>
        <linearGradient id="_Linear1" x1="0" y1="0" x2="1" y2="0" gradientUnits="userSpaceOnUse" gradientTransform="matrix(1.93404e-15,40.8879,-31.5853,2.50366e-15,749.629,357.12)"><stop offset="0" style="stop-color:rgb(245,85,85);stop-opacity:1"/><stop offset="1" style="stop-color:rgb(213,0,0);stop-opacity:1"/></linearGradient>
        <linearGradient id="_Linear2" x1="0" y1="0" x2="1" y2="0" gradientUnits="userSpaceOnUse" gradientTransform="matrix(5.02114e-15,82.0015,-82.0015,5.02114e-15,303.396,308.128)"><stop offset="0" style="stop-color:rgb(246,175,42);stop-opacity:1"/><stop offset="1" style="stop-color:rgb(179,117,0);stop-opacity:1"/></linearGradient>
        <linearGradient id="_Linear3" x1="0" y1="0" x2="1" y2="0" gradientUnits="userSpaceOnUse" gradientTransform="matrix(8.27462,56.4902,-56.4902,8.27462,364.191,258.243)"><stop offset="0" style="stop-color:rgb(252,207,49);stop-opacity:1"/><stop offset="1" style="stop-color:rgb(190,148,0);stop-opacity:1"/></linearGradient>
        <linearGradient id="_Linear4" x1="0" y1="0" x2="1" y2="0" gradientUnits="userSpaceOnUse" gradientTransform="matrix(1.73717e-15,28.3701,-28.3701,1.73717e-15,186.71,100.759)"><stop offset="0" style="stop-color:rgb(252,207,49);stop-opacity:1"/><stop offset="1" style="stop-color:rgb(190,148,0);stop-opacity:1"/></linearGradient>
        <linearGradient id="_Linear5" x1="0" y1="0" x2="1" y2="0" gradientUnits="userSpaceOnUse" gradientTransform="matrix(17.7313,20.0955,-20.0955,17.7313,313.532,225.123)"><stop offset="0" style="stop-color:rgb(245,85,85);stop-opacity:1"/><stop offset="1" style="stop-color:rgb(213,0,0);stop-opacity:1"/></linearGradient>
        <linearGradient id="_Linear6" x1="0" y1="0" x2="1" y2="0" gradientUnits="userSpaceOnUse" gradientTransform="matrix(1.18209,61.3166,-61.3166,1.18209,240.944,315.306)"><stop offset="0" style="stop-color:rgb(246,175,42);stop-opacity:1"/><stop offset="1" style="stop-color:rgb(179,117,0);stop-opacity:1"/></linearGradient>
    </defs>
</svg>
