<svg xmlns="http://www.w3.org/2000/svg" viewBox="0 0 1230.61 116.06"><defs><style>.cls-1{fill:#5bdaef;}</style></defs><title>0011Recurso 4</title><g id="Capa_2" data-name="Capa 2"><g id="Capa_1-2" data-name="Capa 1"><path class="cls-1" d="M53.13,110.68c-.34,0-.91-.58-1.7-1.73a3.5,3.5,0,0,0-3-1.72q-1.78,0-3.9,2.2c-1.42,1.47-2.52,2.21-3.31,2.21a128.38,128.38,0,0,1-20.37-1.45q-9-1.44-12.22-3l-3.4-1.52q-1-.83-2.29-8.63A88.2,88.2,0,0,1,1.7,82.94c0-.65,2.26-2.16,6.79-4.56l2.2-1.24q1.7-1,8.49-1.79c.11,0,.17.37.17,1.1l-.17,3,4.41,8.83a58.51,58.51,0,0,0,6,1.86,31.77,31.77,0,0,0,7.72,1.45q4.59,0,9.25-4.48c3.11-3,4.67-5.09,4.67-6.28q0-3.18-4.58-8.28l-1.53-1.8q-12.39-6.35-14.94-6.34a23.75,23.75,0,0,1-4,.69c-.63,0-1.48-.56-2.55-1.66s-1.61-1.84-1.61-2.21l1.18-4.14c0-.73-1.18-1.38-3.56-1.93l-4.75.69q-1.87,0-8.4-6.9T0,40.71q0-1.38,2.29-6.9A95.65,95.65,0,0,1,9.34,20.63a47.3,47.3,0,0,1,10-11.94q3.57-1.92,12.31-3.45A108.72,108.72,0,0,1,50.24,3.73a8.73,8.73,0,0,0,7.13,3.72q3.74-1.38,3.74-4.83c0-.27,1.86-.41,5.6-.41Q77.92,2.21,78,4.55c0,1.57.08,3.68.08,6.35a42.83,42.83,0,0,1-.34,6.21A50.91,50.91,0,0,1,79.61,25v.14q-1,1.65-5.6,4.07c-3.06,1.61-5,2.41-5.69,2.41s-1.1-.14-1.1-.41q0-2.49-6.54-6.69t-12-4.21q-3.24,0-8.49,4.48T35,32.29q.84,3.45,3.56,3.45a6.27,6.27,0,0,0,3.57-1.52h.17q1.51,0,10.09,4.77t9.09,6a25.41,25.41,0,0,1,3.48-.28,5.89,5.89,0,0,1,2.12.28,51.19,51.19,0,0,1,8.48,7.1c3,3,4.64,4.95,5.1,5.87q3.9,7.32,3.9,23.6,0,5-13,17T53.13,110.68Z"/><path class="cls-1" d="M173.47,88l1.36,10.77a3.61,3.61,0,0,1-.42,1.65,23.55,23.55,0,0,1-3.74,3.87c-2.21,2-3.45,3.43-3.73,4.21s-2.27,1.74-5.94,2.89a32.07,32.07,0,0,1-7.3,1.73c-1.19,0-1.87-.09-2-.28a9.88,9.88,0,0,1-.93-1.51q-1.36-3.18-2.89-3.18a6.12,6.12,0,0,0-4.16,2.07,16.54,16.54,0,0,1-2.29,2.07,57.34,57.34,0,0,1-18.16-2.76q-3.06-1-3.06-1.65,0-1.67-9.84-8.7l-3.4-2.34c-.9-.65-1.61-3.59-2.12-8.84s-.76-9.59-.76-13a32.16,32.16,0,0,1,.17-5.31,22.4,22.4,0,0,1,2.2-1,14,14,0,0,0,2.72-1.45,1.87,1.87,0,0,0,.68-1.52L109.48,64a34.85,34.85,0,0,1-3.39-2.9q0-1.23,3.73-7.79t6.45-8.77q20.19-9.51,29-9.52,18,.14,20.19,1.93,8,9,8,17.12a25.69,25.69,0,0,0-5.18,2.34,3.08,3.08,0,0,0-1.1,2.62q0,1.8,2,1.8l3.73-.55q.51,0,.51.27,0,11.17-8,17.67-2.2,1.78-11.11,3.38a89,89,0,0,1-11.29,1.58c-.45,0-1.7-.73-3.74-2.2A22.36,22.36,0,0,0,136,78.8a6.86,6.86,0,0,0-1.78,1.38q-1.53,1.38-1.53,2.34,2.72,6.63,6.45,9.66,1.37,1.11,6.12,1.11,14.25,0,21-5.52c1.36-1.47,2.29-2.21,2.8-2.21a9.25,9.25,0,0,1,2.55.62c1.19.41,1.78.81,1.78,1.17ZM149,18.49l.34,2.07c0,.28-.51.55-1.53.83a23,23,0,0,0-5.43,3.11q-3.9,2.68-4.67,3.38a2.39,2.39,0,0,1-1.61.69c-.57,0-1.95-.74-4.16-2.21s-3.31-2.6-3.31-3.38,1.41-2.6,4.24-5.45,4.25-4.42,4.25-4.7c.11-1.1.17-1.7.17-1.79,2.71-2.76,4.16-4.21,4.33-4.35a17.33,17.33,0,0,1,3.73-.55c2.32-.23,4.16-.34,5.52-.34s3.42.78,6.19,2.34,4.16,2.76,4.16,3.59c0,.28-.45.69-1.36,1.24a42.7,42.7,0,0,0-6.79,4.28,5.77,5.77,0,0,1-2,.14C149.71,17.39,149,17.76,149,18.49Zm-4.41,37.12c-.23-.18-.34-.8-.34-1.86A12.63,12.63,0,0,1,145.8,49c0-.74-.79-1.1-2.37-1.1l-2.72.27q-2.88,1.11-5.43,5.94a27,27,0,0,1,.51,5.17c0,1.7-.28,2.78-.85,3.24a9.25,9.25,0,0,0,.6,1.66,8.34,8.34,0,0,0,2.8,2.62,10.4,10.4,0,0,0,6.11,1.66q1.19,0,1.35-1.8c.12-1.19.23-2.57.34-4.14s.43-2.55.94-3a1.67,1.67,0,0,0,.76-1.18C147.84,57.55,146.76,56.63,144.62,55.61Z"/><path class="cls-1" d="M290.76,62.51l-.51,13.94a23,23,0,0,0,.51,6.07q0,.42-2.55,2.07c-1.69,1.11-2.54,1.94-2.54,2.49v.83c0,1.29.45,1.93,1.36,1.93a18,18,0,0,1,4-1c.63,0,.94.09.94.28.56,6.62,1.53,10.49,2.88,11.59,3.74,2,5.61,3.82,5.61,5.38q0,.55-3.06,2.76a30.16,30.16,0,0,1-4.92,3q-3.73,1.52-13.07,2.62l-3.23.28a24.34,24.34,0,0,1-4.24-1.59,16.42,16.42,0,0,0-5.18-1.59c-1,0-2.43-.89-4.41-2.69s-3-3.1-3-3.93v-.28q2-3,2-21.11V81.42c0-.18.59-.64,1.78-1.38S265,78.52,265,77.69a1.89,1.89,0,0,0-1-1.79,20.94,20.94,0,0,0-2-1c-.67-.27-1-.5-1-.69a38.61,38.61,0,0,0,1.18-10.83c0-4.64-.11-7.06-.33-7.24a3.9,3.9,0,0,0-2-.28,11,11,0,0,0-2.46.21,6.52,6.52,0,0,0-1.27.41,3.66,3.66,0,0,0-.6.35,1.6,1.6,0,0,1-.84.13,4.93,4.93,0,0,1-2.3-1.24c-1.07-.83-1.61-1.38-1.61-1.65q0-1.66,2.55-7.87c1.7-4.14,2.71-6.35,3.05-6.62a3,3,0,0,1,1.87-.42l3.4.14a2.23,2.23,0,0,0,1.35-.28c.23-.18.34-1.42.34-3.72a42.61,42.61,0,0,0-2-13.53l-.85-2.07q0-1.36,7.55-5.38t10.78-4q12,.28,13.07,1.1c.11.1.17.37.17.83l-3.23,19.18q.16,5.67,1.19,6.49a9.39,9.39,0,0,0,3.74.55c1.69,0,4.35-1,8-2.9.45,0,1.22.65,2.3,1.94a5.62,5.62,0,0,1,1.61,3q0,1.11-3.06,6a29.32,29.32,0,0,1-6.79,7.79,9.08,9.08,0,0,1-2.37.14h-4.25c-3.39,0-5.09.28-5.09.83a3.85,3.85,0,0,0,1.44,3.45,5.55,5.55,0,0,0,3.14,1,4.74,4.74,0,0,1,2,.21A6,6,0,0,1,290.76,62.51Z"/><path class="cls-1" d="M398.88,58l-.5,10.49a22.21,22.21,0,0,0,.84,7v.13q0,.28-2.46,1.8c-1.64,1-2.46,2-2.46,3s.71,1.75,2.12,2.35,2.12,1.08,2.12,1.45v4.28q0,10.07.85,12.42,3.57,6.77,3.57,8.83c0,.28-.57.55-1.7.83q-5.77,1.51-7,2.48a15,15,0,0,1-3.82,2,13.67,13.67,0,0,1-5,1A18.4,18.4,0,0,1,379,114.4a28.71,28.71,0,0,1-6.36-3.38c-1.53-1.15-2.29-2-2.29-2.41s.68-1.84,2-4.14a17.26,17.26,0,0,0,2-4c0-.64-1.07-1-3.22-1h-.34q-2.89,0-7.47,6.76l-1.53,2.35q-.51,1.23-7,2.34a65,65,0,0,1-8.91,1.11,10.38,10.38,0,0,1-2.55-.14c-1.47-1.57-3.85-2.62-7.13-3.18l-1.7-.27q-.68,0-3.22-3a65.83,65.83,0,0,1-4.08-5.17q-.67-1.11-.67-13.25a11.14,11.14,0,0,1,2-1.52q2-1.38,2-2.55c0-.78-.71-1.54-2.12-2.28s-2.12-1.24-2.12-1.52v-.27q1.51-2.49,1.52-9.25l-.68-9.94,2.21-2.48q-2.88-10.91-2.88-12.83c0-.56,2.31-2,6.95-4.42s7.81-3.59,9.51-3.59q15.61.69,15.62,2.35-2,14.07-2,18.9a46.69,46.69,0,0,0,.17,5.66c0,.19-.82.85-2.46,2s-2.46,2-2.46,2.69l-.17,1.11A1,1,0,0,0,352,70l2.2.55c1.47.37,2.21,1,2.21,1.79v.55a18.41,18.41,0,0,0-.17,3.18v4q0,5.38-1.7,6.62,2,3.18,4,3.18c1.3,0,3.4-1.34,6.28-4s4.33-4.7,4.33-6.08V78.11l.17-7.32c0-2.57-.23-4-.68-4.41-1.25-1.11-1.87-2-1.87-2.69a4.87,4.87,0,0,1,1.53-2.76,5,5,0,0,0,1.53-2.56V54.51q0-11.73-.51-14.08V40.3c0-.56.9-1.15,2.72-1.8a12.49,12.49,0,0,0,3.9-2,20.77,20.77,0,0,1,5.26-2.62,18.89,18.89,0,0,1,6.11-1.59q13.25,1.53,13.24,4.42A7.39,7.39,0,0,1,399.9,38a21.09,21.09,0,0,0-1.52,5.11,36.21,36.21,0,0,0-.85,7.72c0,2.53.22,4,.68,4.35S398.88,56.49,398.88,58ZM368.33,18.49l.34,2.07c0,.28-.51.55-1.53.83a23.18,23.18,0,0,0-5.43,3.11q-3.9,2.68-4.67,3.38a2.37,2.37,0,0,1-1.61.69c-.57,0-1.95-.74-4.16-2.21S348,23.76,348,23s1.42-2.6,4.25-5.45,4.24-4.42,4.24-4.7c.11-1.1.17-1.7.17-1.79,2.71-2.76,4.16-4.21,4.33-4.35a17.33,17.33,0,0,1,3.73-.55c2.32-.23,4.16-.34,5.52-.34s3.42.78,6.19,2.34,4.16,2.76,4.16,3.59c0,.28-.45.69-1.36,1.24a42.44,42.44,0,0,0-6.78,4.28,7.59,7.59,0,0,1-2.13.14C369,17.39,368.33,17.76,368.33,18.49Z"/><path class="cls-1" d="M548.76,88l1.36,10.77a3.61,3.61,0,0,1-.42,1.65,23.55,23.55,0,0,1-3.74,3.87c-2.2,2-3.45,3.43-3.73,4.21s-2.27,1.74-5.94,2.89a32.07,32.07,0,0,1-7.3,1.73c-1.19,0-1.87-.09-2-.28a9.88,9.88,0,0,1-.93-1.51q-1.37-3.18-2.89-3.18a6.1,6.1,0,0,0-4.15,2.07,16.89,16.89,0,0,1-2.3,2.07,57.34,57.34,0,0,1-18.16-2.76c-2-.64-3-1.19-3-1.65q0-1.67-9.85-8.7l-3.39-2.34c-.91-.65-1.62-3.59-2.13-8.84s-.76-9.59-.76-13a33.63,33.63,0,0,1,.17-5.31,22,22,0,0,1,2.21-1,13.79,13.79,0,0,0,2.71-1.45,1.87,1.87,0,0,0,.68-1.52L484.77,64a34.85,34.85,0,0,1-3.39-2.9q0-1.23,3.73-7.79t6.45-8.77q20.2-9.51,29-9.52,18,.14,20.2,1.93,8,9,8,17.12a25.23,25.23,0,0,0-5.17,2.34,3.06,3.06,0,0,0-1.11,2.62q0,1.8,2,1.8l3.73-.55q.51,0,.51.27,0,11.17-8,17.67-2.22,1.78-11.12,3.38a89,89,0,0,1-11.29,1.58c-.45,0-1.7-.73-3.73-2.2a23,23,0,0,0-3.31-2.21,6.81,6.81,0,0,0-1.79,1.38c-1,.92-1.52,1.7-1.52,2.34q2.72,6.63,6.45,9.66,1.35,1.11,6.11,1.11,14.25,0,21-5.52c1.35-1.47,2.29-2.21,2.8-2.21a9.21,9.21,0,0,1,2.54.62c1.19.41,1.78.81,1.78,1.17ZM519.91,55.61c-.23-.18-.34-.8-.34-1.86A12.51,12.51,0,0,1,521.1,49c0-.74-.8-1.1-2.38-1.1l-2.72.27q-2.88,1.11-5.43,5.94a27,27,0,0,1,.51,5.17c0,1.7-.28,2.78-.85,3.24a9.25,9.25,0,0,0,.6,1.66,8.34,8.34,0,0,0,2.8,2.62,10.4,10.4,0,0,0,6.11,1.66c.79,0,1.24-.6,1.36-1.8s.22-2.57.34-4.14.42-2.55.93-3a1.67,1.67,0,0,0,.76-1.18C523.13,57.55,522.06,56.63,519.91,55.61Z"/><path class="cls-1" d="M605.46,43.61l-1.53,16.56q0,8.83.93,19.46t.94,11.11c0,.32-.43.89-1.28,1.72a3.49,3.49,0,0,0-1.27,2.42c0,.78,1.21,2.82,3.65,6.14s3.65,5.56,3.65,6.76c0,.18-.62.5-1.87,1q-5.26,1.8-5.94,2.76-1.37,1.8-7.3,2.76l-2,.42a62.49,62.49,0,0,1-11.72-1.87q-8.31-1.86-8.31-2.55l1.18-9.24a4.8,4.8,0,0,1,.85-1.11q2.21-2.89,2.21-4.69A18.27,18.27,0,0,0,576.09,93a6.31,6.31,0,0,1-1.53-3.1,2.14,2.14,0,0,1,.26-1.31,5.06,5.06,0,0,1,1.7-.76,7.32,7.32,0,0,0,1.78-.76,7.78,7.78,0,0,0,1.36-3c0-.83-2-1.88-5.94-3.17a22.25,22.25,0,0,0,.5-5.66l-.34-7.45c0-.37.68-1,2-1.93a18.32,18.32,0,0,0,.17-3.87l-.68-25.53c0-.36.74-1,2.21-2a4.1,4.1,0,0,0,2.21-3.38c0-.64-.83-1.19-2.46-1.66s-2.47-.78-2.47-1a82,82,0,0,0-.85-13.11c-.56-3.4-.84-5.32-.84-5.73A1.68,1.68,0,0,1,574,8.35q.76-.63,8.74-3.8t11.63-3.17a74.57,74.57,0,0,1,8.74.62c3.4.42,5.09.9,5.09,1.45l-3.73,9-.17,2.07,1.19,19.32a4.41,4.41,0,0,1-.17,1.79q-4.75,3.18-4.76,5c0,1.2.82,2,2.47,2.35A9.83,9.83,0,0,1,605.46,43.61Z"/><path class="cls-1" d="M717.31,57l-.84,8q0,3.72,1.86,5.24a.61.61,0,0,1,.17.48c0,.24-.59.9-1.78,2s-1.78,1.74-1.78,1.93a4.39,4.39,0,0,0,1.19,2.76,8.66,8.66,0,0,0,2.2,1.24c2.49.92,3.74,1.61,3.74,2.07a9.31,9.31,0,0,1-.77,3.52,8.55,8.55,0,0,0-.76,2.48,3.64,3.64,0,0,0,1,1.87,2.89,2.89,0,0,0,2.2,1.24,14.78,14.78,0,0,0,5.1-2.21,60.33,60.33,0,0,0,10.6.83q6,0,8.92-2.07A10,10,0,0,1,753.13,85a16.57,16.57,0,0,1,1.7,5.38,32.09,32.09,0,0,0-1.7,5.38q0,.69-4.58,6.14a61.85,61.85,0,0,1-7,7.39q-1.37.67-14.09,1.51l-4.42.28L718.5,113q-4.57,0-14-5.59t-9.42-7l1.7-1.1c1.13-.73,1.69-1.43,1.69-2.07a2.73,2.73,0,0,0-.68-1.79c-.45-.56-.82-.83-1.1-.83a1.34,1.34,0,0,0-.85.34,3.08,3.08,0,0,1-1.78.35L690,94.53a56.07,56.07,0,0,0-1.53-9.87,60.23,60.23,0,0,1-1.53-12.49c0-.82.93-3.77,2.8-8.83s3.31-8,4.33-8.83c.11,0,.17,0,.17-.14L692.7,51.2q0-.83,6.88-6.35t9.25-5.52h1.52a5.9,5.9,0,0,0,2.89-.41q12-4.56,15.28-4.56T741,36.22q9.25,1.88,9.25,2.83-.51,6.08-.51,9.46a15.35,15.35,0,0,0,.34,4.21q4.75,5.24,4.76,5.72c0,.33-1.08,1.15-3.23,2.49a64.69,64.69,0,0,1-7.55,3.93,18.21,18.21,0,0,1-6.88,1.93c-7.24-2.11-10.86-3.59-10.86-4.41q.35-9.39,4.75-11.73-1.86-2.49-2.88-2.49-6.45,1.94-7,2.35-4.43,3.72-4.42,5Z"/><path class="cls-1" d="M844.45,74.24l.85,10.49c0,.83-.11,1.24-.34,1.24q-5.6,2.77-5.6,6.49c0,.74.85,1.38,2.54,1.93l2.55.83,1.36,7.31,3.05,4.56c0,.18-.51.55-1.52,1.1q-4.43,2.63-6.79,2.62a20.8,20.8,0,0,0-8.83,2.35l-1.53.69h-.34q-2.72,0-10.86-2.48l-2.72-.83a1.65,1.65,0,0,1-.34-1.24l.51-6.49v-.55l-2.2-.55c-.34,0-1,.5-1.87,1.51q-2.21,2.36-10.69,6.9l-2.89,1.52a21.23,21.23,0,0,1-9.76-2.48,35.77,35.77,0,0,1-7.38-4.76,13.21,13.21,0,0,1-2.55-2.56c0-.18.23-.41.68-.69a3.38,3.38,0,0,0,1.7-2.62c0-1.65-2-2.9-6.11-3.72l-1.87-.42a49.54,49.54,0,0,1,1.44-12,41.74,41.74,0,0,1,2.8-8.42l1.53-2.76q2-2.2,12.9-6.9t17.65-4.69a4.17,4.17,0,0,1,1.79.89,4,4,0,0,0,2.2.9,5.29,5.29,0,0,0,2.29-.69C818,59.89,819,59.2,819,58.65q0-2.07-2.38-5.38-1.86-1.52-12.05-2.35l-3.39-.27a32.88,32.88,0,0,0-9.51,2q-6.1,2-6.45,2c-.23,0-.79-.55-1.7-1.66a4.92,4.92,0,0,1-1.35-2.41c0-.51,1-2.39,3.14-5.66s3.53-5.13,4.32-5.59q2-1,12.57-3.31t15.1-2.35a46.23,46.23,0,0,0,13.16,5,33.12,33.12,0,0,1,10.95,4.14c3.5,2.07,5.26,4.12,5.26,6.14a16.58,16.58,0,0,1-1.62,2.9,8.9,8.9,0,0,0-1.61,4.28,5,5,0,0,0,.85,2.89l1,1.25q0,6.9-.51,7.86a21.86,21.86,0,0,0-1.87,3.31l1.53,1.94Zm-27.84,5.94.51-6.9c0-.64-.11-1-.34-1q-2.21,0-7.55,2.21c-3.56,1.47-5.35,2.76-5.35,3.86a5.38,5.38,0,0,1,1.36,2.83,1.77,1.77,0,0,1-.51,1.45c-1.36.46-2,1.17-2,2.14s.77,2.07,2.3,3.31S807.79,90,808.8,90s2.78-.81,5.27-2.42,3.73-2.78,3.73-3.52l-.17-.27C817,83.21,816.61,82,816.61,80.18Z"/><path class="cls-1" d="M985.84,62.38l.17,3.86c0,.55-.71,1.38-2.12,2.48s-2.12,1.85-2.12,2.21q0,1.93.42,2.28a3.9,3.9,0,0,0,1.28.62,7.42,7.42,0,0,1,2,.83q0,5.1-.59,13.45t-.6,9.52q0,1.19,2.55,5.73l2.38,4.56c0,.27-.66.69-2,1.24a13.94,13.94,0,0,0-3.48,2.07,14.66,14.66,0,0,1-5.35,2.21,34.71,34.71,0,0,1-6.54,1.1l-2.88.28q-3.06,0-9.42-2.83t-6.37-3.66l1.53-9.52,2.38-1.11c1.58-.73,2.37-1.4,2.37-2a1.72,1.72,0,0,0-.76-1.45,11.4,11.4,0,0,0-1.61-1c-1.48-.74-2.21-1.2-2.21-1.38a70.89,70.89,0,0,0,1-12.28c0-4.33-.12-6.58-.34-6.77a2.43,2.43,0,0,1-1-1.93q0-2.21,3.39-5.79L959,64q0-1.65-3.9-2.76-3.74,0-7.47,5.18c-2.49,3.45-3.73,5.72-3.73,6.83l1,2.21c0,1.74-.84,3.63-2.54,5.65a3.25,3.25,0,0,0-.17,1.38c0,.74.56,1.66,1.7,2.76a37.53,37.53,0,0,0-.68,7.59,104.12,104.12,0,0,0,1.19,13V106c0,.28-.57.56-1.7.83q-5.78,1.53-6.79,2.35-2,1.65-7.13,2.34l-1.7.14a31.31,31.31,0,0,1-8.74-1.31q-4.5-1.31-4.5-2.28v-.13q1.18-4.14,1.19-17.25V89.15A3.92,3.92,0,0,0,913.53,86c0-.91.77-1.84,2.29-2.76s2.3-1.72,2.3-2.41-.74-1.59-2.21-2.69-2.21-1.75-2.21-1.93A18.25,18.25,0,0,1,916,68.31a31.66,31.66,0,0,0,2.3-5c0-.32-.26-.69-.77-1.1a3.54,3.54,0,0,0-2.29-.62,14.53,14.53,0,0,0-6.45,1.93q-1.37,1.25-4.75,7.45t-3.4,8.28a6.89,6.89,0,0,0,2.21,5.25A.69.69,0,0,1,903,85l-1.36,2.9c-.34.27-.51,1.47-.51,3.58l1.36,17q0,.82-7.47,4.07t-9,3.24a57,57,0,0,1-13.25-2.48l-2.2-.69,1.53-8.83,2-.56c1.25-.27,1.87-.87,1.87-1.79s-.76-1.93-2.29-3-2.29-1.74-2.29-1.93l.51-1.65A36.79,36.79,0,0,0,873.47,84l-1-25.39a4.21,4.21,0,0,1,.17-1.79A11.6,11.6,0,0,0,874,56c.57-.28.85-1.18.85-2.69a14.46,14.46,0,0,0-1.19-5.25,10.42,10.42,0,0,0-2.8-4.28q-1.61-1.31-1.61-5.58c0-.56,1.78-1.54,5.35-3s5.91-2.14,7-2.14q13.41,1.52,16.64,4.14a32.7,32.7,0,0,1,1.86,6,13,13,0,0,1-1.35,3.87,13.18,13.18,0,0,0-1.36,3.79c0,.55.45,1.22,1.36,2a4.3,4.3,0,0,0,2.88,1.18q3.57-6.76,4.75-7.73T915.74,42q8.14-3.37,10.18-3.38t6.45,2.07a32.19,32.19,0,0,1,6.28,3.59q3.4,4.41,3.4,5.66a3.46,3.46,0,0,0,1.44.41,1.51,1.51,0,0,0,1-.35,28.66,28.66,0,0,0,2.63-4.34q2.21-4,2.38-4.14Q951.38,40,959,37.4t10.7-2.62q7.63,2.07,8.82,3,8.84,10.63,8.83,12.15v.13q-1.53,1.11-1.53,9.25Z"/><path class="cls-1" d="M1077.5,65.27l-.33,11.6c0,2.76.16,4.27.5,4.55s.51,1,.51,2.28-.87,3.52-2.63,6.83-3.14,5-4.16,5c-.45,0-.85.36-1.18,1.1a18.82,18.82,0,0,1-4.84,6.42,57.45,57.45,0,0,1-9.42,5.65c-4.42,2.26-7.13,3.39-8.15,3.39q-3.57,0-10-3.87l-2.21-1.24a1,1,0,0,0-.6-.14,28.5,28.5,0,0,0-4.66,2.49q-4.24,2.48-5.1,2.48-3.22,0-10.35-6.76t-7.13-8.28a3.94,3.94,0,0,1,.51-1,77.52,77.52,0,0,0,3.9-7.73c.46-1.1.68-4.41.68-9.93l-.51-18.36a4.17,4.17,0,0,0-1-2.07,4.14,4.14,0,0,1-1-2.07l2.37-2.2c.57-.46.85-2.12.85-5l-1-16.42c0-1.11.12-1.66.34-1.66a4.36,4.36,0,0,0,2.8-1.66,4.7,4.7,0,0,0,1.62-3.17q0-1.52-4.76-2.62L1011,9V8.42c.34-.46,2.37-1.59,6.11-3.38s6.16-2.69,7.3-2.69q4.74,0,12.64,2.48c5.26,1.66,7.89,2.85,7.89,3.59a76.87,76.87,0,0,0-3.9,22.91,16.68,16.68,0,0,1,.68,4.27A3,3,0,0,1,1041,38q-7,3.59-6.87,6.62c0,2,.48,3,1.27,3,.34,0,1.21-.57,2.63-1.73a72.62,72.62,0,0,1,9.51-5.65q7.38-3.94,10.6-3.94t10,7.18Q1075,50.64,1075,54.1c-3.06,2.11-4.58,4.32-4.58,6.62,0,.83.9,1.24,2.71,1.24l3.74-.27h.17C1077.33,62.15,1077.5,63.34,1077.5,65.27Zm-38.19,22.91-.68,5.8c0,.55.12.83.34.83q4.59,0,9-3.73,1.53-1.24,1.87-8.28V80.32a4.61,4.61,0,0,1-1.7-4l.17-1.24a7.16,7.16,0,0,1,1.78-1,2.78,2.78,0,0,0,1.78-2.56q0-1.65-3.39-3.58a3.42,3.42,0,0,0,.17-1.38l-.51-7.32v-.41l1.19-3v-.14l-.68-.69a8.58,8.58,0,0,0-4.58,1.38,13.2,13.2,0,0,0-4.25,3.25c-.9,1.15-1.36,3.1-1.36,5.86l.51,9.8-.17,1.1a36.76,36.76,0,0,1,.85,4.83c0,.56-.51,1.2-1.52,1.94s-1.53,1.31-1.53,1.72.45,1,1.36,1.86S1039.31,88,1039.31,88.18Z"/><path class="cls-1" d="M1131.31,70l-.85,22.35c0,4.33.28,7,.85,8,2.26,4,3.4,6.48,3.4,7.31s-.06,1.29-.17,1.38a39.11,39.11,0,0,1-3.91,1.1q-12,3.45-13.41,3.94a11.23,11.23,0,0,1-3.65.48q-2.28,0-8.06-1.93t-5.77-3l2.38-16.7c0-.27.73-.73,2.2-1.38s2.21-1.28,2.21-1.93-.77-1.42-2.29-2.34-2.29-1.47-2.29-1.66v-.14a30.1,30.1,0,0,0,1-8.83l-1.18-16.42c0-.19.39-.64,1.18-1.38a4.15,4.15,0,0,0,1.19-3.18q0-2.07-2-6.28t-2-5.31q0-.83,7.64-4.69t10.69-3.86q15.78.54,15.79,1.93c0,1.75-.66,4.9-2,9.45s-2,7.64-2,9.25a29.88,29.88,0,0,0,.34,4.62q-4.58,2.36-4.58,5.38a7.68,7.68,0,0,0,4.75,1.52C1131.2,67.62,1131.31,68.4,1131.31,70Zm-28.18-52.72,1.36-7.59a13.36,13.36,0,0,0-.34-2.35V7.18c0-.56.68-1.36,2-2.42a24,24,0,0,1,6.87-3.17A34.43,34.43,0,0,1,1123.84,0q5.27.83,5.26,1.79v.14a17.28,17.28,0,0,0-.84,5c0,1.47.17,2.35.5,2.62a6.07,6.07,0,0,0,2,.83,6.78,6.78,0,0,1,1.87.69,13.36,13.36,0,0,1,.51,3.66,8.2,8.2,0,0,1-.51,3.1q-.51,1.24-4.67,4.56c-2.77,2.2-4.61,3.31-5.52,3.31a28.5,28.5,0,0,1-10.18-1.8,24.36,24.36,0,0,1-7-3.65C1103.87,19,1103.13,18,1103.13,17.25Z"/><path class="cls-1" d="M1165.09,52.72l-1.19-2.21q0-1,7.89-6.83t9.93-6.56q12.9-2.2,17.49-2.21a31.68,31.68,0,0,1,4.58,1.52c2.71,1,4.35,1.59,4.92,1.73s1.64,1,3.23,2.62,2.37,2.6,2.37,3c-.57,2.57-1.07,3.86-1.53,3.86-7.12.28-11.88,1-14.25,2.07-1.14.46-3.37,2.19-6.71,5.17s-5.49,5.3-6.45,6.9-1.44,6.75-1.44,15.39q4.92,1.8,4.92,4a55.62,55.62,0,0,0-1.87,7.39,8.29,8.29,0,0,0,1.36,3.24,12.62,12.62,0,0,0,2.72,3.45,10.94,10.94,0,0,0,4.16,1.1,3.64,3.64,0,0,0,2.12-.41q4.07-3.31,4.07-11.32a21.18,21.18,0,0,0-.34-3.72c-2-1.57-3-3.31-3-5.25,0-.27.51-.8,1.52-1.58a3.28,3.28,0,0,0,1.53-2.56,5,5,0,0,0-1.36-3,12.5,12.5,0,0,0-2.71-2.56c-.91-.59-1.36-1-1.36-1.17q0-1.78,5.35-6.62t7.55-4.83h2.38q14.41,0,14.42,1.52a38.64,38.64,0,0,0-.84,4.27c0,.37,1,2.12,3,5.25a16.53,16.53,0,0,1,3.06,9q-4.42,2.89-4.42,4.21a3.37,3.37,0,0,0,1.7,2.55,9.19,9.19,0,0,1,1.7,1.38,26.32,26.32,0,0,1-1.36,5.59,24.32,24.32,0,0,0-1.36,6.69q0,2.35-8.15,9-7.8,6.08-10.35,6.07h-.17a5.21,5.21,0,0,0-2.71-.55l-1.87.14a3.93,3.93,0,0,0-3.74,2.76,4.24,4.24,0,0,1-1.1,1.72c-.4.33-1.78.49-4.16.49l-14.43-1a28.56,28.56,0,0,1-9.59-4.69c-3.56-2.48-5.34-4-5.34-4.69a13.81,13.81,0,0,1,1.69-1.87c1.13-1.14,1.7-2,1.7-2.55,0-.92-.74-1.79-2.2-2.62l-6,.69c-.56,0-1.18-1.19-1.86-3.59q-2.55-7.73-2.55-21.25,0-1.94,3.91-9.94t5.09-9Z"/></g></g></svg>