<?xml version="1.0" encoding="utf-8"?>
<!-- Generator: Adobe Illustrator 23.0.0, SVG Export Plug-In . SVG Version: 6.00 Build 0)  -->
<svg version="1.1" id="Capa_1" xmlns="http://www.w3.org/2000/svg" xmlns:xlink="http://www.w3.org/1999/xlink" x="0px" y="0px"
	 viewBox="0 0 880 292.9" style="enable-background:new 0 0 880 292.9;" xml:space="preserve">
<style type="text/css">
	.st0{fill:#808080;}
	.st1{fill:#333333;}
	.st2{fill:url(#SVGID_1_);}
	.st3{fill:url(#SVGID_2_);stroke:#F15A24;stroke-width:1.98;stroke-miterlimit:10;}
	.st4{enable-background:new    ;}
	.st5{fill:#FFFFFF;}
	.st6{fill:url(#SVGID_3_);}
	.st7{fill:url(#SVGID_4_);}
	.st8{fill:url(#SVGID_5_);}
	.st9{fill:url(#SVGID_6_);}
	.st10{fill:url(#SVGID_7_);}
	.st11{clip-path:url(#SVGID_9_);}
	.st12{clip-path:url(#SVGID_11_);}
	.st13{fill:#E6E6E6;}
	.st14{fill:#2365DB;}
	.st15{fill:#58BADD;}
	.st16{fill:#4D4D4D;}
	.st17{fill:#FFFFFF;stroke:#1A1A1A;stroke-width:3.31;stroke-miterlimit:10;}
	.st18{fill:#1A1A1A;}
</style>
<title>011Recurso 1</title>
<g>
	<path class="st0" d="M347.6,76.7c-0.1,0-0.1-0.1-0.2-0.1c-1.9-0.6-3.9-0.8-5.9-0.8c-1.9-0.1-3.7,0.1-5.5,0.6
		c-2.2,0.6-3.2,1.4-3.2,2.3c0,0.5,0.6,0.7,1.8,0.7c0.2,0,0.6,0,1.3-0.1h0.1c0.2,0,0.3,0.4,0.3,1.2l-0.1,1.3
		c-0.2,2.6-0.4,4.4-0.4,5.5c0,1.1,0.2,2.3,0.6,3.3l0.6,1.7c0,0.1-0.1,0.2-0.2,0.3c-0.8,0.3-1.6,0.6-2.3,1c-2.9,1.4-4.9,2.1-6.2,2.2
		c-1.2,0-2.3-0.1-3.5-0.4c-0.9-0.2-1.7-0.4-2.5-0.7c-0.6-0.3-0.9-0.4-0.9-0.6c0.2-0.6,0.4-1.3,0.7-1.8c0.5-0.9,0.7-1.9,0.7-2.9
		c0-0.2-0.2-0.4-0.7-0.6s-0.7-0.5-0.7-0.8c0-0.5,0.2-1,0.5-1.4c0.2-0.3,0.3-0.6,0.5-0.9v-0.2l-0.1-2.8c0-0.5,0-1.5,0.1-2.9v-0.2
		l0.1-1c0-0.8-0.1-1.6-0.3-2.3c-0.2-0.8-0.3-1.2-0.3-1.2c0.4-0.3,0.7-0.6,1.1-0.8c0.8-0.5,1.1-0.9,1.1-1.2c0-0.2-0.1-0.5-0.2-0.7
		c-0.1-0.2-0.3-0.3-0.5-0.4l-0.6-0.3c-0.3-0.1-0.5-0.2-0.8-0.3c0.2-1.3,0.3-2.5,0.4-3.8l-0.2-6.1c0.6-0.6,0.9-1,0.9-1.1
		s-0.2-0.4-0.6-0.7s-0.8-0.9-1.2-2.2c-0.3-0.9-0.5-1.9-0.5-2.9c0-0.3,1.4-0.5,4.3-0.8s4.3-0.5,4.3-0.8c0.3-0.1,0.6-0.2,0.9-0.2
		c0.4,0,1.4,0.1,3.2,0.2c1,0,2,0.2,2.9,0.4l0.3,0.5c0.2,0.4,0.6,0.6,1,0.5c1.3-0.1,2.6-0.4,3.9-0.7c1.9-0.4,3.7-0.6,5.6-0.7l2.8-0.4
		c2.4,0.4,3.7,0.6,3.8,0.7c0.1,0.3,0.2,0.7,0.1,1.1c0,0.7-0.1,1.4-0.3,2.1v0.1c-1.1,3.4-1.9,5.3-2.4,5.7c-0.9,0.5-2,0.7-3.1,0.6
		c-1.5,0-2.3-0.2-2.3-0.6V62c0-0.9-0.4-1.7-1.1-2.2c-0.8-0.6-1.8-0.9-2.9-0.8c-1.5,0.1-3,0.4-4.3,0.9c-1.7,0.6-2.5,1-2.5,1.4
		c0,0.1,0.2,0.3,0.7,0.6s0.7,0.6,0.7,0.9c0,0.2-0.1,0.5-0.3,0.7c-0.4,0.8-0.5,1.8-0.4,2.7c0,1.5,0.1,2.3,0.4,2.5
		c0.8,0.3,1.7,0.4,2.5,0.3l10.5-0.2c0.5,0,1,0,1.5,0.1c0.2,0.5,0.2,1.1,0.2,1.6c-0.1,1.4-0.5,2.7-1.2,3.9
		C348.8,75.9,348.2,76.7,347.6,76.7L347.6,76.7z"/>
	<path class="st0" d="M401,80.2l-0.8,5.1c0.2,0.9,0.6,1.7,1.2,2.3c0.6,0.7,1.5,1,2.4,1c0.7-0.1,1.2-0.5,1.6-1
		c0.6-0.6,0.9-1.3,0.9-2.1c-0.1-0.5-0.1-1.1-0.1-1.7c0-0.5,0.1-0.8,0.2-0.9c0.8-0.5,1.1-1,1.1-1.5c-1-0.9-1.5-1.5-1.5-1.8l1.2-2.2
		v-3c0.1-1.1,0-2.3-0.1-3.4c0.6-0.3,0.9-1,0.8-1.6c0-0.3-0.3-0.6-0.9-0.9s-0.9-0.6-0.9-1c0.1-1.1,0.4-2.2,0.9-3.3c0.1-1,0.2-2,0.1-3
		c0-1.9-0.1-2.9-0.3-3c-0.5-0.4-0.8-1.4-0.8-3.2c0-0.1,0-0.2,0.1-0.3c1.2-0.6,2.4-1.1,3.6-1.4c2.2-0.8,3.3-1.2,3.5-1.2
		c0.3,0.1,0.7,0.2,1,0.3c0.4,0.2,0.8,0.3,1.2,0.3c0.3,0,0.5-0.1,0.7-0.2c0.2-0.1,0.4-0.2,0.7-0.2c0.2,0,0.4,0,0.5,0.1
		c2.6,0.8,3.9,1.4,3.9,1.7c-0.2,1-0.4,1.9-0.7,2.8c-0.4,1.4-0.7,2.9-0.7,4.4c0,0.2,0.2,0.4,0.7,0.8s0.7,0.6,0.7,0.8
		c-0.1,0.4-0.3,0.8-0.6,1.1c-0.2,0.3-0.4,0.5-0.6,0.8c-0.1,2.2-0.1,4.5-0.1,6.9c-0.1,1.5,0,2.9,0.4,4.4v0.1c0,0.2-0.3,0.5-1,1
		s-1,0.9-1,1.1c0,0.2,0.1,0.5,0.3,0.6c0.2,0.2,0.4,0.3,0.7,0.4c0.6,0.1,0.9,0.3,0.9,0.4c-0.2,0.8-0.2,1.6-0.2,2.4
		c0,1.6,0,3.2,0.1,4.6l0.1,0.8c0,0.6-0.9,1.8-2.7,3.8l-0.9,0.9c-1.8,0.3-3.6,0.6-5.4,1.2c-1.5,0.6-2.8,1.5-4,2.6l-0.8,0.7
		c-3.3,0-6.6-0.1-9.9-0.5c-1.7-0.1-3.4-0.5-5.1-1l-1.1-0.5l-3.8-3.7l-1.1-0.3c-0.2,0-0.5-0.3-1-0.9c-0.3-0.3-0.5-0.6-0.7-1
		c0-0.1,0.1-0.3,0.2-0.4c0.7-0.8,1.1-1.8,1.2-2.8c0.3-1.1,0.4-2.3,0.5-3.4c0-0.8-0.1-1.2-0.3-1.3s-0.3-1-0.3-2.6l0.1-3.1
		c0.1-0.9-0.3-1.7-1-2.3c0-0.5,0.1-1,0.4-1.3l0.8-0.8c0.2-0.2,0.4-0.4,0.6-0.6l0.4-1.3c-0.3-0.3-0.7-0.6-1.1-0.9
		c-0.7-0.6-1.1-0.9-1.1-1c0.1-0.3,0.1-0.5,0.3-0.8c0.5-0.8,0.9-1.8,1-2.8c-0.2-1.6-0.6-3.2-1.1-4.7c-0.7-2.5-1.1-3.8-1.1-3.8
		c0-0.2,1.4-0.8,4.1-1.8c1.6-0.7,3.3-1.2,5-1.5c0.8,0.3,1.7,0.5,2.5,0.6l1.6-0.2c0.9,0,1.7,0.2,2.5,0.5c0.8,0.2,1.5,0.6,2.1,1
		c-1.1,6.2-1.7,9.7-1.7,10.5c0.6,0.3,0.9,0.6,0.9,0.8l-0.1,1.2c-0.2,2.4-0.4,4.3-0.4,5.6c0,1,0.1,2,0.3,2.9c0.2,0.7,0.3,1.3,0.3,2
		c-1.2,1-1.8,1.7-1.8,2.1c0,0.6,0.4,1.1,0.9,1.3l1.1,0.3C400.9,80.1,401,80.1,401,80.2z"/>
	<path class="st0" d="M490.9,66.3l0.4,1.5c-0.1,3.2-0.2,6-0.2,8.4c-0.1,1.5,0,3,0.2,4.4c-1.2,0.9-1.8,1.7-1.8,2.4
		c1.6,0.8,2.4,1.4,2.4,1.9c0,0.1-0.1,0.3-0.4,0.5c-0.3,0.4-0.5,0.9-0.4,1.3c0,0.8,0.2,1.7,0.4,2.5c0.2,0.8,0.4,1.5,0.8,2.2l0.4,0.8
		v0.1c0,0.2-0.6,0.6-1.7,1.1c-1.4,0.6-2.8,1.2-4.2,1.6c-1.2,0.4-2.5,0.7-3.8,0.8c-1.8-0.1-3.6-0.3-5.3-0.6c-2.7-0.4-4.1-0.7-4.1-0.9
		c0-1.3-0.3-2.6-0.6-3.9c-0.3-1.2-0.7-2.4-1.3-3.6l-0.4-0.6c0,0,0.1-0.1,0.2-0.3c0.5-0.3,0.8-0.8,0.9-1.4c0-0.4-0.2-0.7-0.5-0.9
		c-0.3-0.2-0.7-0.3-1-0.5c-0.3-0.1-0.5-0.2-0.7-0.3c0-1.1-0.8-3.7-2.3-7.6l-0.7-1.9c-0.5-0.3-1.2-0.4-1.8-0.4
		c-0.2,0.1-0.3,1.4-0.3,3.6l0.1,8.4l-0.1,0.8c-0.4,0.3-0.7,0.7-0.9,1.1c-0.2,0.3-0.3,0.6-0.4,0.9c0,0.4,0.7,0.7,2.2,0.8
		c0.1,0.9,0.2,1.8,0.5,2.7c0.3,1.2,0.5,1.9,0.5,2c0,0.3-0.3,0.6-0.9,0.8c-2,0.7-3.7,1.4-5.1,1.9l-1.2,0.5c-0.2,0-0.5,0.1-0.7,0.1
		c-1.1-0.1-2.3-0.4-3.4-0.8c-1.8-0.5-2.7-0.8-2.7-1c0-2,0.5-4.1,1.3-5.9l0.4-1c0,0-0.1-0.2-0.1-0.6l0.3-6.8c0-1.1-0.1-1.7-0.2-1.8
		c-0.1-0.1-0.2-0.6-0.2-1.6l0.1-1.8c0,0,0.1-0.1,0.4-0.3c0.7-0.3,1.2-0.9,1.3-1.7c0-0.3-0.5-0.7-1.4-1.4l-0.6-0.4
		c-0.1-0.1-0.1-0.3-0.1-0.7l0.4-3.1l-0.7-3.5c0.2-0.2,0.4-0.4,0.6-0.6c0.3-0.2,0.5-0.6,0.6-1c-0.3-1.3-0.8-2.5-1.3-3.7
		c-0.5-1.2-1-2.3-1.3-3.5c0-0.2,0.7-0.6,2.2-1.3c0.9-0.5,1.8-0.9,2.8-1.1h0.4c2.6,0,4.1-0.2,4.7-0.5c0.7,0,1.5,0,2.4,0
		c4.9,0,7.7,0.3,8.5,0.9c0.6,1.4,1,2.8,1.3,4.3v0.1c-0.8,0.4-1.4,1.3-1.4,2.2c0,0.2,0.6,0.3,1.7,0.5s1.7,0.5,1.7,0.9l-0.3,1.9
		c0.4,1.7,1.1,3.2,1.9,4.7c0.6,1.5,1.4,3,2.2,4.3c0.3,0.2,0.6,0.2,1,0.3c0.3,0,0.4-0.1,0.4-0.3V72c0-5.5-0.4-8.6-1.1-9.2
		c0-0.1,0.2-0.5,0.7-1s0.7-0.8,0.7-1c-0.4-0.9-1-1.7-1.8-2.3c-0.1-0.1-0.2-0.2-0.1-0.4c0.1-0.4,0.3-0.8,0.5-1.1
		c0.2-0.3,0.4-0.6,0.5-1l-0.8-2.5c0.4-0.3,0.9-0.6,1.4-0.8c2-1.1,4.3-1.8,6.6-2c3,0.1,4.6,0.3,4.6,0.7c-0.8,3.6-1.3,7.3-1.5,11.1
		c0.9,0.8,1.4,1.4,1.4,1.7c0,0.3-0.3,0.7-1,1.2S490.9,66.2,490.9,66.3z"/>
	<path class="st0" d="M560.1,75.1l0.2,2.4c0,0.3-0.1,0.5-0.2,0.5c-0.7,0.5-1.1,1.4-1.1,2.9c-0.4,2.4-0.8,3.6-1.2,3.8
		c-1.9,0.3-2.9,0.8-2.9,1.7c0,0.4,0.3,0.8,0.7,1c0.4,0.3,0.7,0.5,0.7,0.7c-0.5,0.7-1.2,1.4-1.9,1.9c-1.2,1.1-2.5,2-3.8,2.7
		c-1.6,0.8-3.2,1.6-4.9,2.2c-1.4,0.6-2.8,1-4.3,1.1c-0.1,0-0.3-0.1-0.5-0.3c-0.2-0.2-0.5-0.3-0.7-0.3l-6.8,0.4
		c-2.6,0-5.1-0.3-7.6-0.8l-1.4-0.3c-0.3-0.1-0.5-0.3-0.7-0.6c-0.2-0.2-0.3-0.4-0.4-0.7l0.1-0.1c0.8-1,1.2-2.9,1.2-5.9v-0.1
		c0-0.1,0.4-0.3,1.1-0.6s1.1-0.7,1.1-1.3s-0.4-1-1.3-1.5s-1.3-0.8-1.3-0.9v-0.1c0.5-1.5,0.7-5.2,0.7-10.9v-1.5c0-1-0.2-1.9-0.7-2.7
		v-0.1l0.7-1.4c0.1-0.4,0.2-0.8,0.1-1.3l-0.3-4.7c-0.2-1.1-0.7-2.2-1.5-3.1c-0.4-0.5-0.8-0.9-1.1-1.4c0-0.1,0.1-0.3,0.1-0.4
		c0.3-0.6,0.7-1,1.3-1.3c2-0.6,4-1,6-1.3c2.3-0.5,4.6-0.8,7-0.9c2.2,0.1,4.4,0.3,6.6,0.7c2.2,0.2,4.3,0.7,6.4,1.3
		c1.8,0.8,3.4,1.9,4.9,3.1c2.2,1.6,3.3,2.7,3.3,3.1c-0.2,0.4-0.4,0.7-0.6,1c-0.3,0.3-0.5,0.8-0.6,1.2c0,0.3,0.4,0.6,1.3,1
		s1.4,0.8,1.5,1.2c0.4,1.5,0.7,3,0.8,4.6l0.1,1.3c0,0.7,0,1.6-0.1,2.8L560.1,75.1z M539.7,72.5c0,1-0.2,2.1-0.7,3
		c-0.5,1.4-0.7,2.8-0.6,4.3c0,1.9,0.2,3.9,0.6,5.8c0,0.7-0.5,1.4-1.5,2.1c-0.3,0.2-0.5,0.4-0.5,0.5s0.2,0.3,0.5,0.6
		c0.4,0.3,0.9,0.5,1.4,0.4c0.8-0.1,1.6-0.2,2.4-0.6c0.8-0.3,1.5-0.7,2.2-1.1l0.8-0.6c1-0.9,1.5-2.3,1.4-3.7l-0.3-2.4
		c0-0.1,0.3-0.3,1-0.6s1-0.6,1-0.9c0-0.6-0.5-1.2-1.5-1.7c-0.6-0.2-1-0.6-1.3-1.2c0.1-0.4,0.3-0.8,0.5-1.2c0.7-1.2,1.2-2.6,1.5-4
		c0-0.4,0-0.8-0.1-1.2c-0.5-0.7-0.9-2.2-1.1-4.6s-0.5-3.8-0.9-4.5c-0.5-0.6-1-1.2-1.7-1.6c-0.6-0.4-1.2-0.7-1.9-0.9l-0.8-0.2
		c-0.4,0-0.7,0.1-1.1,0.3c-0.4,0.2-0.5,0.4-0.5,0.6c0.1,0.8,0.1,1.7,0.1,2.5c0,1.4-0.1,2.9-0.4,4.3l0,0c0,0.2,0.3,0.5,0.8,1
		s0.8,0.8,0.8,1.1s-0.3,0.8-1,1.4s-1,1-1,1.3s0.3,0.6,0.9,1S539.7,72.4,539.7,72.5z"/>
	<path class="st0" d="M596.5,61.3l-0.9-3.2c0-0.3,1.8-1.3,5.4-2.8c2.1-1,4.2-1.8,6.4-2.5c1.2-0.1,2.4-0.2,3.6-0.2
		c1.6,0,3.3,0.1,4.9,0.4c3.2,0.6,4.8,1.1,4.8,1.6c0,0.8-0.1,0.5-0.4,1.4c-0.7,2.2-1,4.6-1.1,6.9c0,0.2,0.2,0.3,0.7,0.4
		s0.7,0.2,0.7,0.2c0,1.2,0.5,4.7,1.4,10.7s1.7,9.7,2.4,11.3l0,0c0,0.1-0.4,0.3-1.1,0.7s-1.1,0.8-1.1,1.3s0.4,0.8,1.1,1
		c0.7,0.2,1.4,0.3,2.2,0.4c0.7,0.1,1,0.3,1,0.6c-0.1,0.1-0.1,0.3-0.1,0.4c0,0.3,0.1,0.7,0.2,1c0.3,1.1,0.9,2.1,1.7,2.9l0.4,0.6
		c0,0.6-1.3,1.3-4,2c-1.9,0.6-3.9,1-5.9,1.1c-1.3,0-2.6-0.2-3.8-0.6c-1-0.3-2-0.7-3-1.2c-0.8-0.4-1.2-0.8-1.2-0.9
		c0-0.2,0.1-0.4,0.1-0.6c0.2-1,0.4-2,0.3-3l-1.5-7.6c0-0.2,0.4-0.3,1.3-0.4s1.3-0.3,1.3-0.7s-0.3-0.9-1.1-1.2
		c-0.8-0.4-1.7-0.5-2.6-0.5c-1.2,0-2.4,0.2-3.6,0.6c-1.4,0.4-2.2,0.8-2.4,1.1c-0.5,1.6-0.8,3.3-1,4.9c-0.4,2.2-0.6,4.4-0.7,6.6
		c0,0.3-1.3,0.7-3.7,1.2c-2,0.5-4.1,0.7-6.2,0.8c-1.5-0.2-2.9-0.7-4.2-1.4l-0.9-0.4c-0.1-0.1-0.2-0.3-0.2-0.5v-0.1
		c1.1-1.3,1.9-2.9,2.5-4.5l0.6-1.2c0.8-0.1,1.5-0.4,2.2-0.9c0.8-0.6,1.2-1,1.2-1.2s-0.3-0.6-0.8-1.2s-0.8-0.9-0.8-1v-0.1l2.6-5.1
		c0.4-2.9,0.9-5.8,1.7-8.6C595.5,67.1,596.1,64.2,596.5,61.3z M609.9,73c0,0-0.1-0.1-0.1-0.2c-0.7-2.3-1-4.7-0.9-7.1v-0.2
		c0-0.8-0.2-1.2-0.6-1.2c-1.9,0-2.8,0.4-2.8,1.3l0.3,2.5c-0.2,0.7-0.5,1.4-0.9,2.1c-0.5,0.9-0.8,1.8-0.9,2.8c0,0.7,0.1,1,0.4,1
		c0.6,0,1.3-0.2,1.9-0.4c0.8-0.2,1.7-0.3,2.5-0.3C609.5,73.4,609.9,73.3,609.9,73z"/>
	<path class="st0" d="M670.3,63.1l0.2,0.7c0,0.1-0.2,0.8-0.5,2c-0.3,1.1-0.5,2.1-0.5,3.2c0,0.1,0.3,0.4,0.8,0.8
		c0.5,0.3,0.8,0.7,0.8,1.3c0,0.4-0.4,0.9-1.1,1.4s-1.1,0.9-1.1,1.2c0,0.3,0.2,0.6,0.5,0.8c0.3,0.2,0.6,0.4,0.9,0.6
		c0.3,0.2,0.4,0.3,0.4,0.3c-0.2,0.9-0.3,1.8-0.2,2.7v2.7c0,0.8,0,1.6-0.2,2.4v0.1c0,0.7,0.6,1.7,1.9,3c1,1.1,2.5,1.8,4,1.8
		c0.7,0,1.9-0.8,3.5-2.4s2.4-3.2,2.4-4.7c0-0.2,0.3-0.3,0.8-0.3h0.2c0.9,0.3,1.8,0.6,2.6,1c1,0.4,1.9,0.9,2.8,1.4
		c0.6,0.5,1.2,1.1,1.6,1.8c0.4,0.5,0.7,1,1,1.6c0,1.3-1.2,3.1-3.7,5.3c-2.5,2.2-4.1,3.3-4.9,3.3c-0.3-0.1-0.5-0.3-0.8-0.5
		c-0.3-0.3-0.7-0.4-1.1-0.5c-0.7,0.1-1.4,0.3-2,0.5c-2.7,1-5.6,1.6-8.5,1.6c-1,0-2.8-0.6-5.3-1.8s-4.2-2.3-4.9-3.2
		c-1.2-1.5-2.3-3.2-3.1-5c-0.6-1-1-2.2-1.2-3.3l1.1-0.8c0.7-0.5,1.1-1,1.1-1.5c-0.1-0.6-0.5-1.1-1-1.4c-0.6-0.5-0.9-0.8-0.9-0.9
		c0-0.3,0-0.6,0-0.9l-0.3-5.3c0.1-1.3,0.3-2.6,0.8-3.8c0.4-1,0.6-2,0.8-3.1c0-0.5-0.2-1-0.4-1.4c-0.1-0.3-0.3-0.6-0.4-0.9
		c0-0.9,1.7-2.6,5.2-5s6.1-3.9,8.1-4.4c4.5-0.9,9-1.3,13.6-1.2c1.6,0.1,3,0.9,4.1,2c1.5,1.3,2.2,2.1,2.2,2.5
		c-0.2,0.3-0.4,0.6-0.7,0.8c-0.4,0.4-0.6,0.8-0.7,1.4c0,0.4,0.4,0.8,1.2,1.2s1.2,0.8,1.2,0.9c0,0.3,0,0.6,0,0.8
		c0.1,1.1-0.2,2.1-0.7,3c-0.7,0.8-1.5,1.6-2.4,2.2c-0.7,0.6-1.5,1.1-2.3,1.5c-2.2,0.5-4.5,0.8-6.8,0.8c-0.3,0-0.5-0.2-0.7-0.4
		c-0.3-0.3-0.4-0.4-0.4-0.6s0-0.2,0.1-0.2c0.8-0.6,1.1-2.2,1.1-4.7c0-0.4-0.2-0.9-0.6-1.1c-0.4-0.4-0.6-0.6-0.6-0.8v-0.1l0.1-0.4
		c0-0.6-0.1-1.2-0.4-1.7c-0.2-0.5-0.8-0.9-1.3-0.8c-1.2,0.1-2.4,0.6-3.3,1.5C671,60.9,670.4,61.9,670.3,63.1z"/>
	<path class="st0" d="M736.9,83.8c-0.1,1.2-0.2,2.4-0.2,3.7c0.1,2,0.8,3.9,1.9,5.6c0,0.2-0.3,0.4-0.8,0.7l-1.2,0.6
		c-0.2,0.1-0.5,0.3-1,0.6l-1,0.6c-0.4,0.3-0.9,0.5-1.4,0.6c-2.3-0.1-4.5-0.3-6.7-0.6c-3.1-0.4-4.7-0.8-4.7-1.2
		c0-0.2,0.1-1.2,0.3-2.8s0.4-2.5,0.4-2.7l0.5-0.8c0.4-3.7,0.6-6.1,0.6-7.2s-0.1-2.6-0.2-4.3c-0.1-1.7-0.2-3-0.3-4s-0.2-1.5-0.2-1.6
		s0.2-0.2,0.6-0.3c1-0.6,1.5-1.2,1.5-1.8s-0.4-1.1-1.2-1.4s-1.2-0.5-1.2-0.6c0.1-0.9,0.2-1.7,0.4-2.6c0.2-1,0.3-2.1,0.3-3.1
		c-0.1-1.1-0.4-2.1-0.9-3.1c-0.4-0.7-0.7-1.5-0.9-2.3c0-0.3,1.1-1,3.3-2c1.4-0.8,3-1.3,4.7-1.6c1.5,0.1,3.1,0.3,4.5,0.7
		c2.1,0.5,3.2,1,3.2,1.5c-0.2,1-0.4,2-0.8,3c-0.3,0.9-0.5,1.9-0.7,2.8c0,0.2,0.2,0.4,0.5,0.6s0.5,0.4,0.5,0.6
		c-0.5,4.2-0.8,7-0.8,8.5c0,0.9,0,1.7,0.1,2.6c0.1,0.3,0.2,0.6,0.4,0.8c0.2,0.2,0.3,0.6,0.4,0.9c-0.3,0.3-0.7,0.6-1.1,0.8
		c-0.7,0.5-1.1,0.9-1.1,1.3s0.4,0.8,1.2,1.3s1.2,1,1.2,1.6c-0.1,0.7-0.2,1.1-0.3,1.2c-0.3,0.3-0.7,0.5-1.1,0.7
		c-0.7,0.4-1.1,0.7-1.1,0.8v0.4c0,0.5,0.5,0.8,1.4,1.1C736.6,83.4,736.9,83.6,736.9,83.8z"/>
	<path class="st0" d="M805.8,82.5c0.1,0.9,0.6,1.7,1.4,2.1c-0.1,1.1-0.5,2.1-1,3.1c-0.6,1.1-1.4,2.2-2.2,3.1
		c-0.8,0.8-1.3,1.3-1.5,1.3c-1.3,0-2.6,0.3-3.8,0.7c-1.2,0.4-2.4,0.9-3.5,1.4l-1.3,0.7c-0.5,0.3-2.6,0.7-6.5,1l-1.9,0.2
		c-2.2-0.1-4.3-0.8-6.1-2c-1.8-1-3.4-2.3-4.8-3.8c-0.6-0.6-1.2-1.3-1.7-2c0.1-0.3,0.2-0.6,0.3-0.9c0.2-0.4,0.3-0.9,0.3-1.4
		c0-0.9-0.7-1.3-2.2-1.3l-0.6,0.1c-0.4,0-0.8-2-1.4-5.9l-0.3-1.9l0.8-7.5c0.2-0.4,0.5-0.8,0.8-1.1c0.6-0.6,0.8-1,0.8-1.2l-0.1-4.8
		c-0.1-0.8,0-1.6,0.2-2.4c1.8-1.5,3.8-2.8,5.8-3.9c3.3-1.9,5.8-2.9,7.4-2.9c0.3-0.6,0.7-0.9,1.1-0.9c2.3-0.1,5.1-0.2,8.2-0.2
		c3.1,0,5,0.2,5.5,0.6l1.6,1.2c1,0.7,1.9,1.4,2.6,1.9c0.8,0.6,1.5,1.3,2.1,2c0.5,0.5,0.9,1.2,1,2l-1.4,1.4c0.9,1.7,1.6,3.5,2.2,5.3
		c0.8,1.9,1.3,3.8,1.5,5.8c-0.2,5.8-0.5,8.7-1,8.7C806.6,81.5,805.8,82,805.8,82.5z M791.5,47l0.1,0.8c0,0.1-0.2,0.2-0.6,0.3
		c-0.8,0.3-1.6,0.7-2.3,1.2c-0.7,0.4-1.3,0.9-1.9,1.4c-0.2,0.2-0.4,0.3-0.7,0.3c-0.6-0.2-1.2-0.5-1.7-0.9c-0.9-0.6-1.4-1-1.4-1.4
		s0.6-1,1.8-2.2c0.6-0.6,1.2-1.2,1.8-1.8c0-0.4,0.1-0.7,0.1-0.7c1.1-1.1,1.7-1.7,1.8-1.7c0.5-0.1,1-0.2,1.5-0.2
		c1-0.1,1.7-0.1,2.3-0.1c0.9,0.1,1.8,0.4,2.6,0.9c1.2,0.6,1.7,1.1,1.7,1.4c0,0.1-0.2,0.3-0.6,0.5c-1,0.5-1.9,1.1-2.8,1.7
		c-0.3,0-0.6,0-0.9,0C791.8,46.6,791.5,46.7,791.5,47z M785.8,62.6l1.1,2.6c-0.3,0.4-0.7,0.8-1.1,1.1c-0.7,0.7-1,1.2-1,1.5
		c0,0.3,0.3,0.7,1,1.1s1,0.7,1,0.9c-0.9,2.9-1.4,5.9-1.6,9c0,0.4,0.6,1,1.7,1.9c0.1,0.1,0.2,0.3,0.1,0.4c-0.1,0.5-0.4,1-0.7,1.5
		c-0.3,0.4-0.5,0.9-0.7,1.4c0.1,1.2,0.7,2.3,1.7,3c0.8,0.9,2,1.4,3.2,1.5c0.5,0,1.1-0.2,1.5-0.6c0.4-0.4,0.9-0.8,1.2-1.1l0.6-0.6
		c0,0,0.1-0.1,0.1-0.2c-0.2-0.4-0.5-0.8-0.8-1.1c-0.4-0.4-0.7-0.9-0.8-1.4c0.2-0.7,0.4-1.5,0.7-2.1c0.4-0.8,0.6-1.6,0.7-2.5
		l-1.1-0.9c0,0-0.1-0.2-0.1-0.3v-0.1c0.1-0.5-0.1-1-0.5-1.3l-0.1-0.2c0.4-0.8,1-1.5,1.7-2c0.2-0.2,0.3-0.9,0.3-2.3l-0.3-5.4
		c0-0.3-0.4-0.7-1.1-1.2s-1.1-0.7-1.1-0.8c0.1-1.2,0.4-2.3,1-3.3l0.3-0.6c0-0.4-0.6-0.9-1.9-1.5l-0.6-0.3c-1.1,0.1-2.1,0.6-2.9,1.4
		C786.3,61.2,785.8,62,785.8,62.6L785.8,62.6z"/>
	<path class="st0" d="M878,66.3l0.4,1.5c-0.1,3.2-0.2,6-0.2,8.4c0,1.5,0,3,0.2,4.4c-1.2,0.9-1.8,1.7-1.8,2.4
		c1.6,0.8,2.4,1.4,2.4,1.9c0,0.1-0.1,0.3-0.4,0.5c-0.3,0.4-0.5,0.9-0.4,1.3c0,0.8,0.2,1.7,0.4,2.5c0.2,0.8,0.5,1.5,0.8,2.2l0.4,0.8
		v0.1c0,0.2-0.6,0.6-1.7,1.1c-1.4,0.6-2.8,1.2-4.2,1.6c-1.2,0.4-2.5,0.7-3.8,0.8c-1.8-0.1-3.6-0.3-5.3-0.6c-2.7-0.4-4.1-0.7-4.1-0.9
		c0-1.3-0.3-2.6-0.6-3.9c-0.3-1.2-0.7-2.4-1.3-3.6l-0.4-0.6c0,0,0.1-0.1,0.2-0.3c0.4-0.3,0.7-0.9,0.8-1.4c0-0.4-0.2-0.7-0.5-0.9
		c-0.3-0.2-0.7-0.4-1.1-0.5c-0.3-0.1-0.5-0.2-0.7-0.3c0-1.1-0.8-3.7-2.3-7.6l-0.7-1.9c-0.5-0.3-1.1-0.4-1.8-0.4
		c-0.2,0.1-0.3,1.4-0.3,3.6l0.2,8.4l-0.1,0.8c-0.4,0.3-0.7,0.7-0.9,1.1c-0.2,0.3-0.3,0.6-0.4,0.9c0,0.4,0.7,0.7,2.2,0.8
		c0.1,0.9,0.2,1.8,0.5,2.7c0.3,1.2,0.5,1.9,0.5,2c0,0.3-0.3,0.6-0.9,0.8c-2,0.7-3.7,1.4-5.1,1.9l-1.2,0.5c-0.2,0.1-0.5,0.1-0.7,0.1
		c-1.1-0.1-2.3-0.4-3.3-0.8c-1.8-0.5-2.7-0.8-2.7-1c0-2,0.5-4.1,1.3-5.9l0.4-1c0,0-0.1-0.2-0.1-0.6l0.3-6.8c0-1.1-0.1-1.7-0.2-1.8
		c-0.1-0.1-0.2-0.6-0.2-1.6l0.1-1.8c0,0,0.1-0.1,0.4-0.3c0.7-0.3,1.2-0.9,1.3-1.7c0-0.3-0.5-0.7-1.4-1.4l-0.6-0.4
		c-0.1-0.1-0.1-0.3-0.1-0.7l0.3-3.1l-0.6-3.4c0.2-0.2,0.4-0.4,0.6-0.6c0.3-0.2,0.5-0.6,0.6-1c-0.3-1.3-0.8-2.5-1.3-3.7
		c-0.5-1.2-1-2.3-1.3-3.5c0-0.2,0.7-0.6,2.2-1.3c0.9-0.5,1.8-0.9,2.8-1.1h0.4c2.6,0,4.1-0.2,4.7-0.5c0.7,0,1.5,0,2.4,0
		c4.9,0,7.7,0.3,8.5,0.9c0.6,1.4,1,2.8,1.3,4.3v0.1c-0.8,0.4-1.3,1.2-1.4,2.1c0,0.2,0.5,0.3,1.7,0.5s1.7,0.5,1.7,0.9l-0.3,1.9
		c0.4,1.7,1.1,3.2,1.9,4.7c0.6,1.5,1.4,2.9,2.2,4.3c0.3,0.2,0.7,0.3,1,0.3c0.3,0,0.4-0.1,0.4-0.3V72c0-5.5-0.4-8.6-1.1-9.2
		c0-0.1,0.2-0.5,0.7-1s0.7-0.8,0.7-1c-0.4-0.9-1-1.7-1.8-2.3c-0.1-0.1-0.2-0.2-0.1-0.4c0.1-0.4,0.3-0.8,0.5-1.1
		c0.2-0.3,0.4-0.6,0.5-1l-0.8-2.5c0.4-0.3,0.9-0.6,1.4-0.8c2-1.1,4.3-1.8,6.6-2c3.1,0.1,4.6,0.3,4.6,0.7c-0.8,3.6-1.3,7.3-1.6,11.1
		c0.9,0.8,1.4,1.4,1.4,1.7c0,0.3-0.3,0.7-1,1.2S878,66.2,878,66.3z"/>
	<path class="st1" d="M348.4,210.9c-0.2,1.8-0.3,4.8-0.3,9.1c0.2,4.9,1.5,9.7,3.9,13.9c0,0.5-0.5,1.1-1.6,1.8l-2.4,1.6
		c-0.5,0.3-1.1,0.8-1.9,1.4l-1.9,1.5c-0.8,0.8-1.8,1.3-2.8,1.5c-4.5-0.2-9.1-0.7-13.5-1.5c-6.3-1-9.4-2-9.4-3c0-0.6,0.2-2.9,0.7-6.9
		s0.8-6.3,0.9-6.8l1-1.9c0.9-9.1,1.3-15.1,1.3-17.9c0-2.8-0.1-6.4-0.4-10.6c-0.2-4.2-0.5-7.6-0.7-10c-0.2-2.4-0.4-3.7-0.4-3.9
		s0.4-0.4,1.1-0.9c2.1-1.4,3.1-2.9,3.1-4.4c0-1.5-0.9-2.9-2.3-3.5c-1.6-0.8-2.3-1.3-2.3-1.6c0.1-2.1,0.4-4.3,0.7-6.4
		c0.4-2.6,0.6-5.2,0.7-7.8c-0.2-2.7-0.8-5.3-1.8-7.7c-0.7-1.8-1.3-3.7-1.8-5.7c0-0.7,2.2-2.4,6.6-5s7.5-3.9,9.4-3.9
		c3.1,0.2,6.2,0.8,9.1,1.7c4.3,1.1,6.4,2.4,6.4,3.8c-0.3,2.6-0.8,5.1-1.6,7.6c-0.7,2.3-1.2,4.6-1.6,6.9c0,0.6,0.4,1.2,0.9,1.4
		c0.5,0.3,0.9,0.8,0.9,1.4c-1,10.5-1.6,17.6-1.6,21.2c0,3.6,0,5.8,0.1,6.3c0.1,0.7,0.4,1.4,0.9,2c0.4,0.6,0.7,1.4,0.7,2.2
		c-0.7,0.7-1.4,1.4-2.2,1.9c-1.5,1.2-2.2,2.3-2.2,3.2s0.8,2,2.4,3.3s2.4,2.6,2.4,4c-0.3,1.8-0.5,2.8-0.5,3c-0.7,0.6-1.4,1.2-2.2,1.7
		c-1.4,1-2.1,1.6-2.1,2v1c0,1.2,0.9,2.1,2.8,2.8C347.9,210,348.4,210.4,348.4,210.9z"/>
	<path class="st1" d="M428.7,153.1c0.9,0,1.4,1.8,1.4,5.3c0,3.2-0.2,6.4-0.6,9.5c-0.4,2.9-0.9,4.6-1.5,5.1
		c-4.8,4.7-10.2,8.6-16.2,11.6c-0.3,0.6-0.6,1.2-0.7,1.8c0,0.3,0.1,0.4,0.3,0.4c3.2,0,6.8,1.3,10.7,3.8c3.9,2.5,5.9,4.6,5.9,6.1
		c-0.2,1.7-0.3,3.4-0.3,5.1c0,12.5,3.1,21.8,9.4,27.9v0.1c0,0.8-1.8,2.8-5.4,5.9s-5.9,4.6-7,4.6c-3.9,0-7.9-0.3-11.8-1
		c-4-0.6-6.5-1.5-7.7-2.6c-0.2-0.7-0.3-1.5-0.3-2.2c-0.1-2.6-0.4-5.2-0.9-7.7c0-0.2,0.3-0.4,1-0.8c2-1.3,3-2.7,3-4.1
		c0-0.8-0.9-1.4-2.7-1.6s-2.7-0.5-2.7-0.9c-0.1-4.5-0.6-9-1.3-13.5l-0.4-3c-0.4-1.3-1-2.4-1.8-3.4c-0.8-1-1.7-1.9-2.7-2.6l-1.3-1
		c-1.5,0-3.7,1-6.5,3.2l-1.4,1c0,0.6,1.1,2.4,3.4,5.4c-1.1,5-1.7,10.2-1.8,15.3v1.5c0.6,0.1,1.1,0.4,1.4,0.9c0.6,0.6,0.9,1,0.9,1.3
		l1,11.7c0,0.7-0.1,1.1-0.3,1.1c-1.9,0-4.6,1-8.1,3s-6.3,3-8.2,3c-0.1,0-0.6-0.1-1.6-0.3c-2.2-0.5-4.5-0.8-6.8-1
		c-2.1,0-4.7-1.5-7.8-4.4l-1.6-1.4c1.3-2.6,2.1-7.3,2.4-14.2l0.1-3.4c0-0.1,0.4-0.4,1.2-0.8c0.9-0.5,1.7-1.1,2.3-1.8
		c0.7-0.6,1.1-1.5,1.1-2.4c0-0.6-0.7-1.2-2.2-1.8s-2.2-1-2.2-1.4c0-4.6,0.4-9.2,1.2-13.8c0.8-4.4,1.2-6.8,1.2-7.3
		c0-0.5-0.3-1-0.6-1.4c-0.4-0.5-0.7-2.5-0.8-6.1c-0.1-12.2-0.7-20.1-1.7-23.5c0-0.2,0.4-0.5,1.3-1s1.3-1,1.3-1.4
		c0-3-1.4-7.1-4.3-12.1c-0.5-0.8-0.9-1.6-1.3-2.5c0-0.6,1.3-1.6,3.8-3.1c3-1.7,6.2-3.2,9.5-4.3c3.2-1.2,6.6-1.9,10-2
		c0.8,0,1.6,1.2,2.4,3.7c0.7,1.8,1.1,3.7,1.3,5.6c0.3,0.3,0.7,0.5,1.1,0.6c0.3,0,0.6-0.1,0.9-0.3c5.3-5,8.2-7.6,8.8-7.7
		c4.6-0.4,9.5-0.7,14.7-0.7c5.1,0,8.3,0.6,9.4,1.6c4.7,4.5,7.1,8.6,7.1,12.3c-2.3,1.7-3.4,3.2-3.4,4.7c0,1.2,1,1.8,3.1,1.8
		L428.7,153.1z M391.2,181.1c0.9,0,2.8-1.2,5.7-3.4c2.9-2.3,4.3-3.8,4.3-4.4c-0.1-1-0.5-1.9-1-2.8c-0.5-0.8-0.8-1.7-1-2.6
		c0.2-1,0.7-1.9,1.4-2.6c0.6-0.7,1.1-1.4,1.4-2.3c0.1-2.9-0.3-5.9-1.2-8.7c-0.8-2.4-1.6-4-2.5-4.7l-1.3-1.1c-1.3,0-3.2,0.8-5.6,2.3
		c-2.4,1.5-3.6,2.6-3.6,3.1v0.1c0.8,1.4,1.4,2.9,1.8,4.5c0.6,2,0.9,4.1,0.9,6.1c0,0.2-0.4,0.6-1.1,1.4s-1.2,1.1-1.4,1.1
		c0.5,3.1,0.7,6.1,0.9,9.2c0,1.1,0,2.2-0.1,3.3C389.2,180.5,390.2,181,391.2,181.1L391.2,181.1z"/>
	<path class="st1" d="M509.2,166.6l-0.4,9c0,1.3,0.1,2.5,0.4,3.7v0.4c0,1.8-1.9,5.3-5.7,10.3s-6.2,7.5-7.3,7.5
		c-1.1,0-3.3,1.2-6.7,3.7c-3.4,2.4-5,4-5,4.8c0,0.6-2.5,1.2-7.6,2s-7.6,1.3-7.6,1.4c0,9.1,0.8,16.4,2.3,21.8l0.7,2.6
		c0,0.7-1.4,1.7-4.3,3c-1.8,0.7-3.4,1.6-5,2.7c-1,1-3.3,1.8-6.7,2.4c-1.7,0-5-0.6-9.9-1.8s-7.4-2.3-7.5-3.2c1-2.1,1.9-7.1,2.7-15
		l0.3-4.1c0-0.1,0.2-0.3,0.6-0.6c1.2-0.5,2-1.7,2-3c0-1.3-0.8-2.5-2.5-3.6c-1.7-1.1-2.5-1.7-2.5-1.9c0-1.1,0.7-2.8,2-5.1l0.7-1.2
		l0.3-9.5c0-3.1-0.1-4.8-0.4-5.1c-0.3-0.3-0.4-0.6-0.4-1l1.7-6.9c0.2-1.5,0.3-2.9,0.3-4.4c-0.1-6-0.7-12-1.7-17.9l-0.7-3.9l2-3.2
		c0-1.7-1.2-4.9-3.7-9.8l-1.3-2.6c5.3-4.5,10.2-6.8,14.6-6.8c6.1,0.6,9.4,1.2,9.8,1.7c0.9,1,1.9,3.2,3,6.6l0.6,1.8
		c0.4,0.4,1,0.6,1.6,0.7c0.4,0,0.6-0.1,0.7-0.3c2-2.6,3.7-5.3,5.1-8.3c5.4-0.3,9.3-0.4,11.8-0.4l1.6,0.1h0.3c2,0.4,4,0.9,6,1.6
		c2.7,0.9,4.4,1.6,5,2.1c2.9,2.9,5.8,7.3,8.5,13.4c0.4,1.2,1.1,2.3,1.9,3.3v0.1c0,0.3-0.7,1.2-2.2,2.8s-2.2,2.6-2.2,3.1v0.1
		c0,0.9,0.4,1.7,1.1,2.3c0.8,0.6,1.7,0.9,2.7,0.9C508.8,163,509.2,164.2,509.2,166.6z M480.9,186l-1.7-2.6c0-0.1,0.1-0.3,0.4-0.5
		c0.3-0.4,0.6-0.8,0.9-1.3c0.4-0.8,0.8-1.6,1.1-2.5c0.9-2.3,1.3-6,1.3-11.1c-0.6-0.6-1.2-1.1-1.8-1.6c-1.2-1-1.8-1.7-1.8-2.1
		c0-0.8,0.8-3,2.4-6.5l0.9-1.6c-0.1-1.3-0.7-2.4-1.7-3.2c-1-0.9-2.2-1.7-3.4-2.2l-1.6-0.7c-4,3.2-6,5.6-6,7.2l0.9,9.1
		c-1.8,1.6-2.7,2.7-2.7,3.4s0.1,1.2,0.3,1.4c1.4,1.3,2.1,2.2,2.1,2.8c0,0.4-0.1,0.9-0.4,1.2c-0.2,0.2-0.4,1-0.4,2.3l0.1,6.1
		c0.1,1.3-0.1,2.6-0.4,3.9c1.4,1.6,2.7,2.4,3.8,2.4c1.7-0.2,3.3-0.6,4.8-1.4C479.8,187.6,480.9,186.8,480.9,186z"/>
	<path class="st1" d="M517.3,154.7l-1.8-8c0-0.8,3.6-3.1,10.8-7s11.5-5.9,12.8-6.1c2.4-0.3,4.8-0.5,7.2-0.4c3.3,0,6.6,0.3,9.8,1
		c6.4,1.4,9.6,2.7,9.6,4c0,0.1-0.2,1.3-0.7,3.6c-1.3,5.6-2.1,11.3-2.3,17.1c0,0.5,0.5,0.8,1.4,1s1.4,0.4,1.4,0.5
		c0,2.9,0.9,11.8,2.8,26.7c1.8,14.9,3.4,24.2,4.8,28.1v0.1c0,0.2-0.7,0.8-2.2,1.8s-2.2,2.1-2.2,3.3s0.7,2,2.2,2.5
		c1.4,0.4,2.9,0.8,4.3,1c1.4,0.2,2.1,0.7,2.1,1.4c-0.1,0.3-0.2,0.7-0.1,1c0.1,0.8,0.2,1.7,0.4,2.5c0.3,1.9,1.4,4.3,3.4,7.3l0.8,1.4
		c0,1.6-2.7,3.2-8,5c-5.3,1.8-9.3,2.7-11.9,2.7c-2.6,0-5.2-0.5-7.7-1.4c-2.2-0.8-4.2-1.8-6.1-3.1c-1.5-1.1-2.3-1.8-2.3-2.3
		c0-0.1,0.1-0.6,0.3-1.5c0.5-2.5,0.7-4.9,0.7-7.4l-3.1-18.9c0-0.4,0.8-0.7,2.5-1s2.5-0.9,2.5-1.8c-0.1-1.3-0.9-2.5-2.1-3
		c-1.6-0.9-3.4-1.3-5.2-1.2c-2.5,0.1-4.9,0.6-7.2,1.5c-2.8,1-4.4,2-4.8,2.8s-1.1,5-2.1,12.3c-0.8,5.4-1.3,10.9-1.4,16.4
		c0,0.7-2.5,1.7-7.5,3c-4.1,1.1-8.3,1.8-12.5,1.9c-1.7,0-4.5-1.2-8.4-3.6l-1.9-1.1c-0.3-0.3-0.5-0.8-0.4-1.2v-0.3
		c1.4-1.7,3.1-5.5,5.1-11.2l1.1-3c1.2,0,2.7-0.7,4.3-2.1s2.5-2.4,2.5-3c-0.2-1.1-0.8-2.1-1.6-2.9c-0.7-0.7-1.2-1.5-1.6-2.4v-0.1
		l5.3-12.7c0-2,1.1-9.1,3.3-21.4C516.2,164.1,517.3,156.9,517.3,154.7z M544.3,184c-0.1-0.1-0.1-0.3-0.1-0.4
		c-1.2-3.8-1.8-9.7-1.8-17.7v-0.6c0-1.9-0.4-2.9-1.3-2.9c-3.8,0-5.7,1.1-5.7,3.2l0.6,6.4c-0.4,1.8-1,3.6-1.8,5.2
		c-1,2.2-1.7,4.6-1.8,7c0,1.8,0.2,2.6,0.7,2.6c1.3-0.1,2.6-0.4,3.8-0.9c1.6-0.6,3.3-0.9,5-0.9C543.4,185.1,544.3,184.7,544.3,184z"
		/>
	<path class="st1" d="M610.9,215.2c-0.8,0.8-1.4,1.7-1.8,2.8c-0.4,0.7-0.6,1.5-0.8,2.4c0,1.3,1.5,1.9,4.4,1.9c0.1,2.3,0.4,4.5,1,6.8
		c0.7,3,1,4.7,1,5c0,0.9-0.8,1.7-2.3,2.4c-2,0.6-6.1,2.4-12.2,5.7c-0.5,0.1-1,0.2-1.5,0.1c-0.9,0-3.1-0.6-6.7-1.9
		c-3.6-1.2-5.4-2.1-5.4-2.6c0.1-6,1.3-11.8,3.4-17.4c-0.1-0.4-0.2-0.9-0.1-1.4l0.6-17.1c0-2.7-0.1-4.1-0.4-4.4s-0.4-1.4-0.4-3.2
		s0-3.6,0.1-5c0-0.1,0.3-0.3,0.8-0.7c0.7-0.5,1.2-1,1.7-1.7c0.5-0.6,0.8-1.4,0.8-2.3c0-0.8-0.9-2-2.8-3.7l-1.3-1.1
		c-0.3-0.7-0.4-1.6-0.3-2.4c0.1-2.3,0.3-4.7,0.7-7c-0.2-2.8-0.6-5.6-1.3-8.4c0.3-0.5,0.7-1.1,1.1-1.5c0.7-0.7,1.1-1.6,1.1-2.5
		c0-0.7-0.9-3.8-2.7-9.3c-1.8-5.5-2.7-8.4-2.7-8.8s1.5-1.5,4.4-3.3s4.8-2.7,5.7-2.7h0.7c5.2,0,8.3-0.4,9.4-1.1l4.8-0.1
		c9.8,0,15.5,0.8,17.2,2.4l2.6,10.8v0.3c-1.8,1.4-2.8,3.4-2.8,5.6c0,0.4,1.1,0.8,3.3,1.4c2.2,0.6,3.3,1.3,3.3,2.4l-0.6,4.8
		c0,1.2,1.3,5.2,3.8,11.9c2.5,6.7,4,10.3,4.5,10.8l2,0.7c0.3,0.1,0.7-0.2,0.7-0.5c0-0.1,0-0.1,0-0.2v-1.2c0-13.7-0.8-21.4-2.3-23.1
		c0.3-0.9,0.8-1.7,1.4-2.4c0.7-0.7,1.2-1.6,1.4-2.6c-0.6-2-1.7-3.8-3.1-5.3c-0.4-0.3-0.7-0.8-0.7-1.4c0.2-1,0.5-1.9,1.1-2.7
		c0.5-0.8,0.9-1.6,1.1-2.6l-1.6-6.2c0-0.2,1-0.8,2.8-1.9c5.5-3.3,9.9-5,13.2-5l2.4,0.1c4.5,0.3,6.8,0.8,6.8,1.5l-0.8,5.3
		c-1.5,10.3-2.3,17.8-2.3,22.4c1.9,2.2,2.8,3.6,2.8,4.3c0,0.6-0.6,1.6-1.9,2.9c-0.7,0.6-1.4,1.4-1.9,2.2l0.9,3.7l-0.4,21.7
		c-0.1,3.5,0,6.9,0.4,10.4c-2.4,2.3-3.6,4.3-3.5,5.9l1.1,0.8c2.5,1.7,3.7,3,3.7,3.9c-0.1,0.6-0.4,1.1-0.8,1.4
		c-0.5,0.6-0.8,1.3-0.8,2.1c-0.1,5.1,1,10.1,3.3,14.6v0.1c0,0.5-1.1,1.4-3.4,2.8c-2.7,1.6-5.5,2.9-8.4,3.9c-2.4,1-5,1.7-7.6,1.9
		c-3.6-0.3-7.2-0.8-10.7-1.5c-5.4-0.9-8.2-1.7-8.2-2.4c-0.1-3.3-0.5-6.6-1.3-9.8c-0.6-3.1-1.5-6.1-2.6-9l-0.8-1.5
		c0.1-0.3,0.3-0.5,0.5-0.8c0.4-0.5,0.8-1.1,1.1-1.7c0.4-0.7,0.6-1.6,0.6-2.4c0-0.9-1-1.8-3.1-2.7c-0.5-0.2-1-0.5-1.4-0.8
		c0-3.2-2-11.2-6-23.9c-1-0.7-2.3-1.1-3.5-1.1c-0.4,0.4-0.6,3.4-0.6,9.1l0.3,21C611,213.8,611,214.5,610.9,215.2z M647.8,118.2
		c-0.7-1.5-1.1-2.2-1.4-2.2c-1.4,0.4-2.7,0.9-4,1.5c-1.4,0.7-2.8,1.2-4.3,1.5c-2.4-0.6-4.8-1.4-7.2-2.3c-4.3-1.5-7.1-2.3-8.3-2.3
		s-4.9,2.1-11,6.3c0.1,1.4,0.4,2.8,0.9,4.1c0.6,1.8,1,2.7,1.3,2.7s2-0.5,5.3-1.5c2-0.7,4-1.2,6.1-1.5c0.8,0,2.8,0.8,6,2.5
		s5.4,2.5,6.3,2.5s3-1,6.3-3s4.9-3.3,4.9-3.9C648.8,121,648.4,119.5,647.8,118.2L647.8,118.2z"/>
	<path class="st1" d="M691.2,154.7l-1.8-8c0-0.8,3.6-3.1,10.8-7s11.5-5.9,12.8-6.1c2.4-0.3,4.8-0.5,7.2-0.4c3.3,0,6.6,0.3,9.8,1
		c6.4,1.4,9.7,2.7,9.7,4c0,0.1-0.2,1.3-0.7,3.6c-1.3,5.6-2.1,11.3-2.3,17.1c0,0.5,0.5,0.8,1.4,1s1.4,0.4,1.4,0.5
		c0,2.9,0.9,11.8,2.8,26.7c1.8,14.9,3.4,24.2,4.8,28.1v0.1c0,0.2-0.7,0.8-2.2,1.8s-2.2,2.1-2.2,3.3s0.7,2,2.2,2.5
		c1.4,0.4,2.9,0.8,4.3,1c1.4,0.2,2.1,0.7,2.1,1.4c-0.1,0.3-0.2,0.7-0.1,1c0.1,0.8,0.2,1.7,0.4,2.5c0.3,1.9,1.4,4.3,3.4,7.3l0.8,1.4
		c0,1.6-2.7,3.2-8,5c-5.3,1.8-9.3,2.7-11.9,2.7c-2.6,0-5.2-0.5-7.7-1.4c-2.2-0.8-4.2-1.8-6.1-3.1c-1.6-1.1-2.3-1.9-2.3-2.3
		c0-0.1,0.1-0.6,0.3-1.5c0.5-2.5,0.7-4.9,0.7-7.4l-3.1-18.9c0-0.4,0.8-0.7,2.5-1s2.5-0.9,2.5-1.8c-0.1-1.3-0.9-2.5-2.1-3
		c-1.6-0.9-3.4-1.3-5.2-1.2c-2.5,0.1-4.9,0.6-7.2,1.5c-2.8,1-4.4,2-4.8,2.8s-1.1,5-2,12.3c-0.8,5.4-1.3,10.9-1.4,16.4
		c0,0.7-2.5,1.7-7.5,3c-4.1,1.2-8.3,1.8-12.5,2c-1.7,0-4.5-1.2-8.4-3.6l-1.8-1.1c-0.3-0.3-0.5-0.8-0.4-1.2v-0.3
		c1.4-1.7,3.1-5.5,5.1-11.2l1.1-3c1.2,0,2.7-0.7,4.3-2.1c1.7-1.4,2.5-2.4,2.5-3c-0.2-1.1-0.8-2.1-1.6-2.9c-0.7-0.7-1.2-1.5-1.6-2.4
		v-0.1l5.3-12.7c0-2,1.1-9.1,3.3-21.4C690.1,164.1,691.2,156.9,691.2,154.7z M718.1,184c-0.1-0.1-0.1-0.3-0.1-0.4
		c-1.2-3.8-1.8-9.7-1.8-17.7v-0.6c0-1.9-0.4-2.9-1.3-2.9c-3.8,0-5.7,1.1-5.7,3.2l0.6,6.4c-0.4,1.8-1,3.6-1.8,5.2
		c-1,2.2-1.7,4.6-1.8,7c0,1.8,0.2,2.6,0.7,2.6c1.3-0.1,2.6-0.4,3.8-0.9c1.6-0.6,3.3-0.9,5-0.9C717.3,185.1,718.1,184.7,718.1,184z"
		/>
	<path class="st1" d="M833.3,167.1l0.9,3.7c-0.3,8.1-0.4,15.1-0.4,20.9c-0.1,3.7,0,7.4,0.4,11.1c-2.4,2.3-3.5,4.3-3.5,5.9
		c3.2,2,4.8,3.6,4.8,4.8c0,0.3-0.3,0.7-0.8,1.2c-0.5,0.5-0.8,1.6-0.8,3.3c0,2.1,0.3,4.2,0.8,6.2c0.3,1.9,0.9,3.7,1.6,5.4l0.8,1.9
		v0.1c0,0.5-1.1,1.4-3.4,2.8c-2.7,1.6-5.5,2.9-8.4,3.9c-2.4,1-5,1.7-7.6,1.9c-3.6-0.2-7.2-0.7-10.7-1.4c-5.4-0.9-8.2-1.7-8.2-2.4
		c-0.1-3.3-0.5-6.6-1.3-9.8c-0.6-3.1-1.4-6.1-2.5-9l-0.8-1.5c0.1-0.3,0.2-0.5,0.4-0.7c0.9-1,1.5-2.2,1.7-3.5
		c0.1-0.8-0.3-1.6-0.9-2.1c-0.7-0.5-1.4-0.9-2.1-1.3c-0.5-0.2-1-0.5-1.5-0.8c0-2.9-1.5-9.2-4.5-19.1l-1.4-4.8
		c-1-0.7-2.3-1.1-3.5-1.1c-0.4,0.4-0.6,3.4-0.6,9.1l0.3,21l-0.1,2.1c-0.8,0.8-1.4,1.7-1.8,2.8c-0.4,0.7-0.6,1.5-0.8,2.4
		c0,1.1,1.5,1.8,4.4,1.9c0.1,2.3,0.4,4.5,1,6.8c0.7,3,1,4.7,1,5c0,0.8-0.6,1.5-1.8,1.9c-4.1,1.8-7.5,3.5-10.2,4.8l-2.4,1.3
		c-0.5,0.1-1,0.2-1.5,0.1c-0.9,0-3.1-0.6-6.7-1.9c-3.6-1.2-5.4-2.1-5.4-2.6c0-5,0.9-10,2.5-14.8l0.8-2.6c-0.1-0.4-0.2-0.9-0.1-1.4
		l0.6-17.1c0-2.7-0.1-4.1-0.4-4.4s-0.4-1.6-0.4-3.9l0.1-4.4c0-0.1,0.3-0.3,0.8-0.7c1.5-0.8,2.5-2.4,2.5-4.1c0-0.7-0.9-1.8-2.8-3.4
		l-1.3-1.1c-0.2-0.2-0.3-0.7-0.3-1.7l0.7-7.7l-1.3-8.4c0.3-0.5,0.7-1.1,1.1-1.5c0.7-0.7,1.1-1.6,1.1-2.5c0-0.7-0.9-3.8-2.7-9.3
		c-1.8-5.5-2.7-8.4-2.7-8.8s1.5-1.5,4.4-3.3s4.8-2.7,5.7-2.7h0.7c5.2,0,8.3-0.4,9.4-1.1c1.3-0.1,2.9-0.1,4.8-0.1
		c9.8,0,15.5,0.8,17.2,2.4c1.7,6,2.5,9.6,2.5,10.8v0.3c-1.8,1.3-2.9,3.4-2.8,5.6c0,0.4,1.1,0.8,3.3,1.4c2.2,0.6,3.3,1.3,3.3,2.4
		l-0.5,4.8c0,1.2,1.3,5.2,3.8,11.9s4,10.3,4.5,10.8c0.6,0.4,1.2,0.6,1.9,0.7c0.5,0,0.8-0.2,0.8-0.7v-1.2c0-13.7-0.8-21.4-2.3-23.1
		c0.3-0.9,0.7-1.7,1.4-2.4c0.7-0.7,1.2-1.6,1.4-2.6c-0.7-2.2-1.9-4.1-3.5-5.7c-0.2-0.3-0.3-0.6-0.3-1c0.2-1,0.5-1.9,1.1-2.7
		c0.5-0.8,0.9-1.6,1.1-2.6l-1.6-6.2c0-0.2,1-0.8,2.8-1.9c5.5-3.3,9.9-5,13.2-5c6.1,0.2,9.2,0.7,9.2,1.6c-2.1,13.2-3.1,22.4-3.1,27.6
		c1.9,2,2.8,3.4,2.8,4.1c0,0.7-0.6,1.7-1.9,3C834.5,165.5,833.8,166.3,833.3,167.1z"/>
	<path class="st1" d="M873.3,210.9c-0.2,1.8-0.3,4.8-0.3,9.1c0.1,4.9,1.5,9.7,3.8,13.9c0,0.5-0.5,1.1-1.6,1.8l-2.3,1.6
		c-0.5,0.3-1.1,0.8-1.9,1.4l-2,1.5c-0.8,0.7-1.8,1.3-2.8,1.5c-4.5-0.2-9.1-0.7-13.5-1.5c-6.3-1-9.4-2-9.4-3c0-0.6,0.2-2.9,0.7-6.9
		c0.5-4,0.8-6.3,0.8-6.8l1-1.9c0.9-9.1,1.3-15.1,1.3-17.9c0-2.8-0.1-6.4-0.3-10.6c-0.2-4.2-0.5-7.6-0.7-10c-0.2-2.4-0.4-3.7-0.4-3.9
		c0-0.1,0.4-0.4,1.1-0.9c2.1-1.4,3.1-2.9,3.1-4.4c0-1.5-0.9-2.9-2.3-3.5c-1.6-0.8-2.3-1.3-2.3-1.6c0.1-2.1,0.4-4.3,0.7-6.4
		c0.4-2.6,0.6-5.2,0.7-7.8c-0.2-2.7-0.8-5.3-1.8-7.7c-0.7-1.8-1.3-3.7-1.8-5.7c0-0.7,2.2-2.4,6.6-5s7.5-3.9,9.4-3.9
		c3.1,0.2,6.2,0.8,9.1,1.7c4.3,1.1,6.4,2.4,6.4,3.8c-0.3,2.6-0.8,5.1-1.6,7.6c-0.7,2.3-1.2,4.6-1.6,6.9c0,0.6,0.4,1.2,0.9,1.4
		c0.5,0.3,0.9,0.8,0.9,1.4c-1,10.5-1.6,17.6-1.6,21.2c0,3.6,0,5.8,0.1,6.3c0.1,0.7,0.4,1.4,0.8,2c0.4,0.6,0.7,1.4,0.7,2.2
		c-0.7,0.7-1.4,1.4-2.2,1.9c-1.5,1.2-2.2,2.3-2.2,3.2s0.8,2,2.4,3.3s2.4,2.6,2.4,4c-0.3,1.8-0.5,2.8-0.5,3c-0.7,0.6-1.4,1.2-2.2,1.7
		c-1.4,1-2.1,1.6-2.1,2v1c0,1.2,1,2.1,2.8,2.8C872.8,210,873.3,210.4,873.3,210.9z"/>
	
		<radialGradient id="SVGID_1_" cx="150.37" cy="640.38" r="114.38" gradientTransform="matrix(1 0 0 1 0 -494.12)" gradientUnits="userSpaceOnUse">
		<stop  offset="0.87" style="stop-color:#FF1D25"/>
		<stop  offset="0.9" style="stop-color:#F01F27"/>
		<stop  offset="0.96" style="stop-color:#CE252B"/>
		<stop  offset="1" style="stop-color:#C1272D"/>
	</radialGradient>
	<circle class="st2" cx="150.4" cy="146.3" r="114.4"/>
	
		<radialGradient id="SVGID_2_" cx="151.05" cy="640.2532" r="145.7234" fx="162.3602" fy="640.2532" gradientTransform="matrix(1 0 0 1 0.35 -493.79)" gradientUnits="userSpaceOnUse">
		<stop  offset="0.68" style="stop-color:#FDE050"/>
		<stop  offset="0.75" style="stop-color:#FDDA4C"/>
		<stop  offset="0.83" style="stop-color:#FDC93F"/>
		<stop  offset="0.93" style="stop-color:#FDB02C"/>
	</radialGradient>
	<path class="st3" d="M282.5,153.7l13.1-14c0.9-1,0.9-2.6-0.1-3.5c0,0-0.1-0.1-0.1-0.1l-14.8-12.3c-0.9-0.8-1.2-2.1-0.6-3.1
		l9.2-16.8c0.7-1.2,0.2-2.7-1-3.4l-0.1-0.1l-17.3-8.2c-1.1-0.5-1.6-1.7-1.3-2.9l4.7-18.6c0.3-1.3-0.5-2.7-1.8-3h-0.1l-18.8-3.6
		c-1.2-0.2-2-1.3-2-2.5V42.4c0-1.4-1.1-2.5-2.5-2.5c0,0,0,0,0,0h-0.2l-19.1,1.2c-1.2,0.1-2.3-0.7-2.6-1.9l-4.8-18.6
		c-0.3-1.3-1.7-2.1-3-1.8h-0.2l-18.2,6c-1.1,0.4-2.4-0.1-2.9-1.2l-9.3-16.8c-0.7-1.2-2.2-1.7-3.4-1c0,0,0,0,0,0L185.2,6L169,16.2
		c-1,0.6-2.3,0.5-3.1-0.4l-13.1-14c-0.9-1-2.5-1.1-3.5-0.1c0,0,0,0,0,0l-0.1,0.1l-13.1,14c-0.8,0.9-2.1,1-3.1,0.4L116.6,5.9
		c-1.2-0.7-2.7-0.4-3.4,0.7c0,0,0,0,0,0l-0.1,0.2l-9.3,16.8c-0.6,1.1-1.8,1.6-3,1.2l-18.2-6c-1.3-0.4-2.7,0.3-3.1,1.6c0,0,0,0,0,0
		c0,0,0,0.1,0,0.1l-4.8,18.6c-0.3,1.2-1.4,1.9-2.6,1.9L53,39.9c-1.4-0.1-2.6,1-2.6,2.3v19.4c0,1.2-0.8,2.2-2,2.5l-18.9,3.6
		c-1.3,0.3-2.2,1.5-2,2.9c0,0.1,0,0.2,0,0.2l4.8,18.6c0.3,1.1-0.3,2.4-1.3,2.9l-17.4,8.2c-1.2,0.6-1.8,2.1-1.2,3.3c0,0,0,0,0,0
		c0,0,0,0.1,0.1,0.1l9.3,16.8c0.6,1,0.3,2.4-0.6,3.1L6.3,136.1c-1.1,0.9-1.2,2.5-0.3,3.5l0.1,0.1l13.1,14c0.8,0.9,0.9,2.2,0.2,3.2
		L8.1,172.4c-0.8,1.1-0.6,2.7,0.5,3.5l0.1,0.1L25,186.3c1,0.6,1.4,1.9,1,3l-7,17.9c-0.5,1.3,0.1,2.7,1.4,3.2c0,0,0,0,0,0
		c0.1,0,0.1,0,0.2,0.1l18.2,5.9c1.1,0.4,1.9,1.5,1.7,2.7L38,238.2c-0.2,1.4,0.8,2.6,2.1,2.8c0,0,0,0,0,0h0.2l19.2,1.2
		c1.2,0.1,2.2,1,2.3,2.2l2.4,19.1c0.2,1.4,1.4,2.3,2.8,2.1h0.1L86,262c1.2-0.2,2.3,0.4,2.8,1.5l7.1,17.9c0.5,1.3,2,1.9,3.3,1.4
		l0.1-0.1l17.4-8.2c1.1-0.5,2.4-0.2,3.1,0.8l11.3,15.6c0.8,1.1,2.4,1.4,3.5,0.6c0,0,0,0,0,0l0.1-0.1l14.8-12.2
		c0.9-0.8,2.2-0.8,3.2,0l14.8,12.2c1.1,0.9,2.6,0.7,3.5-0.3l0.1-0.1l11.3-15.5c0.7-1,2-1.3,3.1-0.8l17.4,8.2
		c1.2,0.6,2.7,0.1,3.3-1.2l0.1-0.1l7-17.9c0.4-1.1,1.6-1.7,2.8-1.5l18.8,3.6c1.4,0.2,2.7-0.6,2.9-2c0,0,0-0.1,0-0.1l2.5-19.1
		c0.2-1.2,1.1-2.1,2.3-2.2l19.1-1.3c1.4-0.1,2.4-1.3,2.3-2.6c0,0,0,0,0,0c0-0.1,0-0.1,0-0.2l-2.4-19.1c-0.1-1.2,0.6-2.3,1.7-2.7
		l18.2-5.9c1.3-0.4,2-1.8,1.6-3.1l-0.1-0.2l-7-17.9c-0.4-1.1,0-2.4,1-3l16.1-10.4c1.2-0.8,1.5-2.3,0.7-3.5l-0.1-0.1l-11.2-15.6
		C281.6,155.9,281.7,154.6,282.5,153.7z M149.7,257.4c-59.8-1.1-108.5-49.8-109.6-109.7C39,83.3,87.9,34.3,152,35.5
		c59.8,1.1,108.5,49.8,109.6,109.8C262.8,209.6,213.9,258.5,149.7,257.4z"/>
	<g class="st4">
		<path class="st5" d="M68.7,95.3c-1.3-0.8-2.2-1.4-2.7-1.7c-0.5-0.3-1.2-0.7-2.2-1.3c-1-0.6-1.8-1-2.6-1.4c-0.3-0.2-0.5-0.5-0.6-1
			c0-0.5,0.1-0.9,0.3-1.4l0.1-0.1c1.3-2.2,3.1-5.1,5.4-8.8c0.3-0.4,0.6-0.8,1.1-0.9c0.4-0.2,0.8-0.2,1.1,0c0.3,0.2,0.5,0.5,0.5,1
			c0,0.5-0.1,0.9-0.4,1.4c-1.8,2.9-3.3,5.3-4.4,7.1c0.7,0.4,1.5,0.8,2.3,1.3c1.4-2.2,2.6-4.3,3.7-6.2c0.3-0.5,0.6-0.8,1.1-1
			c0.4-0.2,0.8-0.2,1.1,0c0.3,0.2,0.5,0.5,0.6,1c0,0.5-0.1,0.9-0.3,1.4c-1.1,1.9-2.4,4-3.8,6.2l4,2.4c0.3,0.2,0.5,0.5,0.5,1
			c0,0.5-0.1,0.9-0.4,1.4c-0.3,0.5-0.6,0.8-1.1,1c-0.4,0.2-0.8,0.2-1.1,0C70.7,96.6,70,96.1,68.7,95.3z"/>
	</g>
	<g class="st4">
		<path class="st5" d="M80.1,77.2c-0.6-0.5-1.3-1.2-2-2.1c-0.4-0.5-1-1.3-1.7-2.3c-0.6-0.9-1.1-1.4-1.3-1.7
			c-0.2-0.3-0.3-0.7-0.2-1.1c0.1-0.4,0.4-0.9,0.8-1.2c0.4-0.4,0.8-0.6,1.3-0.6c0.5,0,0.8,0.1,1.1,0.4c0.3,0.3,0.7,0.9,1.4,1.8
			c0.8,1.1,1.4,1.8,1.7,2.2c0.7,0.8,1.2,1.4,1.8,1.8c0.5,0.4,0.9,0.6,1.2,0.7c0.7,0,1.5-0.2,2.3-0.7c0.8-0.5,1.5-1.1,2-1.9
			c0.5-0.8,0.8-1.6,0.9-2.3c0-1.2-0.5-2.5-1.6-3.8c-0.4-0.5-0.9-1-1.7-1.7c-1-0.9-1.6-1.5-1.8-1.7c-0.3-0.3-0.3-0.6-0.3-1.1
			c0.1-0.4,0.3-0.9,0.7-1.2c0.4-0.4,0.8-0.6,1.3-0.7c0.5-0.1,0.8,0,1.1,0.3c0.2,0.2,0.7,0.7,1.7,1.6c0.8,0.7,1.4,1.4,1.8,1.9
			c1.4,1.7,2.1,3.5,2.1,5.3c0,1-0.4,2.1-1,3.3c-0.6,1.1-1.4,2.1-2.3,3c-0.9,0.9-2,1.6-3.2,2.2c-1.2,0.6-2.4,0.8-3.5,0.7
			C81.8,78.3,81,78,80.1,77.2z"/>
	</g>
	<g class="st4">
		<path class="st5" d="M113.4,59.5c-1.6-0.4-3.7-1.1-6.3-2.1c-2.8-1-4.7-1.6-5.8-1.9c0.2,0.5,0.8,1.5,1.7,3.1c0.9,1.6,1.6,2.9,2.1,4
			c0.2,0.3,0.1,0.7-0.1,1.1c-0.2,0.4-0.6,0.7-1.1,1c-0.5,0.2-1,0.3-1.4,0.2c-0.5-0.1-0.8-0.3-0.9-0.6c-0.5-1-1.4-2.7-2.6-5
			c-1.2-2.3-2.1-4.1-2.6-5.3c-0.2-0.4-0.1-0.7,0.1-1.1c0.2-0.4,0.6-0.7,1.1-0.9c0.2-0.1,0.5-0.2,0.7-0.2c0.4-0.1,0.7-0.1,1,0
			c0.4,0.1,1.1,0.3,2,0.5c0.9,0.2,1.6,0.4,2,0.5c1.3,0.2,3.3,0.8,6,1.8l1.8,0.7c-1.3-2.8-2.4-5-3.3-6.7c-0.2-0.3-0.1-0.7,0.1-1.1
			c0.2-0.4,0.6-0.7,1-1c0.5-0.2,0.9-0.3,1.4-0.3c0.5,0.1,0.8,0.3,1,0.6c0.8,1.6,2.5,5.1,5,10.4c0.1,0.3,0.1,0.7-0.1,1.1
			c-0.2,0.4-0.5,0.7-1,1C114.6,59.6,114,59.7,113.4,59.5z"/>
	</g>
	<g class="st4">
		<path class="st5" d="M126.7,55.5c-0.5,0.1-1,0-1.4-0.2c-0.4-0.2-0.7-0.5-0.7-0.8c-0.1-0.6-0.5-2.4-1.2-5.6c-0.7-3.1-1-5-1.1-5.6
			c-0.1-0.4,0.1-0.7,0.4-1c0.3-0.3,0.8-0.6,1.3-0.7c0.2-0.1,0.3-0.1,0.5-0.2c0.7-0.2,1.2-0.3,1.6-0.4c0.3-0.1,0.9-0.2,1.7-0.4
			c0.8-0.2,1.4-0.3,2-0.3c0.6,0,1.2-0.1,1.9-0.1c0.7,0,1.4,0,2,0.1c0.7,0.1,1.3,0.3,1.8,0.5c1.1,0.4,1.9,1,2.6,1.8s1.1,1.6,1.3,2.6
			c0.2,1,0.2,2,0,2.9c-0.2,0.9-0.7,1.8-1.3,2.7c-0.7,0.9-1.5,1.6-2.5,2.2c-1.1,0.6-2.5,1.2-4.4,1.6c-0.4,0.1-1.1,0.2-2.1,0.4
			c-1,0.2-1.6,0.3-1.9,0.4C127,55.4,126.8,55.5,126.7,55.5z M133.2,50.9c1-0.6,1.7-1.4,2.1-2.4c0.4-1,0.4-2,0-3.1
			c-0.4-1-1.1-1.8-2.1-2.2c-0.8-0.3-1.8-0.4-2.9-0.3c-1.1,0.1-2.5,0.4-4.1,0.8c0.2,1.2,0.4,2.2,0.6,2.8s0.3,1.6,0.6,2.9
			c0.3,1.3,0.5,2.2,0.6,2.8c0.9-0.2,1.6-0.3,2.1-0.4C131.6,51.6,132.6,51.3,133.2,50.9z"/>
	</g>
	<g class="st4">
		<path class="st5" d="M146.1,50.4l6.7-11.2c0.2-0.2,0.4-0.4,0.7-0.6c0.3-0.1,0.7-0.2,1.1-0.2c0.4,0,0.8,0,1.2,0.2
			c0.4,0.2,0.7,0.4,0.9,0.7l1.9,3.7l2.2,4.4l1.8,3.7c0.2,0.4,0.2,0.7-0.1,1.1c-0.2,0.3-0.6,0.6-1.1,0.7c-0.5,0.1-1,0.1-1.5-0.1
			c-0.5-0.2-0.8-0.4-1-0.8l-1.5-2.7c-2.1-0.1-4.1-0.2-6.2-0.2l-1.5,2.6c-0.2,0.3-0.6,0.6-1.1,0.7c-0.5,0.1-1,0.1-1.5-0.1
			c-0.5-0.2-0.8-0.4-1-0.8C145.9,51.1,145.9,50.7,146.1,50.4z M156,46.4l-1.4-2.9l-1.7,2.8C153.6,46.3,154.7,46.4,156,46.4z"/>
	</g>
	<g class="st4">
		<path class="st5" d="M172.8,55c-1.1-0.7-1.9-1.4-2.5-2.2c-0.5-0.7-0.9-1.7-1.2-2.9c-0.2-1.2-0.2-2.2,0-3c0.3-1.2,1.1-2.2,2.3-3
			c1.2-0.8,2.6-1.4,4.3-1.6c1.7-0.2,3.3-0.1,5,0.4c1,0.3,2,0.7,3,1.3c0.7,0.5,1.3,0.9,1.7,1.4c0.4,0.5,0.9,1.1,1.5,2
			c0.3,0.5,0.4,0.8,0.3,1.1c-0.1,0.3-0.4,0.6-0.8,0.7c-0.5,0.2-0.9,0.2-1.4,0c-0.5-0.1-0.9-0.4-1.2-0.8L183,47
			c-0.3-0.4-0.7-0.8-1.2-1.1c-0.5-0.3-1.1-0.6-1.7-0.7c-1-0.3-2-0.4-3.1-0.2c-1,0.1-1.9,0.5-2.7,1c-0.8,0.5-1.2,1.2-1.5,1.9
			c-0.2,0.6-0.2,1.3,0,2c0.2,0.7,0.4,1.4,0.8,1.9c0.3,0.4,0.8,0.8,1.6,1.3c0.8,0.4,1.7,0.8,2.6,1.1c0.7,0.2,1.3,0.3,1.9,0.3
			c0.5,0,1-0.1,1.3-0.2c0.2-0.1,0.5-0.4,0.9-0.8l0.6-0.6c0.5-0.4,1.1-0.5,1.8-0.3c0.5,0.1,0.9,0.4,1.2,0.7c0.3,0.4,0.4,0.7,0.3,1.1
			c0,0.2-0.1,0.3-0.3,0.5l-0.4,0.4c-0.3,0.3-0.5,0.5-0.8,0.8s-0.5,0.4-0.9,0.6c-0.8,0.5-1.9,0.7-3.1,0.6c-1.2,0-2.5-0.3-3.8-0.6
			C175.2,56.2,173.9,55.7,172.8,55z"/>
	</g>
	<g class="st4">
		<path class="st5" d="M190.8,61.4c-0.2-0.4-0.3-0.8-0.1-1.1c0.2-0.3,0.4-0.5,0.8-0.6c0.4-0.1,0.8-0.1,1.3,0.1c1.1-2,2.4-4.6,4-7.8
			c-0.4-0.3-0.6-0.6-0.8-0.9c-0.2-0.4-0.1-0.7,0-1c0.2-0.3,0.5-0.5,1-0.6c0.5-0.1,0.9,0,1.4,0.3l2.8,1.5c0.5,0.2,0.8,0.6,1,1
			s0.2,0.8,0,1.1c-0.2,0.3-0.4,0.5-0.8,0.6c-0.4,0.1-0.8,0-1.2-0.1c-1.6,3.1-2.9,5.7-3.9,7.7c0.4,0.3,0.7,0.6,0.8,0.9
			c0.2,0.4,0.2,0.7,0,1c-0.2,0.3-0.5,0.6-0.9,0.6c-0.5,0.1-0.9,0-1.4-0.2l-2.9-1.5C191.4,62.1,191,61.8,190.8,61.4z"/>
	</g>
	<g class="st4">
		<path class="st5" d="M204.7,65.3c0.2-0.9,0.6-1.8,1.2-2.6c0.6-0.8,1.4-1.5,2.3-2c1-0.6,2.1-0.9,3.4-0.9c1.3-0.1,2.5,0.3,3.8,1
			c0.3,0.2,0.7,0.4,1.1,0.7c0.4,0.3,0.8,0.6,1.2,0.9s0.6,0.5,0.7,0.6c0.2,0.1,0.4,0.3,0.6,0.5c0.3,0.2,0.6,0.5,0.7,0.9l0.6,1.2
			c0.1,0.2,0.3,0.6,0.5,1.1c0.2,0.5,0.4,0.9,0.5,1.2c0.1,0.3,0.2,0.7,0.3,1.1c0.1,0.5,0.2,0.9,0.2,1.2c0,0.4,0,0.8-0.1,1.2
			s-0.2,0.9-0.3,1.3c-0.3,0.9-0.8,1.6-1.4,2.2c-0.6,0.6-1.3,1-2.1,1.3c-0.8,0.2-1.7,0.3-2.6,0.3c-1,0-1.9-0.3-2.9-0.7
			c-1-0.4-1.9-1-2.9-1.7c-1-0.7-1.9-1.6-2.7-2.6C205.1,69.4,204.4,67.3,204.7,65.3z M211.4,72.1c0.7,0.5,1.4,0.8,2.1,1
			c0.7,0.2,1.3,0.2,2,0.1c0.6-0.1,1.2-0.3,1.6-0.7c0.4-0.4,0.8-0.9,1.1-1.6c0.1-0.5,0.2-0.9,0.3-1.3c0-0.4,0-0.8-0.2-1.3
			c-0.1-0.5-0.3-0.9-0.5-1.4s-0.5-1-0.8-1.8c-0.3-0.2-0.6-0.5-0.9-0.7c-0.3-0.3-0.6-0.5-0.8-0.6c-0.2-0.2-0.4-0.3-0.7-0.4
			c-0.5-0.3-1.2-0.4-1.8-0.4c-0.7,0-1.4,0.2-2,0.6c-0.7,0.4-1.2,0.9-1.7,1.5c-0.4,0.6-0.7,1.1-0.8,1.7c-0.2,1,0.2,2.2,1.2,3.4
			C210,71,210.7,71.6,211.4,72.1z M216.6,60.2c-0.2-0.5-0.1-0.8,0.1-1.1c0.2-0.3,0.6-0.5,1-0.5l2.8,0.1c0.5,0,0.9,0.2,1.3,0.5
			c0.4,0.3,0.7,0.7,0.8,1.2c0.2,0.5,0.1,0.8-0.1,1.1c-0.2,0.3-0.6,0.5-1,0.5l-2.8-0.1c-0.5,0-0.9-0.2-1.3-0.5
			C217,61.1,216.8,60.7,216.6,60.2z"/>
	</g>
	<g class="st4">
		<path class="st5" d="M228.3,95.3c0.2-1.6,0.7-3.8,1.4-6.5c0.6-2.9,1-4.8,1.2-6c-0.4,0.3-1.4,1-2.9,2c-1.5,1-2.7,1.9-3.7,2.5
			c-0.3,0.2-0.7,0.2-1.1,0.1c-0.4-0.2-0.8-0.5-1.1-0.9s-0.4-0.9-0.4-1.4c0-0.5,0.2-0.8,0.5-1c1-0.6,2.5-1.7,4.7-3.2
			c2.1-1.5,3.8-2.6,4.9-3.2c0.3-0.2,0.7-0.2,1.1,0c0.4,0.2,0.8,0.5,1.1,1c0.1,0.2,0.2,0.5,0.3,0.7c0.1,0.3,0.2,0.7,0.1,1
			c-0.1,0.4-0.2,1.1-0.3,2c-0.1,0.9-0.2,1.6-0.3,2.1c-0.1,1.3-0.4,3.3-1.1,6.2l-0.4,1.9c2.6-1.6,4.7-2.9,6.3-4
			c0.3-0.2,0.7-0.2,1.1-0.1c0.4,0.2,0.8,0.5,1.1,0.9c0.3,0.4,0.4,0.9,0.4,1.4c0,0.5-0.2,0.8-0.5,1c-1.5,1-4.7,3-9.7,6.1
			c-0.3,0.2-0.7,0.2-1.1,0c-0.4-0.2-0.8-0.4-1.1-0.9C228.4,96.5,228.2,95.9,228.3,95.3z"/>
	</g>
	<path class="st5" d="M69.1,105.3c0.6-1,0.8-2.2,0.7-3.3c-0.1-1,0.6-2,1.7-2.1c0.1,0,0.2,0,0.3,0c2.6-0.3,3.3,1.4,3.3,1.4l2,0.7
		c0,0-4.3,1.1-2.2,2.1s2.1,7.4-1,10.5s-6.3,2.1-8.4,7.4c-1.2,3.1-3,6-5.3,8.4l-5.3,2.1l2.1-5.3l5.3-10.6c-2.1,0.6-4.3,0.6-6.3,0
		c-5.4-1.8-11.6-5.3-10.6-5.3c3.6-0.7,7.2-1.8,10.6-3.2c2.1-1,2.1-2.1,2.1-2.1c-2.5-0.9-4.4-2.8-5.3-5.3c-0.7-2.4-1-4.9-1-7.4
		l5.3,2.1c0,0,1.8,0.4,5.3,3.2C64.8,100.6,67,102.8,69.1,105.3z"/>
	<path class="st5" d="M231.6,105.3c-0.5-1-0.8-2.1-0.6-3.3c0.1-1-0.6-2-1.7-2.1c-0.1,0-0.2,0-0.3,0c-2.6-0.3-3.3,1.4-3.3,1.4l-2,0.7
		c0,0,4.3,1.1,2.1,2.1s-2.1,7.4,1.1,10.5s6.3,2.1,8.4,7.4c1.2,3.1,3,6,5.3,8.4l5.3,2.1l-2.1-5.3l-5.3-10.6c2.1,0.6,4.3,0.6,6.3,0
		c5.4-1.8,11.6-5.3,10.5-5.3c-3.6-0.7-7.1-1.8-10.5-3.2c-2.1-1-2.1-2.1-2.1-2.1c2.5-0.9,4.4-2.8,5.3-5.3c0.7-2.4,1-4.9,1.1-7.4
		l-5.3,2.1c0,0-1.8,0.4-5.3,3.1C236,100.6,233.7,102.8,231.6,105.3z"/>
	
		<radialGradient id="SVGID_3_" cx="150.87" cy="635.75" r="76.69" gradientTransform="matrix(1 0 0 1 0 -494.12)" gradientUnits="userSpaceOnUse">
		<stop  offset="0.55" style="stop-color:#FDFDFD"/>
		<stop  offset="0.62" style="stop-color:#F8F9F9"/>
		<stop  offset="0.69" style="stop-color:#EAEFEF"/>
		<stop  offset="0.77" style="stop-color:#D3DEDD"/>
		<stop  offset="0.85" style="stop-color:#B3C7C4"/>
		<stop  offset="0.9" style="stop-color:#9CB6B3"/>
	</radialGradient>
	<circle class="st6" cx="150.9" cy="141.6" r="76.7"/>
	
		<radialGradient id="SVGID_4_" cx="149.88" cy="622.53" r="8.9295" gradientTransform="matrix(1 0 0 1 0 -494.12)" gradientUnits="userSpaceOnUse">
		<stop  offset="0.37" style="stop-color:#FDE050"/>
		<stop  offset="0.47" style="stop-color:#FDD044"/>
		<stop  offset="0.66" style="stop-color:#FDB932"/>
		<stop  offset="0.78" style="stop-color:#FDB02C"/>
	</radialGradient>
	<path class="st7" d="M138.6,129.7h22.5c0.7,0,1.3-0.6,1.3-1.3c0-0.7-0.6-1.3-1.3-1.3h-22.5c-0.7,0-1.3,0.6-1.3,1.3
		C137.3,129.1,137.9,129.7,138.6,129.7z"/>
	
		<radialGradient id="SVGID_5_" cx="149.88" cy="-169.58" r="6.34" gradientTransform="matrix(1 0 0 -1 0 294)" gradientUnits="userSpaceOnUse">
		<stop  offset="0.37" style="stop-color:#FDE050"/>
		<stop  offset="0.47" style="stop-color:#FDD044"/>
		<stop  offset="0.66" style="stop-color:#FDB932"/>
		<stop  offset="0.78" style="stop-color:#FDB02C"/>
	</radialGradient>
	<path class="st8" d="M154.8,123.1c-1.3-0.5-2.6-0.7-4-0.7v-0.7c0.7,0,1.7-1.2,1.3-2c-0.7-1.3-4-1.3-4.6,0c-0.3,0.6,0,1.3,1.3,2v0.7
		c-1.4-0.1-2.8,0.1-4,0.7c-2.6,1.3-3.3,2.7-3.3,2.7h16.5C157.1,124.8,156,123.9,154.8,123.1z"/>
	
		<radialGradient id="SVGID_6_" cx="149.88" cy="-135.04" r="9.92" gradientTransform="matrix(1 0 0 -1 0 294)" gradientUnits="userSpaceOnUse">
		<stop  offset="0.37" style="stop-color:#FDE050"/>
		<stop  offset="0.47" style="stop-color:#FDD044"/>
		<stop  offset="0.66" style="stop-color:#FDB932"/>
		<stop  offset="0.78" style="stop-color:#FDB02C"/>
	</radialGradient>
	<polygon class="st9" points="138.6,154.9 136,158.8 163.8,158.8 161.1,154.9 	"/>
	
		<radialGradient id="SVGID_7_" cx="146.1363" cy="-152.54" r="32.2401" gradientTransform="matrix(1 0 0 -1 0 294)" gradientUnits="userSpaceOnUse">
		<stop  offset="0.37" style="stop-color:#FDE050"/>
		<stop  offset="0.47" style="stop-color:#FDD044"/>
		<stop  offset="0.66" style="stop-color:#FDB932"/>
		<stop  offset="0.78" style="stop-color:#FDB02C"/>
	</radialGradient>
	<path class="st10" d="M189.2,129.7c-1.3-4-13.2-4.6-17.9-3.3s-1.3,7.9-1.3,7.9l-7.9-4h-24.5c0,0,0,0.7-2,2.6s-3.3,1.3-7.3,1.3
		s-6.6-3.3-11.2-6s-14.5-2-14.5-2v2.6c3.5,1.2,6.8,2.7,9.9,4.6c4,2.6,7.3,3.3,11.2,8.6s13.9,10.6,13.9,10.6h25.8
		c4-0.7,9.9-7.9,9.9-7.9s1.3,0.7,8.6-2.6S190.5,133.7,189.2,129.7z"/>
	<g>
		<defs>
			<path id="SVGID_8_" d="M103.9,121.1c0,0-4-19.2,3.3-25.8c1.8-1.6,8.2-9.1,14.6-5.9c4,2,4,7.3,5.3,11.9c1.3,4.5,4.1,8.5,7.9,11.2
				c7.9,5.3,17.9,4.6,19.8,2.7c1.5-1.5-0.7-2.7-1.3-3.3c-0.6-0.5-1.3-1-2-1.3l5.9,0.7c2,0.5,4,0.7,6,0.7c3.4,0,14.7-3.5,20.5-8.6
				c5.3-4.6,7.9-7.8,7.9-12.6c0-4.6-0.7-6.6-4.6-7.3s-6.6,0.7-9.9,3.3c-0.9,0.9-2.1,1.3-3.4,1.3c0,0,1.3-6-2.6-10.6
				s-14.6-9.3-25.8-7.9c-12,1.4-9.3,7.3-7.9,7.9s7.4,2.8,8.6,5.3c1.3,2.7,1,5,0,6.6c-1,1.2-2.4,2-4,2c0,0,0.7-7.3-5.9-9.3
				s-15.2,0-18.5,1.3s-9.3,6-11.9,8.6c-2.5,2.6-4.3,5.8-5.3,9.3c-0.7,2.7-1.1,10,0,13.2c0.3,1.4,0.8,2.7,1.3,4
				C102.4,119.5,103.1,120.4,103.9,121.1z"/>
		</defs>
		<clipPath id="SVGID_9_">
			<use xlink:href="#SVGID_8_"  style="overflow:visible;"/>
		</clipPath>
		<g class="st11">
			<g>
				<defs>
					<rect id="SVGID_10_" x="96.7" y="66" width="98.5" height="58.4"/>
				</defs>
				<clipPath id="SVGID_11_">
					<use xlink:href="#SVGID_10_"  style="overflow:visible;"/>
				</clipPath>
				<g class="st12">
					
						<image style="overflow:visible;enable-background:new    ;" width="314" height="187" xlink:href="D14F7F23.png"  transform="matrix(0.3166 0 0 0.3166 96.5973 65.81)">
					</image>
				</g>
			</g>
		</g>
	</g>
	<polygon class="st13" points="293.2,262 274.6,242.4 293.2,222.8 8.6,222.8 27.1,242.4 8.6,262 	"/>
	<polygon class="st14" points="301.7,213.7 0,213.7 0,214.5 7.9,222.8 293.2,222.8 	"/>
	<polygon class="st15" points="8.6,262 0,271 301.7,271 293.2,262 	"/>
	<g class="st4">
		<path class="st16" d="M138.4,235.2c-0.3,0-0.6,0-0.9,0s-0.5,0-0.7,0c-0.3,0-0.7,0-1.3,0c-0.9,0-1.5,0-2-0.1
			c-0.7-0.1-1.2-0.4-1.4-0.9c-0.2-0.4-0.1-0.8,0.2-1.3c0.2-0.2,1-0.9,2.3-2c1.3-1.1,2-1.7,2.1-1.9c0.1-0.1,0.1-0.3,0-0.4
			c-0.1-0.4-0.4-0.6-0.9-0.6c-0.3,0-0.5,0.1-0.8,0.2c-0.2,0.1-0.4,0.2-0.6,0.4c0,0,0,0.1-0.1,0.2c0,0,0,0,0,0.1s0,0,0,0.1
			s0,0.1,0,0.1l-0.1,0.3c-0.1,0.2-0.3,0.4-0.5,0.5c-0.3,0.1-0.5,0.2-0.8,0.1c-0.3-0.1-0.5-0.2-0.7-0.4s-0.2-0.4-0.1-0.7
			c0,0,0-0.1,0-0.2c0-0.2,0.1-0.3,0.1-0.3c0.1-0.3,0.2-0.5,0.3-0.7c0.3-0.5,0.8-0.8,1.4-1.1c0.6-0.3,1.2-0.4,1.9-0.4
			c0.7,0,1.3,0.2,1.9,0.5c0.6,0.3,0.9,0.8,1.1,1.4c0.2,0.5,0.1,1.1-0.2,1.6c-0.2,0.4-1.4,1.4-3.4,3.1l-0.5,0.4
			c-0.1,0.1-0.2,0.1-0.2,0.2c0.3,0,0.5,0,0.9,0c0.6,0,1.1,0,1.4,0c0,0,0.8,0,2.3,0c0.3,0,0.6,0.1,0.8,0.3c0.2,0.2,0.3,0.4,0.3,0.6
			c0,0.2-0.1,0.4-0.3,0.6c-0.2,0.2-0.5,0.2-0.8,0.2C138.9,235.2,138.7,235.2,138.4,235.2z"/>
	</g>
	<g class="st4">
		<path class="st16" d="M144.7,234.8c-0.5-0.2-0.9-0.5-1.2-0.9c-0.3-0.4-0.5-0.7-0.7-1.1c-0.2-0.4-0.3-0.8-0.3-1.2
			c-0.1-0.9,0-1.7,0.4-2.5c0.3-0.8,0.9-1.5,1.6-2c0.2-0.1,0.5-0.3,0.8-0.4c0,0,0.1,0,0.2-0.1c0.1,0,0.2-0.1,0.3-0.1
			c0.2-0.1,0.5-0.1,0.7-0.1c0.2,0,0.4,0.1,0.6,0.3c0.2,0,0.3,0,0.4,0c0.6,0.1,1.1,0.2,1.4,0.3c0.8,0.4,1.4,1.1,1.6,2.2
			c0.2,0.7,0.3,1.3,0.3,2.1c0,1-0.4,1.9-1,2.7c-0.4,0.4-0.9,0.8-1.5,1c-0.6,0.2-1.3,0.3-2,0.3C145.7,235.2,145.2,235,144.7,234.8z
			 M148,232.9c0.4-0.5,0.6-1,0.6-1.7c0-0.6-0.1-1.2-0.2-1.7c-0.1-0.2-0.1-0.4-0.2-0.5c-0.1-0.2-0.1-0.3-0.2-0.3
			c-0.1-0.1-0.1-0.1-0.1-0.1c-0.1-0.1-0.4-0.1-0.7-0.1c-0.1,0-0.1,0-0.2,0c-0.1,0-0.1,0-0.2,0s-0.1,0-0.2,0c-0.2,0-0.4-0.1-0.5-0.1
			c-0.1,0-0.1,0.1-0.2,0.1c-0.4,0.3-0.7,0.7-0.9,1.2c-0.2,0.6-0.3,1.2-0.3,1.8c0.1,0.6,0.3,1.1,0.6,1.5c0.3,0.4,0.7,0.6,1.3,0.6
			C147.2,233.5,147.6,233.3,148,232.9z"/>
		<path class="st16" d="M156.1,234.8c-0.5-0.2-0.9-0.5-1.2-0.9c-0.3-0.4-0.5-0.7-0.7-1.1c-0.2-0.4-0.3-0.8-0.3-1.2
			c-0.1-0.9,0-1.7,0.4-2.5c0.3-0.8,0.9-1.5,1.6-2c0.2-0.1,0.5-0.3,0.8-0.4c0,0,0.1,0,0.2-0.1c0.1,0,0.2-0.1,0.3-0.1
			c0.2-0.1,0.5-0.1,0.7-0.1c0.2,0,0.4,0.1,0.6,0.3c0.2,0,0.3,0,0.4,0c0.6,0.1,1.1,0.2,1.4,0.3c0.8,0.4,1.4,1.1,1.6,2.2
			c0.2,0.7,0.3,1.3,0.3,2.1c0,1-0.4,1.9-1,2.7c-0.4,0.4-0.9,0.8-1.5,1c-0.6,0.2-1.3,0.3-2,0.3C157.1,235.2,156.5,235,156.1,234.8z
			 M159.3,232.9c0.4-0.5,0.6-1,0.6-1.7c0-0.6-0.1-1.2-0.2-1.7c-0.1-0.2-0.1-0.4-0.2-0.5c-0.1-0.2-0.1-0.3-0.2-0.3
			c-0.1-0.1-0.1-0.1-0.1-0.1c-0.1-0.1-0.4-0.1-0.7-0.1c-0.1,0-0.1,0-0.2,0c-0.1,0-0.1,0-0.2,0s-0.1,0-0.2,0c-0.2,0-0.4-0.1-0.5-0.1
			c-0.1,0-0.1,0.1-0.2,0.1c-0.4,0.3-0.7,0.7-0.9,1.2c-0.2,0.6-0.3,1.2-0.3,1.8c0.1,0.6,0.3,1.1,0.6,1.5c0.3,0.4,0.7,0.6,1.3,0.6
			C158.5,233.5,159,233.3,159.3,232.9z"/>
		<path class="st16" d="M166.5,234.6c-0.7-0.4-1.1-1-1.1-1.6c0-0.4,0-0.7,0.2-1.1c0.2-0.4,0.4-0.7,0.8-0.9c-0.3-0.3-0.6-0.6-0.7-1
			c-0.1-0.4-0.1-0.7,0-1.1c0.2-0.6,0.6-1.2,1.2-1.6c0.7-0.5,1.5-0.7,2.5-0.7c0.8,0,1.5,0.2,2.1,0.5c0.6,0.4,1,0.8,1.2,1.4
			c0.2,0.4,0.2,0.8,0,1.3c-0.1,0.5-0.4,0.8-0.9,1.2c0.6,0.4,1,0.9,1.1,1.4c0.1,0.5,0.1,1-0.3,1.5c-0.3,0.5-0.8,0.8-1.4,1.1
			c-0.6,0.3-1.3,0.4-2.1,0.4C168.1,235.2,167.2,235,166.5,234.6z M170.3,233.4c0.3-0.1,0.5-0.3,0.6-0.4c0.2-0.3,0-0.7-0.6-1
			c-0.1-0.1-0.3-0.2-0.4-0.2c-0.1,0.1-0.3,0.1-0.5,0.1c0,0-0.3,0-0.7,0c-0.1,0-0.2,0-0.3,0c-0.3,0.1-0.6,0.2-0.8,0.4
			c-0.2,0.2-0.3,0.4-0.2,0.6c0,0.1,0,0.2,0.1,0.2s0.1,0.2,0.3,0.3c0.1,0.1,0.3,0.2,0.5,0.2s0.5,0.1,0.9,0.1
			C169.6,233.6,170,233.6,170.3,233.4z M168.9,230.1c0.3,0,0.6-0.1,0.8-0.1c0.2,0,0.3,0,0.4-0.1c0.3-0.1,0.5-0.3,0.6-0.5
			c0.1-0.2,0.1-0.4,0-0.6c-0.1-0.2-0.2-0.4-0.5-0.6c-0.2-0.1-0.5-0.2-0.9-0.2c-0.5,0-0.9,0.1-1.2,0.3c-0.3,0.2-0.5,0.4-0.5,0.7
			c-0.1,0.2,0,0.4,0.1,0.6c0.1,0.2,0.4,0.3,0.8,0.4L168.9,230.1z"/>
	</g>
	<g class="st4">
		<path class="st16" d="M33.7,249.5c-0.2,0-0.4,0-0.6-0.1c-0.2-0.1-0.3-0.2-0.4-0.3c-0.1-0.1-0.2-0.3-0.2-0.5c0-0.3,0-1.4,0-3.4
			c0-1.4,0-2.6,0.1-3.4c0-0.1,0-0.2,0.1-0.3c0.1-0.2,0.2-0.3,0.4-0.4c0.2-0.1,0.4-0.2,0.6-0.2c0.8,0,1.8,0,3.1,0c1.3,0,2.3,0,3.1,0
			c0.3,0,0.6,0.1,0.8,0.2c0.2,0.2,0.3,0.4,0.3,0.6c0,0.2-0.1,0.4-0.3,0.6c-0.2,0.2-0.5,0.2-0.8,0.2c-0.6,0-1.5,0-2.6,0s-2,0-2.6,0
			c0,0.5-0.1,1.1-0.1,1.7c0.5,0,2,0,4.6,0c0.3,0,0.6,0.1,0.8,0.2c0.2,0.2,0.3,0.4,0.3,0.6c0,0.2-0.1,0.4-0.3,0.6
			c-0.2,0.2-0.5,0.2-0.8,0.2c-2.6,0-4.1,0-4.6,0c0,0.9,0,1.5,0,1.9c2.1,0,3.9,0,5.3,0c0.3,0,0.6,0.1,0.8,0.2
			c0.2,0.2,0.3,0.4,0.3,0.6c0,0.2-0.1,0.4-0.3,0.6c-0.2,0.2-0.5,0.2-0.8,0.2C38.5,249.5,36.4,249.5,33.7,249.5z"/>
		<path class="st16" d="M44.8,249.2c-0.2-0.2-0.3-0.4-0.3-0.6c0-0.8,0-2-0.1-3.5l0-3.4c0-0.2,0.1-0.4,0.3-0.6
			c0.2-0.2,0.5-0.2,0.8-0.3c0.3,0,0.6,0.1,0.8,0.2c0.2,0.2,0.3,0.4,0.3,0.6l0,3.2l0,3c0.5,0,1.3,0,2.2,0s1.7,0,2.2,0
			c0.3,0,0.6,0.1,0.8,0.2c0.2,0.2,0.3,0.3,0.3,0.6c0,0.2-0.1,0.4-0.3,0.6s-0.5,0.2-0.8,0.2c-0.3,0-1.2,0-2.7,0c-1.5,0-2.4,0-2.7,0
			C45.3,249.5,45,249.4,44.8,249.2z"/>
		<path class="st16" d="M59.7,248.4l3.5-7c0.1-0.2,0.2-0.3,0.4-0.4c0.2-0.1,0.4-0.1,0.6-0.2c0.2,0,0.5,0,0.7,0.1
			c0.2,0.1,0.4,0.2,0.5,0.4l1.2,2.2l1.4,2.6l1.1,2.2c0.1,0.2,0.1,0.4,0,0.6c-0.1,0.2-0.3,0.4-0.6,0.5c-0.3,0.1-0.6,0.1-0.9,0
			c-0.3-0.1-0.5-0.2-0.6-0.5l-0.9-1.6c-1.2,0-2.3,0-3.5,0l-0.8,1.6c-0.1,0.2-0.3,0.4-0.6,0.5c-0.3,0.1-0.6,0.1-0.8,0
			c-0.3-0.1-0.5-0.2-0.6-0.5C59.6,248.8,59.6,248.6,59.7,248.4z M65.2,245.7l-0.8-1.7l-0.9,1.7C63.9,245.7,64.4,245.7,65.2,245.7z"
			/>
	</g>
	<g class="st4">
		<path class="st16" d="M72.3,249.2c-0.2-0.2-0.3-0.4-0.3-0.6c0-0.8,0-2-0.1-3.5l0-3.4c0-0.2,0.1-0.4,0.3-0.6
			c0.2-0.2,0.5-0.2,0.8-0.3c0.3,0,0.6,0.1,0.8,0.2c0.2,0.2,0.3,0.4,0.3,0.6l0,3.2l0,3c0.5,0,1.3,0,2.2,0s1.7,0,2.2,0
			c0.3,0,0.6,0.1,0.8,0.2c0.2,0.2,0.3,0.3,0.3,0.6c0,0.2-0.1,0.4-0.3,0.6s-0.5,0.2-0.8,0.2c-0.3,0-1.2,0-2.7,0c-1.5,0-2.4,0-2.7,0
			C72.8,249.5,72.6,249.4,72.3,249.2z"/>
	</g>
	<g class="st4">
		<path class="st16" d="M85,249.3c-0.2,0.2-0.5,0.2-0.8,0.2c-0.3,0-0.6-0.1-0.8-0.3c-0.2-0.2-0.3-0.4-0.3-0.6c0-0.2,0-1.4,0-3.4
			c0-1.1,0-2,0.1-2.7c-0.8,0-1.5,0-2.1,0c-0.3,0-0.6-0.1-0.8-0.2c-0.2-0.2-0.3-0.4-0.3-0.6s0.1-0.4,0.3-0.6c0.2-0.2,0.5-0.3,0.8-0.3
			c0.7,0,1.7,0,3.2,0s2.6,0,3.2,0c0.3,0,0.6,0.1,0.8,0.2s0.3,0.4,0.3,0.6c0,0.2-0.1,0.4-0.3,0.6c-0.2,0.2-0.5,0.3-0.8,0.3
			c-0.7,0-1.4,0-2.2,0c-0.1,0.7-0.1,1.6-0.1,2.7c0,2.1,0,3.2,0,3.5C85.3,248.9,85.2,249.1,85,249.3z"/>
	</g>
	<g class="st4">
		<path class="st16" d="M93,249.2c-0.6-0.2-1.1-0.6-1.5-0.9c-0.4-0.4-0.7-0.8-0.9-1.3s-0.3-0.9-0.3-1.4c0-0.5,0-1.1,0.2-1.5
			s0.4-0.9,0.7-1.4c0.3-0.4,0.7-0.8,1.2-1.1c0.5-0.3,1.1-0.6,1.8-0.7c0.3,0,0.6-0.1,0.9-0.1h0.3c0.2,0,0.3,0,0.4,0
			c0.1,0,0.2,0,0.2,0c0.3,0,0.6,0,0.8,0c0.2,0,0.5,0.1,0.8,0.2c0.3,0.1,0.7,0.2,1,0.4c0.7,0.4,1.3,0.9,1.6,1.5s0.5,1.2,0.5,1.8
			c0,0.6-0.2,1.2-0.4,1.8c-0.2,0.4-0.5,0.8-0.8,1.2s-0.7,0.7-1.2,1c-0.4,0.3-1,0.5-1.6,0.7c-0.6,0.2-1.2,0.2-1.8,0.2
			C94.3,249.6,93.6,249.5,93,249.2z M97.1,247.4c0.6-0.4,1-0.9,1.3-1.5c0.3-0.7,0.4-1.3,0.2-1.8c-0.2-0.5-0.5-1-1.1-1.3
			c-0.1-0.1-0.2-0.1-0.3-0.2c-0.1,0-0.2-0.1-0.3-0.1c-0.1,0-0.2-0.1-0.4-0.1c-0.1,0-0.2,0-0.3,0s-0.2,0-0.3,0c-0.1,0-0.2,0-0.3,0
			c-0.1,0-0.2,0-0.3,0c-0.1,0-0.3,0-0.4,0c-0.7,0.2-1.3,0.6-1.8,1.1c-0.4,0.5-0.6,1.2-0.6,2c0,0.7,0.3,1.3,0.7,1.7
			c0.5,0.5,1.1,0.7,1.9,0.7C95.9,248,96.5,247.8,97.1,247.4z"/>
		<path class="st16" d="M109.8,246.8c-0.2-0.2-0.3-0.3-0.3-0.6s0.1-0.4,0.3-0.6c0.2-0.2,0.4-0.2,0.7-0.2h2.8c0.3,0,0.5,0.1,0.7,0.2
			c0.2,0.2,0.3,0.3,0.3,0.6s-0.1,0.4-0.3,0.6c-0.2,0.2-0.4,0.2-0.7,0.2h-2.8C110.3,247,110,247,109.8,246.8z"/>
		<path class="st16" d="M124.2,249.2c-0.2-0.2-0.3-0.4-0.3-0.6c0-0.8,0-2-0.1-3.5l0-3.4c0-0.2,0.1-0.4,0.3-0.6
			c0.2-0.2,0.5-0.2,0.8-0.3c0.3,0,0.6,0.1,0.8,0.2c0.2,0.2,0.3,0.4,0.3,0.6l0,3.2l0,3c0.5,0,1.3,0,2.2,0s1.7,0,2.2,0
			c0.3,0,0.6,0.1,0.8,0.2c0.2,0.2,0.3,0.3,0.3,0.6c0,0.2-0.1,0.4-0.3,0.6s-0.5,0.2-0.8,0.2c-0.3,0-1.2,0-2.7,0c-1.5,0-2.4,0-2.7,0
			C124.7,249.5,124.4,249.4,124.2,249.2z"/>
		<path class="st16" d="M133.3,248.4l3.5-7c0.1-0.2,0.2-0.3,0.4-0.4c0.2-0.1,0.4-0.1,0.6-0.2c0.2,0,0.5,0,0.7,0.1
			c0.2,0.1,0.4,0.2,0.5,0.4l1.2,2.2l1.4,2.6l1.1,2.2c0.1,0.2,0.1,0.4,0,0.6c-0.1,0.2-0.3,0.4-0.6,0.5c-0.3,0.1-0.6,0.1-0.9,0
			c-0.3-0.1-0.5-0.2-0.6-0.5l-0.9-1.6c-1.2,0-2.3,0-3.5,0l-0.8,1.6c-0.1,0.2-0.3,0.4-0.6,0.5c-0.3,0.1-0.6,0.1-0.8,0
			c-0.3-0.1-0.5-0.2-0.6-0.5C133.2,248.8,133.2,248.6,133.3,248.4z M138.8,245.7l-0.8-1.7l-0.9,1.7
			C137.4,245.7,138,245.7,138.8,245.7z"/>
	</g>
	<g class="st4">
		<path class="st16" d="M153.2,249.3c-0.2,0.2-0.5,0.2-0.8,0.2c-0.3,0-0.6-0.1-0.8-0.2s-0.3-0.4-0.3-0.6c0-0.2,0-1.4,0-3.5
			c0-2.1,0-3.3,0-3.5c0-0.2,0.1-0.4,0.3-0.6c0.2-0.2,0.5-0.2,0.8-0.2c0.1,0,0.1,0,0.2,0c0,0,0,0,0.1,0c1.3-0.2,2.3-0.2,3-0.2
			c1.4,0.1,2.5,0.5,3.2,1.1c0.6,0.5,0.9,1.1,0.9,1.7s-0.2,1.1-0.7,1.5c-0.4,0.3-0.9,0.6-1.5,0.8c-0.6,0.2-1.2,0.3-1.9,0.3
			c-0.2,0-0.4,0-0.7,0c-0.2,0-0.5,0-0.9,0c-0.3,0-0.5,0-0.6,0c0,1.2,0,2.1,0,2.6C153.5,249,153.4,249.2,153.2,249.3z M156.6,244.3
			c0.3-0.1,0.6-0.2,0.8-0.4c0.1-0.1,0.1-0.1,0.2-0.2c0-0.1,0-0.2,0-0.3c0-0.2-0.2-0.3-0.3-0.5c-0.3-0.3-0.9-0.5-1.7-0.5
			c-0.5,0-1.2,0-2,0.1c0,0.5,0,1.2,0,1.9h0l0.7,0.1c0.3,0,0.5,0,0.7,0c0.2,0,0.4,0,0.6,0C155.9,244.5,156.3,244.5,156.6,244.3z"/>
	</g>
	<g class="st4">
		<path class="st16" d="M160.8,248.4l3.5-7c0.1-0.2,0.2-0.3,0.4-0.4c0.2-0.1,0.4-0.1,0.6-0.2c0.2,0,0.5,0,0.7,0.1
			c0.2,0.1,0.4,0.2,0.5,0.4l1.2,2.2l1.4,2.6l1.1,2.2c0.1,0.2,0.1,0.4,0,0.6c-0.1,0.2-0.3,0.4-0.6,0.5c-0.3,0.1-0.6,0.1-0.9,0
			c-0.3-0.1-0.5-0.2-0.6-0.5l-0.9-1.6c-1.2,0-2.3,0-3.5,0l-0.8,1.6c-0.1,0.2-0.3,0.4-0.6,0.5c-0.3,0.1-0.6,0.1-0.8,0
			c-0.3-0.1-0.5-0.2-0.6-0.5C160.7,248.8,160.7,248.6,160.8,248.4z M166.3,245.7l-0.8-1.7l-0.9,1.7
			C164.9,245.7,165.5,245.7,166.3,245.7z"/>
		<path class="st16" d="M173.1,249.5c-0.3,0-0.5-0.1-0.7-0.3c-0.2-0.2-0.3-0.4-0.3-0.6c0-0.2,0.1-0.4,0.3-0.6
			c0.3-0.3,0.8-0.7,1.5-1.4c2.6-2.2,4-3.6,4.3-4c-2.3,0-3.9,0-5,0c-0.3,0-0.5-0.1-0.7-0.3c-0.2-0.2-0.3-0.4-0.3-0.6s0.1-0.4,0.4-0.6
			s0.5-0.2,0.7-0.2c0.7,0,1.4,0.1,2.1,0.1s1.6,0,2.5,0c1,0,1.7,0,2.1,0c0.3,0,0.5,0.1,0.7,0.2c0.2,0.2,0.3,0.4,0.3,0.6
			c0,0.2-0.1,0.4-0.2,0.5c0,0,0,0,0,0.1c-0.3,0.4-0.8,0.9-1.3,1.4c-0.5,0.5-1.9,1.8-4.1,3.8l-0.3,0.3c0.3,0,0.8,0,1.3,0
			c2,0,3.2,0,3.6,0c0.3,0,0.5,0.1,0.7,0.2s0.3,0.4,0.3,0.6c0,0.2-0.1,0.4-0.3,0.6c-0.2,0.2-0.4,0.2-0.7,0.2c-0.4,0-1.6,0-3.6,0
			C175.1,249.5,174,249.5,173.1,249.5z"/>
		<path class="st16" d="M189.9,246.8c-0.2-0.2-0.3-0.3-0.3-0.6s0.1-0.4,0.3-0.6c0.2-0.2,0.4-0.2,0.7-0.2h2.8c0.3,0,0.5,0.1,0.7,0.2
			c0.2,0.2,0.3,0.3,0.3,0.6s-0.1,0.4-0.3,0.6c-0.2,0.2-0.4,0.2-0.7,0.2h-2.8C190.4,247,190.1,247,189.9,246.8z"/>
		<path class="st16" d="M206.5,249.5c-0.1,0-0.3,0-0.6,0c-0.3,0-0.5,0-0.7,0c0,0-0.1,0-0.1,0c-0.2,0-0.4,0-0.5-0.1
			c-0.2-0.1-0.3-0.2-0.5-0.3c-0.1-0.1-0.2-0.3-0.2-0.5c0-0.1,0-0.1,0-0.2c0-0.4,0-1,0-2c0-1,0-1.8,0-2.5c0-0.7-0.1-1.4-0.1-2
			c0-0.2,0.1-0.4,0.2-0.6c0.2-0.2,0.4-0.3,0.7-0.3c0.2-0.1,0.3-0.1,0.5-0.1c0.1,0,0.4,0,0.7,0c0.3,0,0.5,0,0.6,0c0.6,0,1.1,0,1.5,0
			c1.3,0.1,2.3,0.3,3,0.7c0.6,0.4,1,0.8,1.1,1.4c0.1,0.5,0,1-0.3,1.5c-0.1,0.2-0.2,0.3-0.3,0.3c0.8,0.3,1.3,0.8,1.5,1.4
			c0.2,0.6,0.2,1,0,1.4c-0.2,0.4-0.6,0.8-1.2,1.1c-0.9,0.5-2.1,0.7-3.5,0.8C207.7,249.6,207.1,249.6,206.5,249.5z M209.8,243.8
			c0.1-0.2,0.2-0.4,0.1-0.5c0-0.1-0.1-0.2-0.3-0.3c-0.4-0.2-1-0.4-1.9-0.4c-0.3,0-0.8,0-1.3,0c-0.1,0-0.3,0-0.5,0
			c0,0.5,0.1,1,0.1,1.6c0.9,0.1,1.7,0.1,2.2,0.1C209.2,244.2,209.7,244.1,209.8,243.8z M210.5,247.4c0.2-0.1,0.4-0.2,0.4-0.3
			s0-0.2-0.1-0.4c-0.1-0.3-0.6-0.5-1.4-0.6c-0.4,0-0.9-0.1-1.5,0c-0.9,0-1.4,0-1.5,0l-0.2,0c0,1.1,0,1.8,0,1.8c0.2,0,0.4,0,0.5,0
			c0.6,0,1.1,0,1.5,0C209.1,247.9,209.9,247.7,210.5,247.4z"/>
		<path class="st16" d="M218.4,249.2c-0.6-0.2-1.1-0.6-1.5-0.9c-0.4-0.4-0.7-0.8-0.9-1.3s-0.3-0.9-0.3-1.4c0-0.5,0-1.1,0.2-1.5
			s0.4-0.9,0.7-1.4c0.3-0.4,0.7-0.8,1.2-1.1c0.5-0.3,1.1-0.6,1.8-0.7c0.3,0,0.6-0.1,0.9-0.1h0.3c0.2,0,0.3,0,0.4,0
			c0.1,0,0.2,0,0.2,0c0.3,0,0.6,0,0.8,0c0.2,0,0.5,0.1,0.8,0.2c0.3,0.1,0.7,0.2,1,0.4c0.7,0.4,1.3,0.9,1.6,1.5s0.5,1.2,0.5,1.8
			c0,0.6-0.2,1.2-0.4,1.8c-0.2,0.4-0.5,0.8-0.8,1.2s-0.7,0.7-1.2,1c-0.4,0.3-1,0.5-1.6,0.7c-0.6,0.2-1.2,0.2-1.8,0.2
			C219.7,249.6,219,249.5,218.4,249.2z M222.4,247.4c0.6-0.4,1-0.9,1.3-1.5c0.3-0.7,0.4-1.3,0.2-1.8c-0.2-0.5-0.5-1-1.1-1.3
			c-0.1-0.1-0.2-0.1-0.3-0.2c-0.1,0-0.2-0.1-0.3-0.1c-0.1,0-0.2-0.1-0.4-0.1c-0.1,0-0.2,0-0.3,0s-0.2,0-0.3,0c-0.1,0-0.2,0-0.3,0
			c-0.1,0-0.2,0-0.3,0c-0.1,0-0.3,0-0.4,0c-0.7,0.2-1.3,0.6-1.8,1.1c-0.4,0.5-0.6,1.2-0.6,2c0,0.7,0.3,1.3,0.7,1.7
			c0.5,0.5,1.1,0.7,1.9,0.7C221.2,248,221.8,247.8,222.4,247.4z"/>
		<path class="st16" d="M229.9,249.2c-0.2-0.2-0.3-0.4-0.3-0.6c0-0.8,0-2-0.1-3.5l0-3.4c0-0.2,0.1-0.4,0.3-0.6
			c0.2-0.2,0.5-0.2,0.8-0.3c0.3,0,0.6,0.1,0.8,0.2c0.2,0.2,0.3,0.4,0.3,0.6l0,3.2l0,3c0.5,0,1.3,0,2.2,0s1.7,0,2.2,0
			c0.3,0,0.6,0.1,0.8,0.2c0.2,0.2,0.3,0.3,0.3,0.6c0,0.2-0.1,0.4-0.3,0.6s-0.5,0.2-0.8,0.2c-0.3,0-1.2,0-2.7,0c-1.5,0-2.4,0-2.7,0
			C230.4,249.5,230.1,249.4,229.9,249.2z"/>
		<path class="st16" d="M239.9,249.3c-0.2-0.2-0.3-0.4-0.3-0.6c0-0.2,0.1-0.4,0.3-0.6c0.2-0.2,0.4-0.3,0.7-0.3c0-1.4,0-3.2,0-5.3
			c-0.3,0-0.5-0.1-0.6-0.3c-0.2-0.2-0.3-0.3-0.3-0.5c0-0.2,0.1-0.4,0.3-0.6c0.2-0.2,0.5-0.2,0.8-0.2l1.8,0c0.3,0,0.6,0.1,0.8,0.3
			c0.2,0.2,0.3,0.4,0.3,0.6c0,0.2-0.1,0.4-0.3,0.5c-0.2,0.2-0.4,0.3-0.7,0.3c0,2.1,0,3.9,0,5.3c0.3,0,0.5,0.1,0.7,0.3
			c0.2,0.2,0.3,0.3,0.3,0.5c0,0.2-0.1,0.4-0.3,0.6s-0.5,0.3-0.8,0.3l-1.8,0C240.4,249.5,240.1,249.5,239.9,249.3z"/>
		<path class="st16" d="M250.2,249.5c-0.3-0.1-0.5-0.2-0.6-0.4c-0.4-0.7-0.8-1.4-1.1-2.1l-1.2-2.6c-0.5-1.2-0.9-2-1.1-2.4
			c-0.1-0.2-0.1-0.4,0-0.6s0.3-0.4,0.6-0.4c0.3-0.1,0.6-0.1,0.8,0c0.3,0.1,0.5,0.3,0.6,0.5l1.2,2.5c0.5,1.1,0.9,1.9,1.2,2.5
			c1-2.2,1.9-3.9,2.6-5.1c0.1-0.2,0.3-0.4,0.6-0.4c0.3-0.1,0.6-0.1,0.8,0c0.3,0.1,0.5,0.2,0.6,0.5c0.1,0.2,0.1,0.4,0,0.7
			c-0.5,0.8-0.9,1.6-1.3,2.3l-1.2,2.5c-0.4,1-0.8,1.7-1,2.1c-0.1,0.2-0.3,0.4-0.5,0.4c-0.1,0-0.1,0.1-0.2,0.1
			C250.8,249.6,250.5,249.6,250.2,249.5z"/>
		<path class="st16" d="M258.1,249.3c-0.2-0.2-0.3-0.4-0.3-0.6c0-0.2,0.1-0.4,0.3-0.6c0.2-0.2,0.4-0.3,0.7-0.3c0-1.4,0-3.2,0-5.3
			c-0.3,0-0.5-0.1-0.6-0.3c-0.2-0.2-0.3-0.3-0.3-0.5c0-0.2,0.1-0.4,0.3-0.6c0.2-0.2,0.5-0.2,0.8-0.2l1.8,0c0.3,0,0.6,0.1,0.8,0.3
			c0.2,0.2,0.3,0.4,0.3,0.6c0,0.2-0.1,0.4-0.3,0.5c-0.2,0.2-0.4,0.3-0.7,0.3c0,2.1,0,3.9,0,5.3c0.3,0,0.5,0.1,0.7,0.3
			c0.2,0.2,0.3,0.3,0.3,0.5c0,0.2-0.1,0.4-0.3,0.6s-0.5,0.3-0.8,0.3l-1.8,0C258.5,249.5,258.3,249.5,258.1,249.3z"/>
		<path class="st16" d="M264.1,248.4l3.5-7c0.1-0.2,0.2-0.3,0.4-0.4c0.2-0.1,0.4-0.1,0.6-0.2c0.2,0,0.5,0,0.7,0.1
			c0.2,0.1,0.4,0.2,0.5,0.4l1.2,2.2l1.4,2.6l1.1,2.2c0.1,0.2,0.1,0.4,0,0.6c-0.1,0.2-0.3,0.4-0.6,0.5c-0.3,0.1-0.6,0.1-0.9,0
			c-0.3-0.1-0.5-0.2-0.6-0.5l-0.9-1.6c-1.2,0-2.3,0-3.5,0l-0.8,1.6c-0.1,0.2-0.3,0.4-0.6,0.5c-0.3,0.1-0.6,0.1-0.8,0
			c-0.3-0.1-0.5-0.2-0.6-0.5C264,248.8,264,248.6,264.1,248.4z M269.6,245.7l-0.8-1.7l-0.9,1.7C268.3,245.7,268.8,245.7,269.6,245.7
			z"/>
	</g>
	<path class="st17" d="M45.4,163.1h206.7c10.1,0,18.3,8.2,18.3,18.3v12.3c0,10.1-8.2,18.3-18.3,18.3H45.4
		c-10.1,0-18.3-8.2-18.3-18.3v-12.3C27.1,171.3,35.3,163.1,45.4,163.1z"/>
	<g class="st4">
		<path class="st18" d="M36.3,198.5c-0.6-0.4-0.9-1-0.9-1.6c0-0.6,0.2-1.1,0.7-1.5c0.5-0.5,1.1-0.7,1.8-0.8c0-3.8,0-8.7,0-14.6
			c-0.7-0.1-1.3-0.4-1.7-0.8c-0.5-0.4-0.7-0.9-0.7-1.5c0-0.6,0.3-1.2,0.9-1.6c0.6-0.4,1.3-0.7,2.1-0.7l4.9,0c0.8,0,1.5,0.2,2.1,0.7
			s0.9,1,0.9,1.7c0,0.6-0.2,1-0.7,1.5c-0.5,0.4-1.1,0.7-1.8,0.8c0.1,5.8,0.1,10.6,0.1,14.4c0.7,0.1,1.3,0.3,1.8,0.8
			c0.5,0.4,0.7,0.9,0.8,1.5c0,0.6-0.3,1.2-0.8,1.7c-0.6,0.5-1.3,0.7-2.1,0.7l-5,0.1C37.6,199.1,36.9,198.9,36.3,198.5z"/>
		<path class="st18" d="M72.7,192.1c-0.5-1-1.1-1.7-1.8-2.2c-0.7-0.5-1.7-0.8-3.1-1c-0.3,0-0.7,0-1.3,0c-0.5,0-0.8,0-0.9,0
			c-1.1,0-2,0-2.6,0.1h-1.3c0,3,0,5.5,0,7.6c0,0.6-0.3,1.2-0.9,1.6c-0.6,0.5-1.3,0.7-2.1,0.7c-0.8,0-1.5-0.2-2.1-0.7
			c-0.6-0.5-0.9-1-0.9-1.6c0-2.5,0-5.8-0.1-9.9c-0.1-4.1-0.1-7.2-0.1-9.3c0-0.6,0.3-1.2,0.9-1.6c0.6-0.5,1.3-0.7,2.1-0.7h0.2
			c4.1-0.4,7.9-0.4,11.4,0c2.7,0.3,4.9,0.9,6.4,1.8c2.4,1.3,3.5,3,3.4,5.2c-0.2,2.1-1.6,3.8-4.3,5c1,0.9,1.9,2,2.5,3.3
			c0.6,1.3,1.3,3.2,1.9,5.6c0.2,0.6,0.1,1.2-0.3,1.8c-0.4,0.6-1,0.9-1.8,1.1c-0.8,0.2-1.6,0.1-2.3-0.3c-0.7-0.3-1.2-0.8-1.4-1.4
			C73.8,195,73.2,193.3,72.7,192.1z M61.9,184.5c2.4-0.2,4.4-0.3,6.1-0.1c0.2,0,0.4,0,0.6-0.1c1.7-0.2,3.1-0.5,4.1-1
			c0.9-0.4,1.4-0.9,1.5-1.4c0.1-0.4-0.2-0.8-0.7-1.1c-0.9-0.5-2.2-0.8-4-1c-2.2-0.3-4.7-0.3-7.7-0.2c0,1.3,0,3,0,4.8H61.9z"/>
	</g>
	<g class="st4">
		<path class="st18" d="M94.7,198.6c-0.6,0.5-1.3,0.7-2.1,0.7s-1.5-0.2-2.1-0.7c-0.6-0.5-0.9-1-0.9-1.6c0-0.6,0-3.8-0.1-9.6
			s0-9,0-9.6c0-0.6,0.3-1.2,0.9-1.6s1.3-0.6,2.1-0.6c0.1,0,0.3,0,0.4,0c0.1,0,0.1,0,0.2,0c3.5-0.4,6.2-0.6,8.2-0.5
			c3.9,0.2,6.8,1.2,8.9,3.1c1.5,1.5,2.3,3,2.4,4.7c0,1.7-0.6,3-2,4.2c-1.1,0.9-2.5,1.7-4.2,2.2c-1.7,0.5-3.4,0.8-5.2,0.9
			c-0.6,0-1.2,0-1.8,0c-0.7,0-1.5-0.1-2.4-0.1c-0.9-0.1-1.5-0.1-1.6-0.1c0.1,3.3,0.1,5.7,0.1,7.2C95.6,197.6,95.3,198.1,94.7,198.6z
			 M104,184.9c0.9-0.3,1.6-0.7,2.1-1.1c0.2-0.2,0.4-0.4,0.5-0.5s0.1-0.5-0.1-0.9s-0.4-0.9-0.9-1.4c-0.9-0.9-2.4-1.3-4.6-1.4
			c-1.4-0.1-3.3,0-5.6,0.3c0,1.5,0,3.2,0,5.3h0l2,0.2c0.7,0,1.4,0.1,1.9,0.1c0.5,0,1.1,0,1.6,0C102.1,185.4,103.1,185.2,104,184.9z"
			/>
	</g>
	<g class="st4">
		<path class="st18" d="M115.4,195.9l9.6-19.1c0.2-0.4,0.6-0.8,1.1-1c0.5-0.3,1-0.4,1.6-0.4c0.6-0.1,1.3,0,1.9,0.2
			c0.6,0.3,1.1,0.6,1.4,1.1l3.2,6.1l3.7,7.1l3,6c0.3,0.6,0.3,1.2,0,1.8c-0.3,0.6-0.9,1-1.7,1.2c-0.8,0.2-1.6,0.2-2.3,0
			s-1.3-0.7-1.6-1.2l-2.5-4.4c-3.2-0.1-6.4,0-9.5,0.1l-2.1,4.4c-0.3,0.6-0.9,1-1.7,1.2s-1.5,0.3-2.3,0s-1.3-0.7-1.6-1.2
			C115.1,197.1,115.1,196.5,115.4,195.9z M130.4,188.6l-2.3-4.8l-2.4,4.8C126.8,188.6,128.3,188.6,130.4,188.6z"/>
		<path class="st18" d="M168.8,198.4c-1.9-1.7-4.3-4.2-7.3-7.4c-3.2-3.5-5.4-5.8-6.7-7c0,0.9,0.1,2.8,0.2,5.9c0.1,3,0.2,5.4,0.2,7
			c0,0.6-0.3,1.2-0.9,1.6c-0.6,0.5-1.3,0.7-2.1,0.7s-1.5-0.2-2.1-0.7c-0.6-0.5-0.9-1-0.9-1.6c0-1.6-0.1-4.5-0.2-8.9
			s-0.2-7.8-0.1-10.3c0-0.6,0.3-1.2,0.9-1.6c0.6-0.4,1.3-0.6,2.1-0.6c0.4,0,0.8,0.1,1.2,0.2c0.5,0.1,1,0.4,1.4,0.7
			c0.5,0.5,1.3,1.2,2.4,2.3c1.1,1.1,1.9,1.8,2.5,2.3c1.6,1.5,4,4,7.1,7.4l2.1,2.3c0.1-5.1,0.1-9.4,0-12.8c0-0.6,0.3-1.2,0.9-1.6
			c0.6-0.5,1.3-0.7,2.1-0.7c0.8,0,1.5,0.2,2.1,0.6c0.6,0.4,0.9,1,0.9,1.6c0,3.2,0,9.6-0.1,19.1c0,0.6-0.3,1.1-0.9,1.6
			c-0.5,0.4-1.2,0.7-2,0.7C170.5,199.4,169.6,199.1,168.8,198.4z M152.6,173.7c-0.4-0.3-0.6-0.8-0.6-1.4c0-0.6,0.3-1.3,0.9-2
			s1.4-1.2,2.4-1.7s2-0.6,2.9-0.6c0.9,0,1.7,0.1,2.3,0.3s1.3,0.4,1.9,0.8c0.7,0.3,1.2,0.6,1.6,0.7c0.4,0.1,0.9,0.2,1.4,0.2
			c0.5,0,0.9-0.1,1.1-0.2s0.5-0.4,0.8-0.7c0.3-0.4,0.6-0.6,0.9-0.8c0.3-0.2,0.8-0.3,1.5-0.3c0.7,0,1.3,0.2,1.7,0.5
			c0.4,0.3,0.6,0.8,0.6,1.4c0,0.7-0.3,1.4-0.8,2.1c-0.6,0.7-1.3,1.2-2.3,1.7c-1,0.4-2,0.6-3.2,0.6c-0.8,0-1.5-0.1-2.1-0.3
			c-0.6-0.2-1.3-0.4-2-0.8c-0.8-0.4-1.4-0.6-1.8-0.7c-0.4-0.1-0.8-0.2-1.3-0.2c-0.6,0-1,0.1-1.3,0.2s-0.6,0.4-0.9,0.7
			c-0.3,0.4-0.6,0.6-0.9,0.8c-0.3,0.2-0.7,0.2-1.2,0.2C153.6,174.2,153,174,152.6,173.7z"/>
		<path class="st18" d="M182.5,195.9l9.6-19.1c0.2-0.4,0.6-0.8,1.1-1c0.5-0.3,1-0.4,1.6-0.4c0.6-0.1,1.3,0,1.9,0.2
			c0.6,0.3,1.1,0.6,1.4,1.1l3.2,6.1l3.7,7.1l3,6c0.3,0.6,0.3,1.2,0,1.8c-0.3,0.6-0.9,1-1.7,1.2c-0.8,0.2-1.6,0.2-2.3,0
			s-1.3-0.7-1.6-1.2l-2.5-4.4c-3.2-0.1-6.4,0-9.5,0.1l-2.1,4.4c-0.3,0.6-0.9,1-1.7,1.2s-1.5,0.3-2.3,0s-1.3-0.7-1.6-1.2
			C182.2,197.1,182.2,196.5,182.5,195.9z M197.5,188.6l-2.3-4.8l-2.4,4.8C193.9,188.6,195.5,188.6,197.5,188.6z"/>
		<path class="st18" d="M236,198.1c-1.9-1.7-4.3-4.3-7.3-7.7c-3.2-3.5-5.4-5.8-6.7-7c0,0.9,0.1,2.8,0.2,5.9c0.1,3,0.2,5.5,0.2,7.6
			c0,0.6-0.3,1.2-0.9,1.6c-0.6,0.5-1.3,0.7-2.1,0.7s-1.5-0.2-2.1-0.7c-0.6-0.5-0.9-1-0.9-1.6c0-1.9-0.1-5.1-0.2-9.4
			s-0.2-7.6-0.1-9.8c0-0.6,0.3-1.2,0.9-1.6c0.6-0.4,1.3-0.7,2.1-0.6c0.4,0,0.8,0.1,1.2,0.2c0.5,0.1,1,0.4,1.4,0.7
			c0.5,0.5,1.3,1.2,2.4,2.2s1.9,1.8,2.5,2.3c1.6,1.3,4,3.6,7.1,7.1l2.1,2.3c0.1-5.1,0.1-9.3,0-12.5c0-0.6,0.3-1.2,0.9-1.6
			s1.3-0.7,2.1-0.7s1.5,0.2,2.1,0.6c0.6,0.4,0.9,1,0.9,1.6c0,3,0,9.4-0.1,19.1c0,0.6-0.3,1.1-0.9,1.6c-0.5,0.4-1.2,0.7-2,0.7
			C237.6,199,236.7,198.8,236,198.1z"/>
		<path class="st18" d="M252,198.5c-0.6-0.4-0.9-1-0.9-1.6c0-0.6,0.2-1.1,0.7-1.5c0.5-0.5,1.1-0.7,1.8-0.8c0-3.8,0-8.7,0-14.6
			c-0.7-0.1-1.3-0.4-1.7-0.8c-0.5-0.4-0.7-0.9-0.7-1.5c0-0.6,0.3-1.2,0.9-1.6c0.6-0.4,1.3-0.7,2.1-0.7l4.9,0c0.8,0,1.5,0.2,2.1,0.7
			c0.6,0.5,0.9,1,0.9,1.7c0,0.6-0.2,1-0.7,1.5c-0.5,0.4-1.1,0.7-1.8,0.8c0.1,5.8,0.1,10.6,0.1,14.4c0.7,0.1,1.3,0.3,1.8,0.8
			c0.5,0.4,0.7,0.9,0.8,1.5c0,0.6-0.3,1.2-0.8,1.7c-0.6,0.5-1.3,0.7-2.1,0.7l-5,0.1C253.4,199.1,252.6,198.9,252,198.5z"/>
	</g>
</g>
</svg>
