<?xml version="1.0" encoding="UTF-8" standalone="no"?>
<!DOCTYPE svg PUBLIC "-//W3C//DTD SVG 1.1//EN" "http://www.w3.org/Graphics/SVG/1.1/DTD/svg11.dtd">
<svg width="100%" height="100%" viewBox="0 0 61 262" version="1.1" xmlns="http://www.w3.org/2000/svg" xmlns:xlink="http://www.w3.org/1999/xlink" xml:space="preserve" xmlns:serif="http://www.serif.com/" style="fill-rule:evenodd;clip-rule:evenodd;stroke-linejoin:round;stroke-miterlimit:2;">
    <g transform="matrix(1,0,0,1,-48.9461,-35.7227)">
        <g transform="matrix(1,0,0,1,14,19)">
            <g id="cuadros" transform="matrix(0.707107,-0.707107,0.707107,0.707107,-529.892,357.533)">
                <g opacity="0.45">
                    <g transform="matrix(0.707107,0.707107,-0.707107,0.707107,631.039,98.5418)">
                        <path d="M82.544,238.545C81.607,237.607 80.335,237.08 79.009,237.08C77.683,237.08 76.411,237.607 75.473,238.545C69.292,244.726 56.592,257.426 50.411,263.607C49.473,264.545 48.946,265.817 48.946,267.143C48.946,268.469 49.473,269.741 50.411,270.678C56.592,276.859 69.292,289.56 75.473,295.741C76.411,296.679 77.683,297.205 79.009,297.205C80.335,297.205 81.607,296.679 82.544,295.741C88.726,289.56 101.426,276.859 107.607,270.678C108.545,269.741 109.071,268.469 109.071,267.143C109.071,265.817 108.545,264.545 107.607,263.607C101.426,257.426 88.726,244.726 82.544,238.545Z" style="fill:url(#_Linear1);"/>
                    </g>
                    <g transform="matrix(0.707107,0.707107,-0.707107,0.707107,631.039,98.5418)">
                        <path d="M82.544,171.425C81.607,170.488 80.335,169.961 79.009,169.961C77.683,169.961 76.411,170.488 75.473,171.425C69.292,177.607 56.592,190.307 50.411,196.488C49.473,197.426 48.946,198.697 48.946,200.024C48.946,201.35 49.473,202.621 50.411,203.559C56.592,209.74 69.292,222.441 75.473,228.622C76.411,229.559 77.683,230.086 79.009,230.086C80.335,230.086 81.607,229.559 82.544,228.622C88.726,222.441 101.426,209.74 107.607,203.559C108.545,202.621 109.071,201.35 109.071,200.024C109.071,198.697 108.545,197.426 107.607,196.488C101.426,190.307 88.726,177.607 82.544,171.425Z" style="fill:url(#_Linear2);"/>
                    </g>
                    <g transform="matrix(0.707107,0.707107,-0.707107,0.707107,631.039,98.5418)">
                        <path d="M82.544,104.306C81.607,103.369 80.335,102.842 79.009,102.842C77.683,102.842 76.411,103.369 75.473,104.306C69.292,110.487 56.592,123.188 50.411,129.369C49.473,130.307 48.946,131.578 48.946,132.904C48.946,134.231 49.473,135.502 50.411,136.44C56.592,142.621 69.292,155.321 75.473,161.503C76.411,162.44 77.683,162.967 79.009,162.967C80.335,162.967 81.607,162.44 82.544,161.503C88.726,155.321 101.426,142.621 107.607,136.44C108.545,135.502 109.071,134.231 109.071,132.904C109.071,131.578 108.545,130.307 107.607,129.369C101.426,123.188 88.726,110.487 82.544,104.306Z" style="fill:url(#_Linear3);"/>
                    </g>
                    <g transform="matrix(0.707107,0.707107,-0.707107,0.707107,631.039,98.5418)">
                        <path d="M82.544,37.187C81.607,36.25 80.335,35.723 79.009,35.723C77.683,35.723 76.411,36.25 75.473,37.187C69.292,43.368 56.592,56.069 50.411,62.25C49.473,63.188 48.946,64.459 48.946,65.785C48.946,67.111 49.473,68.383 50.411,69.321C56.592,75.502 69.292,88.202 75.473,94.384C76.411,95.321 77.683,95.848 79.009,95.848C80.335,95.848 81.607,95.321 82.544,94.384C88.726,88.202 101.426,75.502 107.607,69.321C108.545,68.383 109.071,67.111 109.071,65.785C109.071,64.459 108.545,63.188 107.607,62.25C101.426,56.069 88.726,43.368 82.544,37.187Z" style="fill:url(#_Linear4);"/>
                    </g>
                </g>
            </g>
        </g>
    </g>
    <defs>
        <linearGradient id="_Linear1" x1="0" y1="0" x2="1" y2="0" gradientUnits="userSpaceOnUse" gradientTransform="matrix(1.78923e-13,78.4171,-78.4171,1.78923e-13,79.0088,267.143)"><stop offset="0" style="stop-color:rgb(249,249,249);stop-opacity:1"/><stop offset="1" style="stop-color:rgb(201,201,201);stop-opacity:1"/></linearGradient>
        <linearGradient id="_Linear2" x1="0" y1="0" x2="1" y2="0" gradientUnits="userSpaceOnUse" gradientTransform="matrix(-5.75313e-14,95.1086,-95.1086,-5.75313e-14,79.0088,193.8)"><stop offset="0" style="stop-color:rgb(249,249,249);stop-opacity:1"/><stop offset="1" style="stop-color:rgb(201,201,201);stop-opacity:1"/></linearGradient>
        <linearGradient id="_Linear3" x1="0" y1="0" x2="1" y2="0" gradientUnits="userSpaceOnUse" gradientTransform="matrix(1.74453e-13,-38.7492,38.7492,1.74453e-13,79.0088,129.751)"><stop offset="0" style="stop-color:rgb(249,249,249);stop-opacity:1"/><stop offset="1" style="stop-color:rgb(221,221,221);stop-opacity:1"/></linearGradient>
        <linearGradient id="_Linear4" x1="0" y1="0" x2="1" y2="0" gradientUnits="userSpaceOnUse" gradientTransform="matrix(1.67936e-13,-67.0745,67.0745,1.67936e-13,79.0088,71.4813)"><stop offset="0" style="stop-color:rgb(249,249,249);stop-opacity:1"/><stop offset="1" style="stop-color:rgb(221,221,221);stop-opacity:1"/></linearGradient>
    </defs>
</svg>
